M48
; DRILL file {KiCad (5.1.8)-1} date 02/16/21 22:48:16
; FORMAT={-:-/ absolute / inch / decimal}
; #@! TF.CreationDate,2021-02-16T22:48:16+07:00
; #@! TF.GenerationSoftware,Kicad,Pcbnew,(5.1.8)-1
; #@! TF.FileFunction,Plated,1,2,PTH
FMAT,2
INCH
T1C0.0118
T2C0.0236
T3C0.0394
%
G90
G05
T1
X5.3658Y-3.7128
X5.3673Y-3.5282
X5.3763Y-3.7587
X5.3827Y-3.943
X5.3927Y-3.9053
X5.3977Y-3.3743
X5.3988Y-3.842
X5.4072Y-3.4589
X5.4365Y-3.805
X5.4433Y-3.7007
X5.4641Y-3.6659
X5.4734Y-3.9868
X5.4763Y-3.7612
X5.4838Y-3.2645
X5.4925Y-3.1305
X5.4967Y-3.9913
X5.5012Y-3.5615
X5.5146Y-3.8356
X5.5171Y-3.4365
X5.532Y-3.1336
X5.5343Y-3.7999
X5.5395Y-3.5365
X5.5476Y-3.6201
X5.5846Y-3.6562
X5.5895Y-3.882
X5.5895Y-3.9113
X5.5899Y-3.7058
X5.5905Y-3.8526
X5.591Y-3.1336
X5.6029Y-4.0406
X5.6257Y-4.0193
X5.6398Y-3.2645
X5.6494Y-3.7598
X5.6495Y-3.8329
X5.652Y-3.595
X5.658Y-3.1698
X5.6697Y-3.6656
X5.672Y-3.957
X5.6895Y-3.1698
X5.7116Y-3.4333
X5.7116Y-3.5987
X5.724Y-3.6449
X5.728Y-3.6815
X5.7355Y-3.9895
X5.7482Y-3.7454
X5.7494Y-3.7713
X5.758Y-3.6815
X5.7735Y-3.9494
T3
X5.3621Y-4.12
X5.3621Y-4.1731
X5.4621Y-4.12
X5.4621Y-4.1731
X5.5621Y-4.12
X5.5621Y-4.1731
X5.6621Y-4.12
X5.6621Y-4.1731
X5.7621Y-4.12
X5.7621Y-4.1731
X5.8625Y-2.92
X5.8625Y-3.02
X5.8625Y-3.12
X5.8625Y-3.22
X5.8625Y-3.32
X5.8625Y-3.42
X5.8625Y-3.52
X5.8625Y-3.62
X5.8625Y-3.72
X5.8625Y-3.82
X5.8625Y-3.92
X5.8625Y-4.02
X5.8625Y-4.12
X5.9156Y-2.92
X5.9156Y-3.02
X5.9156Y-3.12
X5.9156Y-3.22
X5.9156Y-3.32
X5.9156Y-3.42
X5.9156Y-3.52
X5.9156Y-3.62
X5.9156Y-3.72
X5.9156Y-3.82
X5.9156Y-3.92
X5.9156Y-4.02
X5.9156Y-4.12
X5.209Y-2.92
X5.209Y-3.02
X5.209Y-3.12
X5.209Y-3.22
X5.209Y-3.32
X5.209Y-3.42
X5.209Y-3.52
X5.209Y-3.62
X5.209Y-3.72
X5.209Y-3.82
X5.209Y-3.92
X5.209Y-4.02
X5.209Y-4.12
X5.2621Y-2.92
X5.2621Y-3.02
X5.2621Y-3.12
X5.2621Y-3.22
X5.2621Y-3.32
X5.2621Y-3.42
X5.2621Y-3.52
X5.2621Y-3.62
X5.2621Y-3.72
X5.2621Y-3.82
X5.2621Y-3.92
X5.2621Y-4.02
X5.2621Y-4.12
T2
G00X5.3914Y-2.981
M15
G01X5.3914Y-2.9574
M16
G05
G00X5.3914Y-3.1554
M15
G01X5.3914Y-3.1121
M16
G05
G00X5.7316Y-2.981
M15
G01X5.7316Y-2.9574
M16
G05
G00X5.7316Y-3.1554
M15
G01X5.7316Y-3.1121
M16
G05
T0
M30
