%TF.GenerationSoftware,KiCad,Pcbnew,(5.1.8)-1*%
%TF.CreationDate,2021-01-23T13:31:05+07:00*%
%TF.ProjectId,ArduinoMicroC,41726475-696e-46f4-9d69-63726f432e6b,rev?*%
%TF.SameCoordinates,Original*%
%TF.FileFunction,Legend,Bot*%
%TF.FilePolarity,Positive*%
%FSLAX46Y46*%
G04 Gerber Fmt 4.6, Leading zero omitted, Abs format (unit mm)*
G04 Created by KiCad (PCBNEW (5.1.8)-1) date 2021-01-23 13:31:05*
%MOMM*%
%LPD*%
G01*
G04 APERTURE LIST*
%ADD10C,0.100000*%
%ADD11C,0.200000*%
G04 APERTURE END LIST*
D10*
X147631104Y-76155619D02*
X147250152Y-75888952D01*
X147631104Y-75698476D02*
X146831104Y-75698476D01*
X146831104Y-76003238D01*
X146869200Y-76079428D01*
X146907295Y-76117523D01*
X146983485Y-76155619D01*
X147097771Y-76155619D01*
X147173961Y-76117523D01*
X147212057Y-76079428D01*
X147250152Y-76003238D01*
X147250152Y-75698476D01*
X147402533Y-76460380D02*
X147402533Y-76841333D01*
X147631104Y-76384190D02*
X146831104Y-76650857D01*
X147631104Y-76917523D01*
X146831104Y-77108000D02*
X147631104Y-77298476D01*
X147059676Y-77450857D01*
X147631104Y-77603238D01*
X146831104Y-77793714D01*
X146869200Y-78638476D02*
X146831104Y-78562285D01*
X146831104Y-78448000D01*
X146869200Y-78333714D01*
X146945390Y-78257523D01*
X147021580Y-78219428D01*
X147173961Y-78181333D01*
X147288247Y-78181333D01*
X147440628Y-78219428D01*
X147516819Y-78257523D01*
X147593009Y-78333714D01*
X147631104Y-78448000D01*
X147631104Y-78524190D01*
X147593009Y-78638476D01*
X147554914Y-78676571D01*
X147288247Y-78676571D01*
X147288247Y-78524190D01*
X147631104Y-79019428D02*
X146831104Y-79019428D01*
X147631104Y-79476571D01*
X146831104Y-79476571D01*
X147631104Y-79857523D02*
X146831104Y-79857523D01*
X146831104Y-80048000D01*
X146869200Y-80162285D01*
X146945390Y-80238476D01*
X147021580Y-80276571D01*
X147173961Y-80314666D01*
X147288247Y-80314666D01*
X147440628Y-80276571D01*
X147516819Y-80238476D01*
X147593009Y-80162285D01*
X147631104Y-80048000D01*
X147631104Y-79857523D01*
X147631104Y-81349904D02*
X147250152Y-81083238D01*
X147631104Y-80892761D02*
X146831104Y-80892761D01*
X146831104Y-81197523D01*
X146869200Y-81273714D01*
X146907295Y-81311809D01*
X146983485Y-81349904D01*
X147097771Y-81349904D01*
X147173961Y-81311809D01*
X147212057Y-81273714D01*
X147250152Y-81197523D01*
X147250152Y-80892761D01*
X147593009Y-81654666D02*
X147631104Y-81768952D01*
X147631104Y-81959428D01*
X147593009Y-82035619D01*
X147554914Y-82073714D01*
X147478723Y-82111809D01*
X147402533Y-82111809D01*
X147326342Y-82073714D01*
X147288247Y-82035619D01*
X147250152Y-81959428D01*
X147212057Y-81807047D01*
X147173961Y-81730857D01*
X147135866Y-81692761D01*
X147059676Y-81654666D01*
X146983485Y-81654666D01*
X146907295Y-81692761D01*
X146869200Y-81730857D01*
X146831104Y-81807047D01*
X146831104Y-81997523D01*
X146869200Y-82111809D01*
X146831104Y-82340380D02*
X146831104Y-82797523D01*
X147631104Y-82568952D02*
X146831104Y-82568952D01*
X146831104Y-83261333D02*
X147631104Y-83528000D01*
X146831104Y-83794666D01*
X147554914Y-84518476D02*
X147593009Y-84480380D01*
X147631104Y-84366095D01*
X147631104Y-84289904D01*
X147593009Y-84175619D01*
X147516819Y-84099428D01*
X147440628Y-84061333D01*
X147288247Y-84023238D01*
X147173961Y-84023238D01*
X147021580Y-84061333D01*
X146945390Y-84099428D01*
X146869200Y-84175619D01*
X146831104Y-84289904D01*
X146831104Y-84366095D01*
X146869200Y-84480380D01*
X146907295Y-84518476D01*
X147554914Y-85318476D02*
X147593009Y-85280380D01*
X147631104Y-85166095D01*
X147631104Y-85089904D01*
X147593009Y-84975619D01*
X147516819Y-84899428D01*
X147440628Y-84861333D01*
X147288247Y-84823238D01*
X147173961Y-84823238D01*
X147021580Y-84861333D01*
X146945390Y-84899428D01*
X146869200Y-84975619D01*
X146831104Y-85089904D01*
X146831104Y-85166095D01*
X146869200Y-85280380D01*
X146907295Y-85318476D01*
X147402533Y-86296571D02*
X147402533Y-86677523D01*
X147631104Y-86220380D02*
X146831104Y-86487047D01*
X147631104Y-86753714D01*
X146831104Y-86944190D02*
X146831104Y-87439428D01*
X147135866Y-87172761D01*
X147135866Y-87287047D01*
X147173961Y-87363238D01*
X147212057Y-87401333D01*
X147288247Y-87439428D01*
X147478723Y-87439428D01*
X147554914Y-87401333D01*
X147593009Y-87363238D01*
X147631104Y-87287047D01*
X147631104Y-87058476D01*
X147593009Y-86982285D01*
X147554914Y-86944190D01*
X147402533Y-88836571D02*
X147402533Y-89217523D01*
X147631104Y-88760380D02*
X146831104Y-89027047D01*
X147631104Y-89293714D01*
X146907295Y-89522285D02*
X146869200Y-89560380D01*
X146831104Y-89636571D01*
X146831104Y-89827047D01*
X146869200Y-89903238D01*
X146907295Y-89941333D01*
X146983485Y-89979428D01*
X147059676Y-89979428D01*
X147173961Y-89941333D01*
X147631104Y-89484190D01*
X147631104Y-89979428D01*
X147402533Y-91376571D02*
X147402533Y-91757523D01*
X147631104Y-91300380D02*
X146831104Y-91567047D01*
X147631104Y-91833714D01*
X147631104Y-92519428D02*
X147631104Y-92062285D01*
X147631104Y-92290857D02*
X146831104Y-92290857D01*
X146945390Y-92214666D01*
X147021580Y-92138476D01*
X147059676Y-92062285D01*
X147402533Y-93916571D02*
X147402533Y-94297523D01*
X147631104Y-93840380D02*
X146831104Y-94107047D01*
X147631104Y-94373714D01*
X146831104Y-94792761D02*
X146831104Y-94868952D01*
X146869200Y-94945142D01*
X146907295Y-94983238D01*
X146983485Y-95021333D01*
X147135866Y-95059428D01*
X147326342Y-95059428D01*
X147478723Y-95021333D01*
X147554914Y-94983238D01*
X147593009Y-94945142D01*
X147631104Y-94868952D01*
X147631104Y-94792761D01*
X147593009Y-94716571D01*
X147554914Y-94678476D01*
X147478723Y-94640380D01*
X147326342Y-94602285D01*
X147135866Y-94602285D01*
X146983485Y-94640380D01*
X146907295Y-94678476D01*
X146869200Y-94716571D01*
X146831104Y-94792761D01*
X147631104Y-96875619D02*
X147631104Y-96418476D01*
X147631104Y-96647047D02*
X146831104Y-96647047D01*
X146945390Y-96570857D01*
X147021580Y-96494666D01*
X147059676Y-96418476D01*
X146831104Y-97599428D02*
X146831104Y-97218476D01*
X147212057Y-97180380D01*
X147173961Y-97218476D01*
X147135866Y-97294666D01*
X147135866Y-97485142D01*
X147173961Y-97561333D01*
X147212057Y-97599428D01*
X147288247Y-97637523D01*
X147478723Y-97637523D01*
X147554914Y-97599428D01*
X147593009Y-97561333D01*
X147631104Y-97485142D01*
X147631104Y-97294666D01*
X147593009Y-97218476D01*
X147554914Y-97180380D01*
X147631104Y-99415619D02*
X147631104Y-98958476D01*
X147631104Y-99187047D02*
X146831104Y-99187047D01*
X146945390Y-99110857D01*
X147021580Y-99034666D01*
X147059676Y-98958476D01*
X147097771Y-100101333D02*
X147631104Y-100101333D01*
X146793009Y-99910857D02*
X147364438Y-99720380D01*
X147364438Y-100215619D01*
X147631104Y-101549219D02*
X147631104Y-101092076D01*
X147631104Y-101320647D02*
X146831104Y-101320647D01*
X146945390Y-101244457D01*
X147021580Y-101168266D01*
X147059676Y-101092076D01*
X146831104Y-102234933D02*
X146831104Y-102082552D01*
X146869200Y-102006361D01*
X146907295Y-101968266D01*
X147021580Y-101892076D01*
X147173961Y-101853980D01*
X147478723Y-101853980D01*
X147554914Y-101892076D01*
X147593009Y-101930171D01*
X147631104Y-102006361D01*
X147631104Y-102158742D01*
X147593009Y-102234933D01*
X147554914Y-102273028D01*
X147478723Y-102311123D01*
X147288247Y-102311123D01*
X147212057Y-102273028D01*
X147173961Y-102234933D01*
X147135866Y-102158742D01*
X147135866Y-102006361D01*
X147173961Y-101930171D01*
X147212057Y-101892076D01*
X147288247Y-101853980D01*
X146943244Y-103081254D02*
X147266493Y-103404503D01*
X147104868Y-103242879D02*
X147670554Y-102677193D01*
X147643616Y-102811880D01*
X147643616Y-102919630D01*
X147670554Y-103000442D01*
X147158743Y-102165383D02*
X147104868Y-102111508D01*
X147024056Y-102084571D01*
X146970181Y-102084571D01*
X146889369Y-102111508D01*
X146754682Y-102192320D01*
X146619995Y-102327007D01*
X146539183Y-102461694D01*
X146512245Y-102542506D01*
X146512245Y-102596381D01*
X146539183Y-102677193D01*
X146593058Y-102731068D01*
X146673870Y-102758006D01*
X146727745Y-102758006D01*
X146808557Y-102731068D01*
X146943244Y-102650256D01*
X147077931Y-102515569D01*
X147158743Y-102380882D01*
X147185680Y-102300070D01*
X147185680Y-102246195D01*
X147158743Y-102165383D01*
X146075380Y-103358904D02*
X146532523Y-103358904D01*
X146303952Y-103358904D02*
X146303952Y-102558904D01*
X146380142Y-102673190D01*
X146456333Y-102749380D01*
X146532523Y-102787476D01*
X145808714Y-102558904D02*
X145275380Y-102558904D01*
X145618238Y-103358904D01*
X144386228Y-103130333D02*
X144005276Y-103130333D01*
X144462419Y-103358904D02*
X144195752Y-102558904D01*
X143929085Y-103358904D01*
X143281466Y-102558904D02*
X143662419Y-102558904D01*
X143700514Y-102939857D01*
X143662419Y-102901761D01*
X143586228Y-102863666D01*
X143395752Y-102863666D01*
X143319561Y-102901761D01*
X143281466Y-102939857D01*
X143243371Y-103016047D01*
X143243371Y-103206523D01*
X143281466Y-103282714D01*
X143319561Y-103320809D01*
X143395752Y-103358904D01*
X143586228Y-103358904D01*
X143662419Y-103320809D01*
X143700514Y-103282714D01*
X141846228Y-103130333D02*
X141465276Y-103130333D01*
X141922419Y-103358904D02*
X141655752Y-102558904D01*
X141389085Y-103358904D01*
X140779561Y-102825571D02*
X140779561Y-103358904D01*
X140970038Y-102520809D02*
X141160514Y-103092238D01*
X140665276Y-103092238D01*
X138887180Y-103358904D02*
X139344323Y-103358904D01*
X139115752Y-103358904D02*
X139115752Y-102558904D01*
X139191942Y-102673190D01*
X139268133Y-102749380D01*
X139344323Y-102787476D01*
X138620514Y-102558904D02*
X138125276Y-102558904D01*
X138391942Y-102863666D01*
X138277657Y-102863666D01*
X138201466Y-102901761D01*
X138163371Y-102939857D01*
X138125276Y-103016047D01*
X138125276Y-103206523D01*
X138163371Y-103282714D01*
X138201466Y-103320809D01*
X138277657Y-103358904D01*
X138506228Y-103358904D01*
X138582419Y-103320809D01*
X138620514Y-103282714D01*
X136753580Y-103358904D02*
X137210723Y-103358904D01*
X136982152Y-103358904D02*
X136982152Y-102558904D01*
X137058342Y-102673190D01*
X137134533Y-102749380D01*
X137210723Y-102787476D01*
X136448819Y-102635095D02*
X136410723Y-102597000D01*
X136334533Y-102558904D01*
X136144057Y-102558904D01*
X136067866Y-102597000D01*
X136029771Y-102635095D01*
X135991676Y-102711285D01*
X135991676Y-102787476D01*
X136029771Y-102901761D01*
X136486914Y-103358904D01*
X135991676Y-103358904D01*
X135081444Y-103360654D02*
X134973694Y-103252905D01*
X134946757Y-103172093D01*
X134946757Y-103118218D01*
X134973694Y-102983531D01*
X135054506Y-102848844D01*
X135270006Y-102633345D01*
X135350818Y-102606407D01*
X135404693Y-102606407D01*
X135485505Y-102633345D01*
X135593254Y-102741094D01*
X135620192Y-102821906D01*
X135620192Y-102875781D01*
X135593254Y-102956593D01*
X135458567Y-103091280D01*
X135377755Y-103118218D01*
X135323880Y-103118218D01*
X135243068Y-103091280D01*
X135135319Y-102983531D01*
X135108381Y-102902719D01*
X135108381Y-102848844D01*
X135135319Y-102768032D01*
X135401038Y-101447590D02*
X135439133Y-101523780D01*
X135477228Y-101561876D01*
X135553419Y-101599971D01*
X135591514Y-101599971D01*
X135667704Y-101561876D01*
X135705800Y-101523780D01*
X135743895Y-101447590D01*
X135743895Y-101295209D01*
X135705800Y-101219019D01*
X135667704Y-101180923D01*
X135591514Y-101142828D01*
X135553419Y-101142828D01*
X135477228Y-101180923D01*
X135439133Y-101219019D01*
X135401038Y-101295209D01*
X135401038Y-101447590D01*
X135362942Y-101523780D01*
X135324847Y-101561876D01*
X135248657Y-101599971D01*
X135096276Y-101599971D01*
X135020085Y-101561876D01*
X134981990Y-101523780D01*
X134943895Y-101447590D01*
X134943895Y-101295209D01*
X134981990Y-101219019D01*
X135020085Y-101180923D01*
X135096276Y-101142828D01*
X135248657Y-101142828D01*
X135324847Y-101180923D01*
X135362942Y-101219019D01*
X135401038Y-101295209D01*
X135743895Y-99834666D02*
X135743895Y-99301333D01*
X134943895Y-99644190D01*
X135743895Y-96875619D02*
X135743895Y-97028000D01*
X135705800Y-97104190D01*
X135667704Y-97142285D01*
X135553419Y-97218476D01*
X135401038Y-97256571D01*
X135096276Y-97256571D01*
X135020085Y-97218476D01*
X134981990Y-97180380D01*
X134943895Y-97104190D01*
X134943895Y-96951809D01*
X134981990Y-96875619D01*
X135020085Y-96837523D01*
X135096276Y-96799428D01*
X135286752Y-96799428D01*
X135362942Y-96837523D01*
X135401038Y-96875619D01*
X135439133Y-96951809D01*
X135439133Y-97104190D01*
X135401038Y-97180380D01*
X135362942Y-97218476D01*
X135286752Y-97256571D01*
X135743895Y-94297523D02*
X135743895Y-94678476D01*
X135362942Y-94716571D01*
X135401038Y-94678476D01*
X135439133Y-94602285D01*
X135439133Y-94411809D01*
X135401038Y-94335619D01*
X135362942Y-94297523D01*
X135286752Y-94259428D01*
X135096276Y-94259428D01*
X135020085Y-94297523D01*
X134981990Y-94335619D01*
X134943895Y-94411809D01*
X134943895Y-94602285D01*
X134981990Y-94678476D01*
X135020085Y-94716571D01*
X135477228Y-91795619D02*
X134943895Y-91795619D01*
X135781990Y-91986095D02*
X135210561Y-92176571D01*
X135210561Y-91681333D01*
X134981990Y-90360380D02*
X134943895Y-90246095D01*
X134943895Y-90055619D01*
X134981990Y-89979428D01*
X135020085Y-89941333D01*
X135096276Y-89903238D01*
X135172466Y-89903238D01*
X135248657Y-89941333D01*
X135286752Y-89979428D01*
X135324847Y-90055619D01*
X135362942Y-90208000D01*
X135401038Y-90284190D01*
X135439133Y-90322285D01*
X135515323Y-90360380D01*
X135591514Y-90360380D01*
X135667704Y-90322285D01*
X135705800Y-90284190D01*
X135743895Y-90208000D01*
X135743895Y-90017523D01*
X135705800Y-89903238D01*
X135020085Y-89103238D02*
X134981990Y-89141333D01*
X134943895Y-89255619D01*
X134943895Y-89331809D01*
X134981990Y-89446095D01*
X135058180Y-89522285D01*
X135134371Y-89560380D01*
X135286752Y-89598476D01*
X135401038Y-89598476D01*
X135553419Y-89560380D01*
X135629609Y-89522285D01*
X135705800Y-89446095D01*
X135743895Y-89331809D01*
X135743895Y-89255619D01*
X135705800Y-89141333D01*
X135667704Y-89103238D01*
X134943895Y-88379428D02*
X134943895Y-88760380D01*
X135743895Y-88760380D01*
X134981990Y-87839428D02*
X134943895Y-87725142D01*
X134943895Y-87534666D01*
X134981990Y-87458476D01*
X135020085Y-87420380D01*
X135096276Y-87382285D01*
X135172466Y-87382285D01*
X135248657Y-87420380D01*
X135286752Y-87458476D01*
X135324847Y-87534666D01*
X135362942Y-87687047D01*
X135401038Y-87763238D01*
X135439133Y-87801333D01*
X135515323Y-87839428D01*
X135591514Y-87839428D01*
X135667704Y-87801333D01*
X135705800Y-87763238D01*
X135743895Y-87687047D01*
X135743895Y-87496571D01*
X135705800Y-87382285D01*
X134943895Y-87039428D02*
X135743895Y-87039428D01*
X135743895Y-86848952D01*
X135705800Y-86734666D01*
X135629609Y-86658476D01*
X135553419Y-86620380D01*
X135401038Y-86582285D01*
X135286752Y-86582285D01*
X135134371Y-86620380D01*
X135058180Y-86658476D01*
X134981990Y-86734666D01*
X134943895Y-86848952D01*
X134943895Y-87039428D01*
X135172466Y-86277523D02*
X135172466Y-85896571D01*
X134943895Y-86353714D02*
X135743895Y-86087047D01*
X134943895Y-85820380D01*
X135705800Y-84937523D02*
X135743895Y-85013714D01*
X135743895Y-85128000D01*
X135705800Y-85242285D01*
X135629609Y-85318476D01*
X135553419Y-85356571D01*
X135401038Y-85394666D01*
X135286752Y-85394666D01*
X135134371Y-85356571D01*
X135058180Y-85318476D01*
X134981990Y-85242285D01*
X134943895Y-85128000D01*
X134943895Y-85051809D01*
X134981990Y-84937523D01*
X135020085Y-84899428D01*
X135286752Y-84899428D01*
X135286752Y-85051809D01*
X134943895Y-84556571D02*
X135743895Y-84556571D01*
X134943895Y-84099428D01*
X135743895Y-84099428D01*
X134943895Y-83718476D02*
X135743895Y-83718476D01*
X135743895Y-83528000D01*
X135705800Y-83413714D01*
X135629609Y-83337523D01*
X135553419Y-83299428D01*
X135401038Y-83261333D01*
X135286752Y-83261333D01*
X135134371Y-83299428D01*
X135058180Y-83337523D01*
X134981990Y-83413714D01*
X134943895Y-83528000D01*
X134943895Y-83718476D01*
X135705800Y-82397523D02*
X135743895Y-82473714D01*
X135743895Y-82588000D01*
X135705800Y-82702285D01*
X135629609Y-82778476D01*
X135553419Y-82816571D01*
X135401038Y-82854666D01*
X135286752Y-82854666D01*
X135134371Y-82816571D01*
X135058180Y-82778476D01*
X134981990Y-82702285D01*
X134943895Y-82588000D01*
X134943895Y-82511809D01*
X134981990Y-82397523D01*
X135020085Y-82359428D01*
X135286752Y-82359428D01*
X135286752Y-82511809D01*
X134943895Y-82016571D02*
X135743895Y-82016571D01*
X134943895Y-81559428D01*
X135743895Y-81559428D01*
X134943895Y-81178476D02*
X135743895Y-81178476D01*
X135743895Y-80988000D01*
X135705800Y-80873714D01*
X135629609Y-80797523D01*
X135553419Y-80759428D01*
X135401038Y-80721333D01*
X135286752Y-80721333D01*
X135134371Y-80759428D01*
X135058180Y-80797523D01*
X134981990Y-80873714D01*
X134943895Y-80988000D01*
X134943895Y-81178476D01*
X134943895Y-79381333D02*
X135324847Y-79648000D01*
X134943895Y-79838476D02*
X135743895Y-79838476D01*
X135743895Y-79533714D01*
X135705800Y-79457523D01*
X135667704Y-79419428D01*
X135591514Y-79381333D01*
X135477228Y-79381333D01*
X135401038Y-79419428D01*
X135362942Y-79457523D01*
X135324847Y-79533714D01*
X135324847Y-79838476D01*
X135743895Y-79114666D02*
X134943895Y-78581333D01*
X135743895Y-78581333D02*
X134943895Y-79114666D01*
X135743895Y-77317523D02*
X135743895Y-76860380D01*
X134943895Y-77088952D02*
X135743895Y-77088952D01*
X135743895Y-76669904D02*
X134943895Y-76136571D01*
X135743895Y-76136571D02*
X134943895Y-76669904D01*
D11*
X140829971Y-86503571D02*
X139329971Y-86503571D01*
X140829971Y-87360714D01*
X139329971Y-87360714D01*
X140758542Y-88646428D02*
X140829971Y-88503571D01*
X140829971Y-88217857D01*
X140758542Y-88075000D01*
X140615685Y-88003571D01*
X140044257Y-88003571D01*
X139901400Y-88075000D01*
X139829971Y-88217857D01*
X139829971Y-88503571D01*
X139901400Y-88646428D01*
X140044257Y-88717857D01*
X140187114Y-88717857D01*
X140329971Y-88003571D01*
X140829971Y-89360714D02*
X139829971Y-89360714D01*
X139329971Y-89360714D02*
X139401400Y-89289285D01*
X139472828Y-89360714D01*
X139401400Y-89432142D01*
X139329971Y-89360714D01*
X139472828Y-89360714D01*
X140829971Y-90075000D02*
X139329971Y-90075000D01*
X140829971Y-90717857D02*
X140044257Y-90717857D01*
X139901400Y-90646428D01*
X139829971Y-90503571D01*
X139829971Y-90289285D01*
X139901400Y-90146428D01*
X139972828Y-90075000D01*
X140258542Y-91432142D02*
X140258542Y-92575000D01*
X139329971Y-93075000D02*
X139329971Y-93932142D01*
X140829971Y-93503571D02*
X139329971Y-93503571D01*
X140758542Y-95003571D02*
X140829971Y-94860714D01*
X140829971Y-94575000D01*
X140758542Y-94432142D01*
X140615685Y-94360714D01*
X140044257Y-94360714D01*
X139901400Y-94432142D01*
X139829971Y-94575000D01*
X139829971Y-94860714D01*
X139901400Y-95003571D01*
X140044257Y-95075000D01*
X140187114Y-95075000D01*
X140329971Y-94360714D01*
X140758542Y-96360714D02*
X140829971Y-96217857D01*
X140829971Y-95932142D01*
X140758542Y-95789285D01*
X140687114Y-95717857D01*
X140544257Y-95646428D01*
X140115685Y-95646428D01*
X139972828Y-95717857D01*
X139901400Y-95789285D01*
X139829971Y-95932142D01*
X139829971Y-96217857D01*
X139901400Y-96360714D01*
X140829971Y-97003571D02*
X139329971Y-97003571D01*
X140829971Y-97646428D02*
X140044257Y-97646428D01*
X139901400Y-97575000D01*
X139829971Y-97432142D01*
X139829971Y-97217857D01*
X139901400Y-97075000D01*
X139972828Y-97003571D01*
X142851400Y-82932142D02*
X142851400Y-83646428D01*
X143279971Y-82789285D02*
X141779971Y-83289285D01*
X143279971Y-83789285D01*
X143279971Y-84289285D02*
X142279971Y-84289285D01*
X142565685Y-84289285D02*
X142422828Y-84360714D01*
X142351400Y-84432142D01*
X142279971Y-84575000D01*
X142279971Y-84717857D01*
X143279971Y-85860714D02*
X141779971Y-85860714D01*
X143208542Y-85860714D02*
X143279971Y-85717857D01*
X143279971Y-85432142D01*
X143208542Y-85289285D01*
X143137114Y-85217857D01*
X142994257Y-85146428D01*
X142565685Y-85146428D01*
X142422828Y-85217857D01*
X142351400Y-85289285D01*
X142279971Y-85432142D01*
X142279971Y-85717857D01*
X142351400Y-85860714D01*
X142279971Y-87217857D02*
X143279971Y-87217857D01*
X142279971Y-86575000D02*
X143065685Y-86575000D01*
X143208542Y-86646428D01*
X143279971Y-86789285D01*
X143279971Y-87003571D01*
X143208542Y-87146428D01*
X143137114Y-87217857D01*
X143279971Y-87932142D02*
X142279971Y-87932142D01*
X141779971Y-87932142D02*
X141851400Y-87860714D01*
X141922828Y-87932142D01*
X141851400Y-88003571D01*
X141779971Y-87932142D01*
X141922828Y-87932142D01*
X142279971Y-88646428D02*
X143279971Y-88646428D01*
X142422828Y-88646428D02*
X142351400Y-88717857D01*
X142279971Y-88860714D01*
X142279971Y-89075000D01*
X142351400Y-89217857D01*
X142494257Y-89289285D01*
X143279971Y-89289285D01*
X143279971Y-90217857D02*
X143208542Y-90075000D01*
X143137114Y-90003571D01*
X142994257Y-89932142D01*
X142565685Y-89932142D01*
X142422828Y-90003571D01*
X142351400Y-90075000D01*
X142279971Y-90217857D01*
X142279971Y-90432142D01*
X142351400Y-90575000D01*
X142422828Y-90646428D01*
X142565685Y-90717857D01*
X142994257Y-90717857D01*
X143137114Y-90646428D01*
X143208542Y-90575000D01*
X143279971Y-90432142D01*
X143279971Y-90217857D01*
X143279971Y-92503571D02*
X141779971Y-92503571D01*
X142851400Y-93003571D01*
X141779971Y-93503571D01*
X143279971Y-93503571D01*
X143279971Y-94217857D02*
X142279971Y-94217857D01*
X141779971Y-94217857D02*
X141851400Y-94146428D01*
X141922828Y-94217857D01*
X141851400Y-94289285D01*
X141779971Y-94217857D01*
X141922828Y-94217857D01*
X143208542Y-95575000D02*
X143279971Y-95432142D01*
X143279971Y-95146428D01*
X143208542Y-95003571D01*
X143137114Y-94932142D01*
X142994257Y-94860714D01*
X142565685Y-94860714D01*
X142422828Y-94932142D01*
X142351400Y-95003571D01*
X142279971Y-95146428D01*
X142279971Y-95432142D01*
X142351400Y-95575000D01*
X143279971Y-96217857D02*
X142279971Y-96217857D01*
X142565685Y-96217857D02*
X142422828Y-96289285D01*
X142351400Y-96360714D01*
X142279971Y-96503571D01*
X142279971Y-96646428D01*
X143279971Y-97360714D02*
X143208542Y-97217857D01*
X143137114Y-97146428D01*
X142994257Y-97075000D01*
X142565685Y-97075000D01*
X142422828Y-97146428D01*
X142351400Y-97217857D01*
X142279971Y-97360714D01*
X142279971Y-97575000D01*
X142351400Y-97717857D01*
X142422828Y-97789285D01*
X142565685Y-97860714D01*
X142994257Y-97860714D01*
X143137114Y-97789285D01*
X143208542Y-97717857D01*
X143279971Y-97575000D01*
X143279971Y-97360714D01*
X142708542Y-98503571D02*
X142708542Y-99646428D01*
X143137114Y-101217857D02*
X143208542Y-101146428D01*
X143279971Y-100932142D01*
X143279971Y-100789285D01*
X143208542Y-100575000D01*
X143065685Y-100432142D01*
X142922828Y-100360714D01*
X142637114Y-100289285D01*
X142422828Y-100289285D01*
X142137114Y-100360714D01*
X141994257Y-100432142D01*
X141851400Y-100575000D01*
X141779971Y-100789285D01*
X141779971Y-100932142D01*
X141851400Y-101146428D01*
X141922828Y-101217857D01*
M02*
