%TF.GenerationSoftware,KiCad,Pcbnew,(5.1.8)-1*%
%TF.CreationDate,2020-12-06T20:58:49+07:00*%
%TF.ProjectId,ArduinoMicroC,41726475-696e-46f4-9d69-63726f432e6b,rev?*%
%TF.SameCoordinates,Original*%
%TF.FileFunction,Legend,Top*%
%TF.FilePolarity,Positive*%
%FSLAX46Y46*%
G04 Gerber Fmt 4.6, Leading zero omitted, Abs format (unit mm)*
G04 Created by KiCad (PCBNEW (5.1.8)-1) date 2020-12-06 20:58:49*
%MOMM*%
%LPD*%
G01*
G04 APERTURE LIST*
%ADD10C,0.120000*%
%ADD11C,0.100000*%
%ADD12C,0.150000*%
G04 APERTURE END LIST*
D10*
%TO.C,U2*%
X145892859Y-100868052D02*
X146405511Y-100355400D01*
X136194889Y-100355400D02*
X136707541Y-100868052D01*
X136707541Y-99842748D02*
X136194889Y-100355400D01*
X141300200Y-95250089D02*
X141812852Y-95762741D01*
X140787548Y-95762741D02*
X141300200Y-95250089D01*
X141300200Y-105460711D02*
X140787548Y-104948059D01*
X141812852Y-104948059D02*
X141300200Y-105460711D01*
%TO.C,D3*%
X141113000Y-90947600D02*
X143113000Y-90947600D01*
X143113000Y-90947600D02*
X143113000Y-87097600D01*
X141113000Y-90947600D02*
X141113000Y-87097600D01*
%TO.C,D1*%
X135702800Y-90973000D02*
X137702800Y-90973000D01*
X137702800Y-90973000D02*
X137702800Y-87123000D01*
X135702800Y-90973000D02*
X135702800Y-87123000D01*
%TO.C,SW1*%
X142936400Y-83375200D02*
X139815400Y-83375200D01*
X144926400Y-85335200D02*
X144115400Y-85335200D01*
X142936400Y-86195200D02*
X139815400Y-86195200D01*
%TO.C,J4*%
X147577500Y-105978000D02*
X147577500Y-75378000D01*
X150237500Y-105978000D02*
X150237500Y-75378000D01*
X150237500Y-75378000D02*
X147577500Y-75378000D01*
X150237500Y-105978000D02*
X147577500Y-105978000D01*
%TO.C,J3*%
X133620200Y-109102200D02*
X133620200Y-106442200D01*
X148980200Y-109102200D02*
X148980200Y-106442200D01*
X133620200Y-109102200D02*
X148980200Y-109102200D01*
X133620200Y-106442200D02*
X148980200Y-106442200D01*
%TO.C,J2*%
X134997500Y-75378000D02*
X134997500Y-105978000D01*
X132337500Y-75378000D02*
X132337500Y-105978000D01*
X132337500Y-105978000D02*
X134997500Y-105978000D01*
X132337500Y-75378000D02*
X134997500Y-75378000D01*
%TO.C,SW2*%
X146469000Y-94356200D02*
X142329000Y-94356200D01*
X142329000Y-91516200D02*
X142329000Y-91216200D01*
X142329000Y-91216200D02*
X146469000Y-91216200D01*
X146469000Y-94056200D02*
X146469000Y-94356200D01*
X146469000Y-91216200D02*
X146469000Y-91516200D01*
X142329000Y-94356200D02*
X142329000Y-94056200D01*
%TO.C,Y1*%
X141231600Y-91062400D02*
X135481600Y-91062400D01*
X135481600Y-91062400D02*
X135481600Y-94662400D01*
X135481600Y-94662400D02*
X141231600Y-94662400D01*
%TO.C,U1*%
X143474000Y-88925400D02*
X143474000Y-89725400D01*
X143474000Y-88925400D02*
X143474000Y-88125400D01*
X146594000Y-88925400D02*
X146594000Y-89725400D01*
X146594000Y-88925400D02*
X146594000Y-87125400D01*
%TO.C,J1*%
X138024800Y-82687600D02*
X136524800Y-82687600D01*
X136524800Y-82687600D02*
X136524800Y-75427600D01*
X146024800Y-82687600D02*
X146024800Y-75427600D01*
X146024800Y-82687600D02*
X144524800Y-82687600D01*
%TO.C,F1*%
X135815000Y-84628222D02*
X135815000Y-85145378D01*
X137235000Y-84628222D02*
X137235000Y-85145378D01*
D11*
%TO.C,D2*%
X137794200Y-103202400D02*
G75*
G03*
X137794200Y-103202400I-50000J0D01*
G01*
D10*
%TO.C,C8*%
X146918000Y-104819564D02*
X146918000Y-105035236D01*
X146198000Y-104819564D02*
X146198000Y-105035236D01*
%TO.C,C7*%
X144329036Y-95381400D02*
X144113364Y-95381400D01*
X144329036Y-94661400D02*
X144113364Y-94661400D01*
%TO.C,C6*%
X145156600Y-105035236D02*
X145156600Y-104819564D01*
X145876600Y-105035236D02*
X145876600Y-104819564D01*
%TO.C,C5*%
X136340964Y-95931400D02*
X136556636Y-95931400D01*
X136340964Y-96651400D02*
X136556636Y-96651400D01*
%TO.C,C4*%
X136556636Y-95660800D02*
X136340964Y-95660800D01*
X136556636Y-94940800D02*
X136340964Y-94940800D01*
%TO.C,C3*%
X135613000Y-103241600D02*
X135613000Y-105951600D01*
X135613000Y-105951600D02*
X137183000Y-105951600D01*
X137183000Y-105951600D02*
X137183000Y-103241600D01*
%TO.C,C2*%
X146234036Y-95381400D02*
X146018364Y-95381400D01*
X146234036Y-94661400D02*
X146018364Y-94661400D01*
%TO.C,C1*%
X145366600Y-83963000D02*
X145366600Y-86673000D01*
X145366600Y-86673000D02*
X146936600Y-86673000D01*
X146936600Y-86673000D02*
X146936600Y-83963000D01*
%TO.C,U2*%
D12*
X143782481Y-103915177D02*
X144354901Y-104487597D01*
X144455916Y-104521269D01*
X144523260Y-104521269D01*
X144624275Y-104487597D01*
X144758962Y-104352910D01*
X144792634Y-104251895D01*
X144792634Y-104184551D01*
X144758962Y-104083536D01*
X144186542Y-103511116D01*
X144556932Y-103275414D02*
X144556932Y-103208071D01*
X144590603Y-103107055D01*
X144758962Y-102938697D01*
X144859977Y-102905025D01*
X144927321Y-102905025D01*
X145028336Y-102938697D01*
X145095680Y-103006040D01*
X145163023Y-103140727D01*
X145163023Y-103948849D01*
X145600756Y-103511116D01*
%TO.C,D3*%
X140660380Y-89612695D02*
X139660380Y-89612695D01*
X139660380Y-89374600D01*
X139708000Y-89231742D01*
X139803238Y-89136504D01*
X139898476Y-89088885D01*
X140088952Y-89041266D01*
X140231809Y-89041266D01*
X140422285Y-89088885D01*
X140517523Y-89136504D01*
X140612761Y-89231742D01*
X140660380Y-89374600D01*
X140660380Y-89612695D01*
X139660380Y-88707933D02*
X139660380Y-88088885D01*
X140041333Y-88422219D01*
X140041333Y-88279361D01*
X140088952Y-88184123D01*
X140136571Y-88136504D01*
X140231809Y-88088885D01*
X140469904Y-88088885D01*
X140565142Y-88136504D01*
X140612761Y-88184123D01*
X140660380Y-88279361D01*
X140660380Y-88565076D01*
X140612761Y-88660314D01*
X140565142Y-88707933D01*
%TO.C,D1*%
X135250180Y-89638095D02*
X134250180Y-89638095D01*
X134250180Y-89400000D01*
X134297800Y-89257142D01*
X134393038Y-89161904D01*
X134488276Y-89114285D01*
X134678752Y-89066666D01*
X134821609Y-89066666D01*
X135012085Y-89114285D01*
X135107323Y-89161904D01*
X135202561Y-89257142D01*
X135250180Y-89400000D01*
X135250180Y-89638095D01*
X135250180Y-88114285D02*
X135250180Y-88685714D01*
X135250180Y-88400000D02*
X134250180Y-88400000D01*
X134393038Y-88495238D01*
X134488276Y-88590476D01*
X134535895Y-88685714D01*
%TO.C,SW1*%
X140043066Y-87599961D02*
X140185923Y-87647580D01*
X140424019Y-87647580D01*
X140519257Y-87599961D01*
X140566876Y-87552342D01*
X140614495Y-87457104D01*
X140614495Y-87361866D01*
X140566876Y-87266628D01*
X140519257Y-87219009D01*
X140424019Y-87171390D01*
X140233542Y-87123771D01*
X140138304Y-87076152D01*
X140090685Y-87028533D01*
X140043066Y-86933295D01*
X140043066Y-86838057D01*
X140090685Y-86742819D01*
X140138304Y-86695200D01*
X140233542Y-86647580D01*
X140471638Y-86647580D01*
X140614495Y-86695200D01*
X140947828Y-86647580D02*
X141185923Y-87647580D01*
X141376400Y-86933295D01*
X141566876Y-87647580D01*
X141804971Y-86647580D01*
X142709733Y-87647580D02*
X142138304Y-87647580D01*
X142424019Y-87647580D02*
X142424019Y-86647580D01*
X142328780Y-86790438D01*
X142233542Y-86885676D01*
X142138304Y-86933295D01*
%TO.C,J4*%
X148574166Y-106430380D02*
X148574166Y-107144666D01*
X148526547Y-107287523D01*
X148431309Y-107382761D01*
X148288452Y-107430380D01*
X148193214Y-107430380D01*
X149478928Y-106763714D02*
X149478928Y-107430380D01*
X149240833Y-106382761D02*
X149002738Y-107097047D01*
X149621785Y-107097047D01*
%TO.C,J3*%
X132072580Y-108105533D02*
X132786866Y-108105533D01*
X132929723Y-108153152D01*
X133024961Y-108248390D01*
X133072580Y-108391247D01*
X133072580Y-108486485D01*
X132072580Y-107724580D02*
X132072580Y-107105533D01*
X132453533Y-107438866D01*
X132453533Y-107296009D01*
X132501152Y-107200771D01*
X132548771Y-107153152D01*
X132644009Y-107105533D01*
X132882104Y-107105533D01*
X132977342Y-107153152D01*
X133024961Y-107200771D01*
X133072580Y-107296009D01*
X133072580Y-107581723D01*
X133024961Y-107676961D01*
X132977342Y-107724580D01*
%TO.C,J2*%
X133334166Y-73830380D02*
X133334166Y-74544666D01*
X133286547Y-74687523D01*
X133191309Y-74782761D01*
X133048452Y-74830380D01*
X132953214Y-74830380D01*
X133762738Y-73925619D02*
X133810357Y-73878000D01*
X133905595Y-73830380D01*
X134143690Y-73830380D01*
X134238928Y-73878000D01*
X134286547Y-73925619D01*
X134334166Y-74020857D01*
X134334166Y-74116095D01*
X134286547Y-74258952D01*
X133715119Y-74830380D01*
X134334166Y-74830380D01*
%TO.C,SW2*%
X143065666Y-95440961D02*
X143208523Y-95488580D01*
X143446619Y-95488580D01*
X143541857Y-95440961D01*
X143589476Y-95393342D01*
X143637095Y-95298104D01*
X143637095Y-95202866D01*
X143589476Y-95107628D01*
X143541857Y-95060009D01*
X143446619Y-95012390D01*
X143256142Y-94964771D01*
X143160904Y-94917152D01*
X143113285Y-94869533D01*
X143065666Y-94774295D01*
X143065666Y-94679057D01*
X143113285Y-94583819D01*
X143160904Y-94536200D01*
X143256142Y-94488580D01*
X143494238Y-94488580D01*
X143637095Y-94536200D01*
X143970428Y-94488580D02*
X144208523Y-95488580D01*
X144399000Y-94774295D01*
X144589476Y-95488580D01*
X144827571Y-94488580D01*
X145160904Y-94583819D02*
X145208523Y-94536200D01*
X145303761Y-94488580D01*
X145541857Y-94488580D01*
X145637095Y-94536200D01*
X145684714Y-94583819D01*
X145732333Y-94679057D01*
X145732333Y-94774295D01*
X145684714Y-94917152D01*
X145113285Y-95488580D01*
X145732333Y-95488580D01*
%TO.C,R5*%
X137958533Y-94576180D02*
X137625200Y-94099990D01*
X137387104Y-94576180D02*
X137387104Y-93576180D01*
X137768057Y-93576180D01*
X137863295Y-93623800D01*
X137910914Y-93671419D01*
X137958533Y-93766657D01*
X137958533Y-93909514D01*
X137910914Y-94004752D01*
X137863295Y-94052371D01*
X137768057Y-94099990D01*
X137387104Y-94099990D01*
X138863295Y-93576180D02*
X138387104Y-93576180D01*
X138339485Y-94052371D01*
X138387104Y-94004752D01*
X138482342Y-93957133D01*
X138720438Y-93957133D01*
X138815676Y-94004752D01*
X138863295Y-94052371D01*
X138910914Y-94147609D01*
X138910914Y-94385704D01*
X138863295Y-94480942D01*
X138815676Y-94528561D01*
X138720438Y-94576180D01*
X138482342Y-94576180D01*
X138387104Y-94528561D01*
X138339485Y-94480942D01*
%TO.C,R10*%
X138955542Y-96676180D02*
X138622209Y-96199990D01*
X138384114Y-96676180D02*
X138384114Y-95676180D01*
X138765066Y-95676180D01*
X138860304Y-95723800D01*
X138907923Y-95771419D01*
X138955542Y-95866657D01*
X138955542Y-96009514D01*
X138907923Y-96104752D01*
X138860304Y-96152371D01*
X138765066Y-96199990D01*
X138384114Y-96199990D01*
X139907923Y-96676180D02*
X139336495Y-96676180D01*
X139622209Y-96676180D02*
X139622209Y-95676180D01*
X139526971Y-95819038D01*
X139431733Y-95914276D01*
X139336495Y-95961895D01*
X140526971Y-95676180D02*
X140622209Y-95676180D01*
X140717447Y-95723800D01*
X140765066Y-95771419D01*
X140812685Y-95866657D01*
X140860304Y-96057133D01*
X140860304Y-96295228D01*
X140812685Y-96485704D01*
X140765066Y-96580942D01*
X140717447Y-96628561D01*
X140622209Y-96676180D01*
X140526971Y-96676180D01*
X140431733Y-96628561D01*
X140384114Y-96580942D01*
X140336495Y-96485704D01*
X140288876Y-96295228D01*
X140288876Y-96057133D01*
X140336495Y-95866657D01*
X140384114Y-95771419D01*
X140431733Y-95723800D01*
X140526971Y-95676180D01*
%TO.C,Y1*%
X138055409Y-90038590D02*
X138055409Y-90514780D01*
X137722076Y-89514780D02*
X138055409Y-90038590D01*
X138388742Y-89514780D01*
X139245885Y-90514780D02*
X138674457Y-90514780D01*
X138960171Y-90514780D02*
X138960171Y-89514780D01*
X138864933Y-89657638D01*
X138769695Y-89752876D01*
X138674457Y-89800495D01*
%TO.C,U1*%
X146886380Y-89687304D02*
X147695904Y-89687304D01*
X147791142Y-89639685D01*
X147838761Y-89592066D01*
X147886380Y-89496828D01*
X147886380Y-89306352D01*
X147838761Y-89211114D01*
X147791142Y-89163495D01*
X147695904Y-89115876D01*
X146886380Y-89115876D01*
X147886380Y-88115876D02*
X147886380Y-88687304D01*
X147886380Y-88401590D02*
X146886380Y-88401590D01*
X147029238Y-88496828D01*
X147124476Y-88592066D01*
X147172095Y-88687304D01*
%TO.C,R6*%
X139304733Y-107090180D02*
X138971400Y-106613990D01*
X138733304Y-107090180D02*
X138733304Y-106090180D01*
X139114257Y-106090180D01*
X139209495Y-106137800D01*
X139257114Y-106185419D01*
X139304733Y-106280657D01*
X139304733Y-106423514D01*
X139257114Y-106518752D01*
X139209495Y-106566371D01*
X139114257Y-106613990D01*
X138733304Y-106613990D01*
X140161876Y-106090180D02*
X139971400Y-106090180D01*
X139876161Y-106137800D01*
X139828542Y-106185419D01*
X139733304Y-106328276D01*
X139685685Y-106518752D01*
X139685685Y-106899704D01*
X139733304Y-106994942D01*
X139780923Y-107042561D01*
X139876161Y-107090180D01*
X140066638Y-107090180D01*
X140161876Y-107042561D01*
X140209495Y-106994942D01*
X140257114Y-106899704D01*
X140257114Y-106661609D01*
X140209495Y-106566371D01*
X140161876Y-106518752D01*
X140066638Y-106471133D01*
X139876161Y-106471133D01*
X139780923Y-106518752D01*
X139733304Y-106566371D01*
X139685685Y-106661609D01*
%TO.C,R4*%
X137856933Y-104990180D02*
X137523600Y-104513990D01*
X137285504Y-104990180D02*
X137285504Y-103990180D01*
X137666457Y-103990180D01*
X137761695Y-104037800D01*
X137809314Y-104085419D01*
X137856933Y-104180657D01*
X137856933Y-104323514D01*
X137809314Y-104418752D01*
X137761695Y-104466371D01*
X137666457Y-104513990D01*
X137285504Y-104513990D01*
X138714076Y-104323514D02*
X138714076Y-104990180D01*
X138475980Y-103942561D02*
X138237885Y-104656847D01*
X138856933Y-104656847D01*
%TO.C,R3*%
X147635933Y-73748180D02*
X147302600Y-73271990D01*
X147064504Y-73748180D02*
X147064504Y-72748180D01*
X147445457Y-72748180D01*
X147540695Y-72795800D01*
X147588314Y-72843419D01*
X147635933Y-72938657D01*
X147635933Y-73081514D01*
X147588314Y-73176752D01*
X147540695Y-73224371D01*
X147445457Y-73271990D01*
X147064504Y-73271990D01*
X147969266Y-72748180D02*
X148588314Y-72748180D01*
X148254980Y-73129133D01*
X148397838Y-73129133D01*
X148493076Y-73176752D01*
X148540695Y-73224371D01*
X148588314Y-73319609D01*
X148588314Y-73557704D01*
X148540695Y-73652942D01*
X148493076Y-73700561D01*
X148397838Y-73748180D01*
X148112123Y-73748180D01*
X148016885Y-73700561D01*
X147969266Y-73652942D01*
%TO.C,R2*%
X147958780Y-97194666D02*
X147482590Y-97528000D01*
X147958780Y-97766095D02*
X146958780Y-97766095D01*
X146958780Y-97385142D01*
X147006400Y-97289904D01*
X147054019Y-97242285D01*
X147149257Y-97194666D01*
X147292114Y-97194666D01*
X147387352Y-97242285D01*
X147434971Y-97289904D01*
X147482590Y-97385142D01*
X147482590Y-97766095D01*
X147054019Y-96813714D02*
X147006400Y-96766095D01*
X146958780Y-96670857D01*
X146958780Y-96432761D01*
X147006400Y-96337523D01*
X147054019Y-96289904D01*
X147149257Y-96242285D01*
X147244495Y-96242285D01*
X147387352Y-96289904D01*
X147958780Y-96861333D01*
X147958780Y-96242285D01*
%TO.C,R1*%
X147196780Y-97194666D02*
X146720590Y-97528000D01*
X147196780Y-97766095D02*
X146196780Y-97766095D01*
X146196780Y-97385142D01*
X146244400Y-97289904D01*
X146292019Y-97242285D01*
X146387257Y-97194666D01*
X146530114Y-97194666D01*
X146625352Y-97242285D01*
X146672971Y-97289904D01*
X146720590Y-97385142D01*
X146720590Y-97766095D01*
X147196780Y-96242285D02*
X147196780Y-96813714D01*
X147196780Y-96528000D02*
X146196780Y-96528000D01*
X146339638Y-96623238D01*
X146434876Y-96718476D01*
X146482495Y-96813714D01*
%TO.C,J1*%
X140941466Y-83129980D02*
X140941466Y-83844266D01*
X140893847Y-83987123D01*
X140798609Y-84082361D01*
X140655752Y-84129980D01*
X140560514Y-84129980D01*
X141941466Y-84129980D02*
X141370038Y-84129980D01*
X141655752Y-84129980D02*
X141655752Y-83129980D01*
X141560514Y-83272838D01*
X141465276Y-83368076D01*
X141370038Y-83415695D01*
%TO.C,F1*%
X138103571Y-85220133D02*
X138103571Y-85553466D01*
X138627380Y-85553466D02*
X137627380Y-85553466D01*
X137627380Y-85077276D01*
X138627380Y-84172514D02*
X138627380Y-84743942D01*
X138627380Y-84458228D02*
X137627380Y-84458228D01*
X137770238Y-84553466D01*
X137865476Y-84648704D01*
X137913095Y-84743942D01*
%TO.C,D2*%
X139366580Y-105030495D02*
X138366580Y-105030495D01*
X138366580Y-104792400D01*
X138414200Y-104649542D01*
X138509438Y-104554304D01*
X138604676Y-104506685D01*
X138795152Y-104459066D01*
X138938009Y-104459066D01*
X139128485Y-104506685D01*
X139223723Y-104554304D01*
X139318961Y-104649542D01*
X139366580Y-104792400D01*
X139366580Y-105030495D01*
X138461819Y-104078114D02*
X138414200Y-104030495D01*
X138366580Y-103935257D01*
X138366580Y-103697161D01*
X138414200Y-103601923D01*
X138461819Y-103554304D01*
X138557057Y-103506685D01*
X138652295Y-103506685D01*
X138795152Y-103554304D01*
X139366580Y-104125733D01*
X139366580Y-103506685D01*
%TO.C,C8*%
X148075142Y-105094066D02*
X148122761Y-105141685D01*
X148170380Y-105284542D01*
X148170380Y-105379780D01*
X148122761Y-105522638D01*
X148027523Y-105617876D01*
X147932285Y-105665495D01*
X147741809Y-105713114D01*
X147598952Y-105713114D01*
X147408476Y-105665495D01*
X147313238Y-105617876D01*
X147218000Y-105522638D01*
X147170380Y-105379780D01*
X147170380Y-105284542D01*
X147218000Y-105141685D01*
X147265619Y-105094066D01*
X147598952Y-104522638D02*
X147551333Y-104617876D01*
X147503714Y-104665495D01*
X147408476Y-104713114D01*
X147360857Y-104713114D01*
X147265619Y-104665495D01*
X147218000Y-104617876D01*
X147170380Y-104522638D01*
X147170380Y-104332161D01*
X147218000Y-104236923D01*
X147265619Y-104189304D01*
X147360857Y-104141685D01*
X147408476Y-104141685D01*
X147503714Y-104189304D01*
X147551333Y-104236923D01*
X147598952Y-104332161D01*
X147598952Y-104522638D01*
X147646571Y-104617876D01*
X147694190Y-104665495D01*
X147789428Y-104713114D01*
X147979904Y-104713114D01*
X148075142Y-104665495D01*
X148122761Y-104617876D01*
X148170380Y-104522638D01*
X148170380Y-104332161D01*
X148122761Y-104236923D01*
X148075142Y-104189304D01*
X147979904Y-104141685D01*
X147789428Y-104141685D01*
X147694190Y-104189304D01*
X147646571Y-104236923D01*
X147598952Y-104332161D01*
%TO.C,C7*%
X144054533Y-96538542D02*
X144006914Y-96586161D01*
X143864057Y-96633780D01*
X143768819Y-96633780D01*
X143625961Y-96586161D01*
X143530723Y-96490923D01*
X143483104Y-96395685D01*
X143435485Y-96205209D01*
X143435485Y-96062352D01*
X143483104Y-95871876D01*
X143530723Y-95776638D01*
X143625961Y-95681400D01*
X143768819Y-95633780D01*
X143864057Y-95633780D01*
X144006914Y-95681400D01*
X144054533Y-95729019D01*
X144387866Y-95633780D02*
X145054533Y-95633780D01*
X144625961Y-96633780D01*
%TO.C,C6*%
X144713742Y-105094066D02*
X144761361Y-105141685D01*
X144808980Y-105284542D01*
X144808980Y-105379780D01*
X144761361Y-105522638D01*
X144666123Y-105617876D01*
X144570885Y-105665495D01*
X144380409Y-105713114D01*
X144237552Y-105713114D01*
X144047076Y-105665495D01*
X143951838Y-105617876D01*
X143856600Y-105522638D01*
X143808980Y-105379780D01*
X143808980Y-105284542D01*
X143856600Y-105141685D01*
X143904219Y-105094066D01*
X143808980Y-104236923D02*
X143808980Y-104427400D01*
X143856600Y-104522638D01*
X143904219Y-104570257D01*
X144047076Y-104665495D01*
X144237552Y-104713114D01*
X144618504Y-104713114D01*
X144713742Y-104665495D01*
X144761361Y-104617876D01*
X144808980Y-104522638D01*
X144808980Y-104332161D01*
X144761361Y-104236923D01*
X144713742Y-104189304D01*
X144618504Y-104141685D01*
X144380409Y-104141685D01*
X144285171Y-104189304D01*
X144237552Y-104236923D01*
X144189933Y-104332161D01*
X144189933Y-104522638D01*
X144237552Y-104617876D01*
X144285171Y-104665495D01*
X144380409Y-104713114D01*
%TO.C,C5*%
X136282133Y-95488542D02*
X136234514Y-95536161D01*
X136091657Y-95583780D01*
X135996419Y-95583780D01*
X135853561Y-95536161D01*
X135758323Y-95440923D01*
X135710704Y-95345685D01*
X135663085Y-95155209D01*
X135663085Y-95012352D01*
X135710704Y-94821876D01*
X135758323Y-94726638D01*
X135853561Y-94631400D01*
X135996419Y-94583780D01*
X136091657Y-94583780D01*
X136234514Y-94631400D01*
X136282133Y-94679019D01*
X137186895Y-94583780D02*
X136710704Y-94583780D01*
X136663085Y-95059971D01*
X136710704Y-95012352D01*
X136805942Y-94964733D01*
X137044038Y-94964733D01*
X137139276Y-95012352D01*
X137186895Y-95059971D01*
X137234514Y-95155209D01*
X137234514Y-95393304D01*
X137186895Y-95488542D01*
X137139276Y-95536161D01*
X137044038Y-95583780D01*
X136805942Y-95583780D01*
X136710704Y-95536161D01*
X136663085Y-95488542D01*
%TO.C,C4*%
X136282133Y-96817942D02*
X136234514Y-96865561D01*
X136091657Y-96913180D01*
X135996419Y-96913180D01*
X135853561Y-96865561D01*
X135758323Y-96770323D01*
X135710704Y-96675085D01*
X135663085Y-96484609D01*
X135663085Y-96341752D01*
X135710704Y-96151276D01*
X135758323Y-96056038D01*
X135853561Y-95960800D01*
X135996419Y-95913180D01*
X136091657Y-95913180D01*
X136234514Y-95960800D01*
X136282133Y-96008419D01*
X137139276Y-96246514D02*
X137139276Y-96913180D01*
X136901180Y-95865561D02*
X136663085Y-96579847D01*
X137282133Y-96579847D01*
%TO.C,C3*%
X135175142Y-104408266D02*
X135222761Y-104455885D01*
X135270380Y-104598742D01*
X135270380Y-104693980D01*
X135222761Y-104836838D01*
X135127523Y-104932076D01*
X135032285Y-104979695D01*
X134841809Y-105027314D01*
X134698952Y-105027314D01*
X134508476Y-104979695D01*
X134413238Y-104932076D01*
X134318000Y-104836838D01*
X134270380Y-104693980D01*
X134270380Y-104598742D01*
X134318000Y-104455885D01*
X134365619Y-104408266D01*
X134270380Y-104074933D02*
X134270380Y-103455885D01*
X134651333Y-103789219D01*
X134651333Y-103646361D01*
X134698952Y-103551123D01*
X134746571Y-103503504D01*
X134841809Y-103455885D01*
X135079904Y-103455885D01*
X135175142Y-103503504D01*
X135222761Y-103551123D01*
X135270380Y-103646361D01*
X135270380Y-103932076D01*
X135222761Y-104027314D01*
X135175142Y-104074933D01*
%TO.C,C2*%
X145959533Y-96538542D02*
X145911914Y-96586161D01*
X145769057Y-96633780D01*
X145673819Y-96633780D01*
X145530961Y-96586161D01*
X145435723Y-96490923D01*
X145388104Y-96395685D01*
X145340485Y-96205209D01*
X145340485Y-96062352D01*
X145388104Y-95871876D01*
X145435723Y-95776638D01*
X145530961Y-95681400D01*
X145673819Y-95633780D01*
X145769057Y-95633780D01*
X145911914Y-95681400D01*
X145959533Y-95729019D01*
X146340485Y-95729019D02*
X146388104Y-95681400D01*
X146483342Y-95633780D01*
X146721438Y-95633780D01*
X146816676Y-95681400D01*
X146864295Y-95729019D01*
X146911914Y-95824257D01*
X146911914Y-95919495D01*
X146864295Y-96062352D01*
X146292866Y-96633780D01*
X146911914Y-96633780D01*
%TO.C,C1*%
X144928742Y-85129666D02*
X144976361Y-85177285D01*
X145023980Y-85320142D01*
X145023980Y-85415380D01*
X144976361Y-85558238D01*
X144881123Y-85653476D01*
X144785885Y-85701095D01*
X144595409Y-85748714D01*
X144452552Y-85748714D01*
X144262076Y-85701095D01*
X144166838Y-85653476D01*
X144071600Y-85558238D01*
X144023980Y-85415380D01*
X144023980Y-85320142D01*
X144071600Y-85177285D01*
X144119219Y-85129666D01*
X145023980Y-84177285D02*
X145023980Y-84748714D01*
X145023980Y-84463000D02*
X144023980Y-84463000D01*
X144166838Y-84558238D01*
X144262076Y-84653476D01*
X144309695Y-84748714D01*
%TD*%
M02*
