%TF.GenerationSoftware,KiCad,Pcbnew,(5.1.8)-1*%
%TF.CreationDate,2021-02-16T22:48:13+07:00*%
%TF.ProjectId,ArduinoMicroC,41726475-696e-46f4-9d69-63726f432e6b,rev?*%
%TF.SameCoordinates,Original*%
%TF.FileFunction,Soldermask,Bot*%
%TF.FilePolarity,Negative*%
%FSLAX46Y46*%
G04 Gerber Fmt 4.6, Leading zero omitted, Abs format (unit mm)*
G04 Created by KiCad (PCBNEW (5.1.8)-1) date 2021-02-16 22:48:13*
%MOMM*%
%LPD*%
G01*
G04 APERTURE LIST*
%ADD10R,2.700000X1.700000*%
%ADD11C,1.700000*%
%ADD12R,1.700000X2.700000*%
%ADD13O,1.000000X2.100000*%
%ADD14C,0.650000*%
%ADD15O,1.000000X1.600000*%
G04 APERTURE END LIST*
D10*
%TO.C,J4*%
X150257500Y-74168000D03*
X150257500Y-76708000D03*
X150257500Y-79248000D03*
X150257500Y-81788000D03*
X150257500Y-84328000D03*
X150257500Y-86868000D03*
X150257500Y-89408000D03*
X150257500Y-91948000D03*
X150257500Y-94488000D03*
X150257500Y-97028000D03*
X150257500Y-99568000D03*
X150257500Y-102108000D03*
X150257500Y-104648000D03*
D11*
X148907500Y-74168000D03*
X148907500Y-76708000D03*
X148907500Y-79248000D03*
X148907500Y-81788000D03*
X148907500Y-84328000D03*
X148907500Y-86868000D03*
X148907500Y-89408000D03*
X148907500Y-91948000D03*
X148907500Y-94488000D03*
X148907500Y-97028000D03*
X148907500Y-99568000D03*
X148907500Y-102108000D03*
X148907500Y-104648000D03*
%TD*%
%TO.C,J2*%
X133658600Y-74168000D03*
X133658600Y-76708000D03*
X133658600Y-79248000D03*
X133658600Y-81788000D03*
X133658600Y-84328000D03*
X133658600Y-86868000D03*
X133658600Y-89408000D03*
X133658600Y-91948000D03*
X133658600Y-94488000D03*
X133658600Y-97028000D03*
X133658600Y-99568000D03*
X133658600Y-102108000D03*
X133658600Y-104648000D03*
D10*
X132308600Y-74168000D03*
X132308600Y-76708000D03*
X132308600Y-79248000D03*
X132308600Y-81788000D03*
X132308600Y-84328000D03*
X132308600Y-86868000D03*
X132308600Y-89408000D03*
X132308600Y-91948000D03*
X132308600Y-94488000D03*
X132308600Y-97028000D03*
X132308600Y-99568000D03*
X132308600Y-102108000D03*
X132308600Y-104648000D03*
%TD*%
D12*
%TO.C,J3*%
X146357340Y-105996740D03*
X143817340Y-105996740D03*
X141277340Y-105996740D03*
X138737340Y-105996740D03*
X136197340Y-105996740D03*
D11*
X146357340Y-104646740D03*
X143817340Y-104646740D03*
X141277340Y-104646740D03*
X138737340Y-104646740D03*
X136197340Y-104646740D03*
%TD*%
D13*
%TO.C,J1*%
X136942100Y-79596700D03*
X145582100Y-79596700D03*
D14*
X144152100Y-79066700D03*
D15*
X145582100Y-75416700D03*
D14*
X138372100Y-79066700D03*
D15*
X136942100Y-75416700D03*
%TD*%
M02*
