M48
; DRILL file {KiCad (5.1.8)-1} date 01/01/21 16:30:27
; FORMAT={-:-/ absolute / metric / decimal}
; #@! TF.CreationDate,2021-01-01T16:30:27+07:00
; #@! TF.GenerationSoftware,Kicad,Pcbnew,(5.1.8)-1
; #@! TF.FileFunction,Plated,1,4,PTH
FMAT,2
METRIC
T1C0.300
T2C0.600
T3C1.000
%
G90
G05
T1
X135.329Y-92.276
X135.829Y-85.603
X136.291Y-94.306
X136.329Y-89.617
X136.722Y-100.153
X136.893Y-95.471
X136.973Y-99.194
X137.129Y-97.587
X137.282Y-93.284
X137.343Y-87.856
X137.777Y-90.084
X138.022Y-80.824
X138.26Y-93.998
X138.43Y-96.275
X139.023Y-101.265
X139.098Y-95.534
X139.616Y-101.379
X139.728Y-90.462
X139.743Y-89.484
X139.924Y-91.611
X139.992Y-92.25
X140.071Y-97.425
X140.127Y-87.315
X140.135Y-86.337
X140.522Y-79.436
X140.572Y-96.517
X141.296Y-89.406
X141.331Y-90.079
X141.522Y-81.743
X141.522Y-79.436
X141.849Y-92.867
X141.972Y-99.714
X141.983Y-94.127
X142.06Y-89.436
X142.062Y-90.079
X142.112Y-81.853
X142.368Y-102.849
X143.377Y-97.569
X143.495Y-95.499
X143.722Y-80.824
X144.011Y-93.106
X144.522Y-80.824
X145.072Y-87.203
X145.075Y-91.406
X145.246Y-100.6
X145.39Y-92.58
X145.44Y-85.705
X145.514Y-99.98
X145.666Y-93.492
X146.036Y-95.79
X146.111Y-95.195
X146.428Y-93.492
T3
X148.907Y-76.708
X148.907Y-79.248
X148.907Y-81.788
X148.907Y-84.328
X148.907Y-86.868
X148.907Y-89.408
X148.907Y-91.948
X148.907Y-94.488
X148.907Y-97.028
X148.907Y-99.568
X148.907Y-102.108
X148.907Y-104.648
X150.257Y-76.708
X150.257Y-79.248
X150.257Y-81.788
X150.257Y-84.328
X150.257Y-86.868
X150.257Y-89.408
X150.257Y-91.948
X150.257Y-94.488
X150.257Y-97.028
X150.257Y-99.568
X150.257Y-102.108
X150.257Y-104.648
X136.197Y-104.647
X136.197Y-105.997
X138.737Y-104.647
X138.737Y-105.997
X141.277Y-104.647
X141.277Y-105.997
X143.817Y-104.647
X143.817Y-105.997
X146.357Y-104.647
X146.357Y-105.997
X132.317Y-76.708
X132.317Y-79.248
X132.317Y-81.788
X132.317Y-84.328
X132.317Y-86.868
X132.317Y-89.408
X132.317Y-91.948
X132.317Y-94.488
X132.317Y-97.028
X132.317Y-99.568
X132.317Y-102.108
X132.317Y-104.648
X133.667Y-76.708
X133.667Y-79.248
X133.667Y-81.788
X133.667Y-84.328
X133.667Y-86.868
X133.667Y-89.408
X133.667Y-91.948
X133.667Y-94.488
X133.667Y-97.028
X133.667Y-99.568
X133.667Y-102.108
X133.667Y-104.648
T2
G00X136.952Y-76.029
M15
G01X136.952Y-75.429
M16
G05
G00X136.952Y-80.459
M15
G01X136.952Y-79.359
M16
G05
G00X145.592Y-76.029
M15
G01X145.592Y-75.429
M16
G05
G00X145.592Y-80.459
M15
G01X145.592Y-79.359
M16
G05
T0
M30
