%TF.GenerationSoftware,KiCad,Pcbnew,(5.1.8)-1*%
%TF.CreationDate,2021-02-10T22:24:12+07:00*%
%TF.ProjectId,ArduinoMicroC,41726475-696e-46f4-9d69-63726f432e6b,rev?*%
%TF.SameCoordinates,Original*%
%TF.FileFunction,Copper,L2,Bot*%
%TF.FilePolarity,Positive*%
%FSLAX46Y46*%
G04 Gerber Fmt 4.6, Leading zero omitted, Abs format (unit mm)*
G04 Created by KiCad (PCBNEW (5.1.8)-1) date 2021-02-10 22:24:12*
%MOMM*%
%LPD*%
G01*
G04 APERTURE LIST*
%TA.AperFunction,ComponentPad*%
%ADD10R,1.700000X2.700000*%
%TD*%
%TA.AperFunction,ComponentPad*%
%ADD11R,2.700000X1.700000*%
%TD*%
%TA.AperFunction,ComponentPad*%
%ADD12C,1.700000*%
%TD*%
%TA.AperFunction,ComponentPad*%
%ADD13O,1.000000X2.100000*%
%TD*%
%TA.AperFunction,ComponentPad*%
%ADD14O,1.000000X1.600000*%
%TD*%
%TA.AperFunction,ViaPad*%
%ADD15C,0.400000*%
%TD*%
%TA.AperFunction,Conductor*%
%ADD16C,0.200000*%
%TD*%
%TA.AperFunction,Conductor*%
%ADD17C,0.254000*%
%TD*%
%TA.AperFunction,Conductor*%
%ADD18C,0.100000*%
%TD*%
G04 APERTURE END LIST*
D10*
%TO.P,J4,13*%
%TO.N,D-*%
X148907500Y-72818000D03*
%TO.P,J4,1*%
%TO.N,10*%
X148907500Y-105998000D03*
D11*
%TO.P,J4,13*%
%TO.N,D-*%
X150257500Y-74168000D03*
%TO.P,J4,12*%
%TO.N,RAW*%
X150257500Y-76708000D03*
%TO.P,J4,11*%
%TO.N,GND*%
X150257500Y-79248000D03*
%TO.P,J4,10*%
%TO.N,RESET*%
X150257500Y-81788000D03*
%TO.P,J4,9*%
%TO.N,VCC*%
X150257500Y-84328000D03*
%TO.P,J4,8*%
%TO.N,A3*%
X150257500Y-86868000D03*
%TO.P,J4,7*%
%TO.N,A2*%
X150257500Y-89408000D03*
%TO.P,J4,6*%
%TO.N,A1*%
X150257500Y-91948000D03*
%TO.P,J4,5*%
%TO.N,A0*%
X150257500Y-94488000D03*
%TO.P,J4,4*%
%TO.N,15*%
X150257500Y-97028000D03*
%TO.P,J4,3*%
%TO.N,14*%
X150257500Y-99568000D03*
%TO.P,J4,2*%
%TO.N,16*%
X150257500Y-102108000D03*
%TO.P,J4,1*%
%TO.N,10*%
X150257500Y-104648000D03*
D12*
%TO.P,J4,13*%
%TO.N,D-*%
X148907500Y-74168000D03*
%TO.P,J4,12*%
%TO.N,RAW*%
X148907500Y-76708000D03*
%TO.P,J4,11*%
%TO.N,GND*%
X148907500Y-79248000D03*
%TO.P,J4,10*%
%TO.N,RESET*%
X148907500Y-81788000D03*
%TO.P,J4,9*%
%TO.N,VCC*%
X148907500Y-84328000D03*
%TO.P,J4,8*%
%TO.N,A3*%
X148907500Y-86868000D03*
%TO.P,J4,7*%
%TO.N,A2*%
X148907500Y-89408000D03*
%TO.P,J4,6*%
%TO.N,A1*%
X148907500Y-91948000D03*
%TO.P,J4,5*%
%TO.N,A0*%
X148907500Y-94488000D03*
%TO.P,J4,4*%
%TO.N,15*%
X148907500Y-97028000D03*
%TO.P,J4,3*%
%TO.N,14*%
X148907500Y-99568000D03*
%TO.P,J4,2*%
%TO.N,16*%
X148907500Y-102108000D03*
%TO.P,J4,1*%
%TO.N,10*%
X148907500Y-104648000D03*
%TD*%
D10*
%TO.P,J2,13*%
%TO.N,9*%
X133658600Y-105998000D03*
%TO.P,J2,1*%
%TO.N,D+*%
X133658600Y-72818000D03*
D11*
%TO.P,J2,13*%
%TO.N,9*%
X132308600Y-104648000D03*
%TO.P,J2,12*%
%TO.N,8*%
X132308600Y-102108000D03*
%TO.P,J2,11*%
%TO.N,7*%
X132308600Y-99568000D03*
%TO.P,J2,10*%
%TO.N,6*%
X132308600Y-97028000D03*
%TO.P,J2,9*%
%TO.N,5*%
X132308600Y-94488000D03*
%TO.P,J2,8*%
%TO.N,4*%
X132308600Y-91948000D03*
%TO.P,J2,7*%
%TO.N,SCL*%
X132308600Y-89408000D03*
%TO.P,J2,6*%
%TO.N,SDA*%
X132308600Y-86868000D03*
%TO.P,J2,5*%
%TO.N,GND*%
X132308600Y-84328000D03*
%TO.P,J2,4*%
X132308600Y-81788000D03*
%TO.P,J2,3*%
%TO.N,RX*%
X132308600Y-79248000D03*
%TO.P,J2,2*%
%TO.N,TX*%
X132308600Y-76708000D03*
%TO.P,J2,1*%
%TO.N,D+*%
X132308600Y-74168000D03*
D12*
%TO.P,J2,13*%
%TO.N,9*%
X133658600Y-104648000D03*
%TO.P,J2,12*%
%TO.N,8*%
X133658600Y-102108000D03*
%TO.P,J2,11*%
%TO.N,7*%
X133658600Y-99568000D03*
%TO.P,J2,10*%
%TO.N,6*%
X133658600Y-97028000D03*
%TO.P,J2,9*%
%TO.N,5*%
X133658600Y-94488000D03*
%TO.P,J2,8*%
%TO.N,4*%
X133658600Y-91948000D03*
%TO.P,J2,7*%
%TO.N,SCL*%
X133658600Y-89408000D03*
%TO.P,J2,6*%
%TO.N,SDA*%
X133658600Y-86868000D03*
%TO.P,J2,5*%
%TO.N,GND*%
X133658600Y-84328000D03*
%TO.P,J2,4*%
X133658600Y-81788000D03*
%TO.P,J2,3*%
%TO.N,RX*%
X133658600Y-79248000D03*
%TO.P,J2,2*%
%TO.N,TX*%
X133658600Y-76708000D03*
%TO.P,J2,1*%
%TO.N,D+*%
X133658600Y-74168000D03*
%TD*%
D10*
%TO.P,J3,5*%
%TO.N,17*%
X146357340Y-105996740D03*
%TO.P,J3,4*%
%TO.N,A5*%
X143817340Y-105996740D03*
%TO.P,J3,3*%
%TO.N,A4*%
X141277340Y-105996740D03*
%TO.P,J3,2*%
%TO.N,13*%
X138737340Y-105996740D03*
%TO.P,J3,1*%
%TO.N,12*%
X136197340Y-105996740D03*
D12*
%TO.P,J3,5*%
%TO.N,17*%
X146357340Y-104646740D03*
%TO.P,J3,4*%
%TO.N,A5*%
X143817340Y-104646740D03*
%TO.P,J3,3*%
%TO.N,A4*%
X141277340Y-104646740D03*
%TO.P,J3,2*%
%TO.N,13*%
X138737340Y-104646740D03*
%TO.P,J3,1*%
%TO.N,12*%
X136197340Y-104646740D03*
%TD*%
D13*
%TO.P,J1,S1*%
%TO.N,Net-(J1-PadS1)*%
X136942100Y-79596700D03*
X145582100Y-79596700D03*
D14*
X145582100Y-75416700D03*
X136942100Y-75416700D03*
%TD*%
D15*
%TO.N,GND*%
X136290756Y-94305744D03*
X137129386Y-97587284D03*
X143494760Y-95498920D03*
X143497300Y-97356041D03*
X142891689Y-102091311D03*
X146646900Y-100314700D03*
X145074640Y-91406400D03*
X140134760Y-87286980D03*
X139288520Y-82917260D03*
X143250920Y-82917260D03*
X139730480Y-90461960D03*
X138789128Y-93112874D03*
X144512100Y-80511700D03*
%TO.N,Net-(C4-Pad2)*%
X137342880Y-87856060D03*
X136329420Y-89617081D03*
X138259632Y-93997593D03*
%TO.N,Net-(C7-Pad2)*%
X144010720Y-93106240D03*
X145389660Y-92580460D03*
%TO.N,VBUS*%
X143712100Y-80511700D03*
X146004058Y-95132472D03*
%TO.N,Net-(J1-PadA5)*%
X143560800Y-91313000D03*
X139509500Y-79514700D03*
%TO.N,RX*%
X136558364Y-95470871D03*
%TO.N,TX*%
X138087100Y-96647000D03*
%TO.N,RESET*%
X145074640Y-87206400D03*
X140909179Y-91951336D03*
%TO.N,A3*%
X141998700Y-97856041D03*
%TO.N,A2*%
X145681700Y-101333300D03*
X144068800Y-100507800D03*
%TO.N,A1*%
X141972347Y-98602800D03*
%TO.N,A0*%
X141972347Y-99345914D03*
%TO.N,D+*%
X145491200Y-93510100D03*
X140512101Y-79593049D03*
%TO.N,D-*%
X146253200Y-93510100D03*
X142012099Y-79593049D03*
%TO.N,SCL*%
X139098020Y-95534480D03*
%TO.N,Net-(D1-Pad1)*%
X140703300Y-89827100D03*
X137101580Y-85707680D03*
%TO.N,5*%
X139023439Y-101264871D03*
X136973492Y-99193768D03*
%TO.N,7*%
X146035828Y-95790486D03*
%TO.N,13*%
X139616273Y-101379144D03*
%TO.N,12*%
X136721787Y-100152580D03*
%TO.N,10*%
X142314569Y-102630331D03*
%TO.N,17*%
X140070867Y-97425451D03*
%TO.N,16*%
X140572337Y-96517460D03*
%TO.N,15*%
X141983460Y-94127320D03*
%TO.N,14*%
X141849324Y-92867346D03*
%TD*%
D16*
%TO.N,GND*%
X148907500Y-79248000D02*
X148399500Y-78740000D01*
X133658600Y-81788000D02*
X133658600Y-84328000D01*
X143494760Y-97353501D02*
X143497300Y-97356041D01*
X143494760Y-95498920D02*
X143494760Y-97353501D01*
X144130200Y-90461960D02*
X145074640Y-91406400D01*
X139730480Y-90461960D02*
X144130200Y-90461960D01*
X139730480Y-87691260D02*
X140134760Y-87286980D01*
X139730480Y-90461960D02*
X139730480Y-90461960D01*
X139288520Y-86440740D02*
X140134760Y-87286980D01*
X139288520Y-82917260D02*
X139288520Y-86440740D01*
X146646900Y-100314700D02*
X146646900Y-101447600D01*
X146003189Y-102091311D02*
X142891689Y-102091311D01*
X146646900Y-101447600D02*
X146003189Y-102091311D01*
X139288520Y-82917260D02*
X143250920Y-82917260D01*
X139730480Y-90461960D02*
X139730480Y-87691260D01*
X144668039Y-91813001D02*
X145074640Y-91406400D01*
X143320799Y-91813001D02*
X144668039Y-91813001D01*
X142959133Y-91451335D02*
X143320799Y-91813001D01*
X140450667Y-91451335D02*
X142959133Y-91451335D01*
X138789128Y-93112874D02*
X140450667Y-91451335D01*
X136058363Y-96516261D02*
X137129386Y-97587284D01*
X136058363Y-94538137D02*
X136058363Y-96516261D01*
X136290756Y-94305744D02*
X136058363Y-94538137D01*
X136290756Y-91474458D02*
X136290756Y-94305744D01*
X135029399Y-90213101D02*
X136290756Y-91474458D01*
X135029399Y-85698799D02*
X135029399Y-90213101D01*
X133658600Y-84328000D02*
X135029399Y-85698799D01*
X148907500Y-79248000D02*
X146748500Y-81407000D01*
X145407400Y-81407000D02*
X144512100Y-80511700D01*
X146748500Y-81407000D02*
X145407400Y-81407000D01*
X148907500Y-79248000D02*
X149853290Y-79248000D01*
X133658600Y-84328000D02*
X132709010Y-84328000D01*
X133658600Y-81788000D02*
X132709010Y-81788000D01*
%TO.N,RAW*%
X148907500Y-76708000D02*
X149853290Y-76708000D01*
%TO.N,VCC*%
X148437600Y-84328000D02*
X148907500Y-84328000D01*
X148907500Y-84328000D02*
X149853290Y-84328000D01*
%TO.N,Net-(C4-Pad2)*%
X136329420Y-88869520D02*
X137342880Y-87856060D01*
X136329420Y-89617081D02*
X136329420Y-88869520D01*
X138277221Y-88790401D02*
X137342880Y-87856060D01*
X138277221Y-93980004D02*
X138277221Y-88790401D01*
X138259632Y-93997593D02*
X138277221Y-93980004D01*
%TO.N,Net-(C7-Pad2)*%
X144863880Y-93106240D02*
X145389660Y-92580460D01*
X144010720Y-93106240D02*
X144863880Y-93106240D01*
%TO.N,VBUS*%
X146774671Y-94361859D02*
X146004058Y-95132472D01*
X146774671Y-83574271D02*
X143712100Y-80511700D01*
X146774671Y-94361859D02*
X146774671Y-83574271D01*
%TO.N,Net-(J1-PadA5)*%
X139509500Y-79514700D02*
X136601579Y-82422621D01*
X138962561Y-88593603D02*
X136601579Y-86232621D01*
X138962561Y-90434043D02*
X138962561Y-88593603D01*
X136601579Y-82422621D02*
X136601579Y-86232621D01*
X143209761Y-90961961D02*
X143560800Y-91313000D01*
X139490479Y-90961961D02*
X143209761Y-90961961D01*
X138962561Y-90434043D02*
X139490479Y-90961961D01*
%TO.N,Net-(J1-PadS1)*%
X136942100Y-79596700D02*
X136942100Y-75416700D01*
X145582100Y-75416700D02*
X145582100Y-79596700D01*
%TO.N,RX*%
X135429409Y-81018809D02*
X135429409Y-90022771D01*
X133658600Y-79248000D02*
X135429409Y-81018809D01*
X136790757Y-91384119D02*
X135429409Y-90022771D01*
X136790757Y-95238478D02*
X136790757Y-91384119D01*
X136558364Y-95470871D02*
X136790757Y-95238478D01*
X133658600Y-79248000D02*
X132709010Y-79248000D01*
%TO.N,TX*%
X138087100Y-94796388D02*
X138087100Y-96647000D01*
X137502900Y-94212188D02*
X138087100Y-94796388D01*
X137502900Y-91530563D02*
X137502900Y-94212188D01*
X135829419Y-89857082D02*
X137502900Y-91530563D01*
X135829419Y-78878819D02*
X135829419Y-89857082D01*
X133658600Y-76708000D02*
X135829419Y-78878819D01*
X133658600Y-76708000D02*
X132709010Y-76708000D01*
%TO.N,RESET*%
X142681512Y-91951336D02*
X140909179Y-91951336D01*
X143313176Y-92583000D02*
X142681512Y-91951336D01*
X144647118Y-92583000D02*
X143313176Y-92583000D01*
X145574641Y-91655477D02*
X144647118Y-92583000D01*
X145574641Y-87706401D02*
X145574641Y-91655477D01*
X145074640Y-87206400D02*
X145574641Y-87706401D01*
X148907500Y-81788000D02*
X149853290Y-81788000D01*
%TO.N,A3*%
X141998700Y-95465900D02*
X141998700Y-97856041D01*
X142865691Y-94598909D02*
X141998700Y-95465900D01*
X145795827Y-96290487D02*
X144104249Y-94598909D01*
X144104249Y-94598909D02*
X142865691Y-94598909D01*
X148907500Y-86868000D02*
X147174681Y-88600819D01*
X146275829Y-96290487D02*
X145795827Y-96290487D01*
X147174681Y-95391635D02*
X146275829Y-96290487D01*
X147174681Y-88600819D02*
X147174681Y-95391635D01*
X148907500Y-86868000D02*
X149853290Y-86868000D01*
%TO.N,A2*%
X144894300Y-101333300D02*
X144068800Y-100507800D01*
X145681700Y-101333300D02*
X144894300Y-101333300D01*
X148907500Y-89408000D02*
X149853290Y-89408000D01*
%TO.N,A1*%
X143254759Y-94998919D02*
X142517781Y-95735897D01*
X143734761Y-94998919D02*
X143254759Y-94998919D01*
X145426339Y-96690497D02*
X143734761Y-94998919D01*
X147757499Y-93098001D02*
X147757499Y-95796203D01*
X148907500Y-91948000D02*
X147757499Y-93098001D01*
X146863205Y-96690497D02*
X145426339Y-96690497D01*
X147757499Y-95796203D02*
X146863205Y-96690497D01*
X142517781Y-98057366D02*
X141972347Y-98602800D01*
X142517781Y-95735897D02*
X142517781Y-98057366D01*
X148907500Y-91948000D02*
X149853290Y-91948000D01*
%TO.N,A0*%
X148907500Y-94488000D02*
X148907500Y-95211900D01*
X148907500Y-95211900D02*
X146224779Y-97894621D01*
X143423640Y-97894621D02*
X141972347Y-99345914D01*
X146224779Y-97894621D02*
X143423640Y-97894621D01*
X148907500Y-94488000D02*
X149853290Y-94488000D01*
%TO.N,A5*%
X143817340Y-104646740D02*
X143817340Y-105593790D01*
%TO.N,A4*%
X141277340Y-104646740D02*
X141277340Y-105593790D01*
%TO.N,D+*%
X141232410Y-79593049D02*
X145974651Y-84335290D01*
X140512101Y-79593049D02*
X141232410Y-79593049D01*
X145513198Y-93510100D02*
X145491200Y-93510100D01*
X145974651Y-93048647D02*
X145513198Y-93510100D01*
X145974651Y-84335290D02*
X145974651Y-93048647D01*
X133658600Y-74168000D02*
X138468100Y-74168000D01*
X140512101Y-76212001D02*
X140512101Y-79593049D01*
X138468100Y-74168000D02*
X140512101Y-76212001D01*
X133658600Y-74168000D02*
X132709010Y-74168000D01*
X133658600Y-74168000D02*
X133658600Y-73222210D01*
%TO.N,D-*%
X142012099Y-79593049D02*
X146374661Y-83955611D01*
X146374661Y-93388639D02*
X146253200Y-93510100D01*
X146374661Y-83955611D02*
X146374661Y-93388639D01*
X148907500Y-74168000D02*
X144068800Y-74168000D01*
X142012099Y-76224701D02*
X142012099Y-79593049D01*
X144068800Y-74168000D02*
X142012099Y-76224701D01*
X148907500Y-74168000D02*
X148907500Y-73222210D01*
X148907500Y-74168000D02*
X149853290Y-74168000D01*
%TO.N,SDA*%
X133658600Y-86868000D02*
X132709010Y-86868000D01*
%TO.N,SCL*%
X139098020Y-95534480D02*
X139098020Y-96701697D01*
X137712432Y-98087285D02*
X139098020Y-96701697D01*
X136566548Y-98087285D02*
X137712432Y-98087285D01*
X135470032Y-91219432D02*
X135470032Y-96990768D01*
X133658600Y-89408000D02*
X135470032Y-91219432D01*
X135470032Y-96990768D02*
X136566548Y-98087285D01*
X133658600Y-89408000D02*
X132709010Y-89408000D01*
%TO.N,Net-(D1-Pad1)*%
X137101580Y-84364198D02*
X137101580Y-85707680D01*
X137101580Y-84364198D02*
X139614278Y-81851500D01*
X139614278Y-81851500D02*
X142925163Y-81851500D01*
X142925163Y-81851500D02*
X144386300Y-83312637D01*
X144386300Y-86144100D02*
X140703300Y-89827100D01*
X144386300Y-83312637D02*
X144386300Y-86144100D01*
%TO.N,4*%
X133658600Y-91948000D02*
X132709010Y-91948000D01*
%TO.N,5*%
X139023439Y-101243715D02*
X139023439Y-101264871D01*
X136973492Y-99193768D02*
X139023439Y-101243715D01*
X133658600Y-94488000D02*
X132709010Y-94488000D01*
%TO.N,6*%
X133658600Y-97028000D02*
X132709010Y-97028000D01*
%TO.N,7*%
X133667500Y-99568000D02*
X133667500Y-100048201D01*
X134541733Y-98693767D02*
X133667500Y-99568000D01*
X142531823Y-92367345D02*
X141609323Y-92367345D01*
X137671648Y-98693767D02*
X134541733Y-98693767D01*
X145954964Y-95790486D02*
X142531823Y-92367345D01*
X146035828Y-95790486D02*
X145954964Y-95790486D01*
X141609323Y-92367345D02*
X140672327Y-93304341D01*
X140672327Y-95693088D02*
X137671648Y-98693767D01*
X140672327Y-93304341D02*
X140672327Y-95693088D01*
X133658600Y-99568000D02*
X132709010Y-99568000D01*
%TO.N,8*%
X133658600Y-102108000D02*
X132709010Y-102108000D01*
%TO.N,9*%
X133658600Y-104648000D02*
X132709010Y-104648000D01*
X133658600Y-104648000D02*
X133658600Y-105593790D01*
%TO.N,13*%
X138737340Y-104646740D02*
X138737340Y-102258077D01*
X138737340Y-102258077D02*
X139616273Y-101379144D01*
X138737340Y-104646740D02*
X138737340Y-105593790D01*
%TO.N,12*%
X136197340Y-100677027D02*
X136721787Y-100152580D01*
X136197340Y-104646740D02*
X136197340Y-100677027D01*
X136197340Y-104646740D02*
X136197340Y-105593790D01*
%TO.N,10*%
X148361663Y-104102163D02*
X148907500Y-104648000D01*
X146889831Y-102630331D02*
X142314569Y-102630331D01*
X148907500Y-104648000D02*
X146889831Y-102630331D01*
X148907500Y-104648000D02*
X149853290Y-104648000D01*
X148907500Y-104648000D02*
X148907500Y-105593790D01*
%TO.N,17*%
X140070867Y-97425451D02*
X140070867Y-101093736D01*
X142107463Y-103130332D02*
X140070867Y-101093736D01*
X144840932Y-103130332D02*
X142107463Y-103130332D01*
X146357340Y-104646740D02*
X144840932Y-103130332D01*
X146357340Y-104646740D02*
X146357340Y-105593790D01*
%TO.N,16*%
X148907500Y-101835298D02*
X148907500Y-102108000D01*
X146166853Y-99094651D02*
X148907500Y-101835298D01*
X142543726Y-101014042D02*
X144463117Y-99094651D01*
X141400969Y-101014042D02*
X142543726Y-101014042D01*
X140572337Y-100185410D02*
X141400969Y-101014042D01*
X144463117Y-99094651D02*
X146166853Y-99094651D01*
X140572337Y-96517460D02*
X140572337Y-100185410D01*
X148907500Y-102108000D02*
X149853290Y-102108000D01*
%TO.N,15*%
X141472347Y-99954022D02*
X141472347Y-94638433D01*
X142212349Y-100214022D02*
X141732347Y-100214022D01*
X141472347Y-94638433D02*
X141983460Y-94127320D01*
X141732347Y-100214022D02*
X141472347Y-99954022D01*
X148907500Y-97028000D02*
X147640869Y-98294631D01*
X144131740Y-98294631D02*
X142212349Y-100214022D01*
X147640869Y-98294631D02*
X144131740Y-98294631D01*
X148907500Y-97028000D02*
X149853290Y-97028000D01*
%TO.N,14*%
X141072337Y-93644333D02*
X141849324Y-92867346D01*
X141566658Y-100614032D02*
X141072337Y-100119711D01*
X142378038Y-100614032D02*
X141566658Y-100614032D01*
X141072337Y-100119711D02*
X141072337Y-93644333D01*
X148034141Y-98694641D02*
X144297429Y-98694641D01*
X144297429Y-98694641D02*
X142378038Y-100614032D01*
X148907500Y-99568000D02*
X148034141Y-98694641D01*
X148907500Y-99568000D02*
X149853290Y-99568000D01*
%TD*%
D17*
%TO.N,Net-(J1-PadS1)*%
X144447100Y-74989700D02*
X144447100Y-75289700D01*
X145455100Y-75289700D01*
X145455100Y-75269700D01*
X145709100Y-75269700D01*
X145709100Y-75289700D01*
X146717100Y-75289700D01*
X146717100Y-74989700D01*
X146698656Y-74903000D01*
X147612617Y-74903000D01*
X147754025Y-75114632D01*
X147960868Y-75321475D01*
X148135260Y-75438000D01*
X147960868Y-75554525D01*
X147754025Y-75761368D01*
X147591510Y-76004589D01*
X147479568Y-76274842D01*
X147422500Y-76561740D01*
X147422500Y-76854260D01*
X147479568Y-77141158D01*
X147591510Y-77411411D01*
X147754025Y-77654632D01*
X147960868Y-77861475D01*
X148135260Y-77978000D01*
X147960868Y-78094525D01*
X147754025Y-78301368D01*
X147591510Y-78544589D01*
X147479568Y-78814842D01*
X147422500Y-79101740D01*
X147422500Y-79394260D01*
X147472156Y-79643897D01*
X146683255Y-80432799D01*
X146717100Y-80273700D01*
X146717100Y-79723700D01*
X145709100Y-79723700D01*
X145709100Y-79743700D01*
X145455100Y-79743700D01*
X145455100Y-79723700D01*
X145435100Y-79723700D01*
X145435100Y-79469700D01*
X145455100Y-79469700D01*
X145455100Y-78078746D01*
X145709100Y-78078746D01*
X145709100Y-79469700D01*
X146717100Y-79469700D01*
X146717100Y-78919700D01*
X146670515Y-78700713D01*
X146582103Y-78495022D01*
X146455261Y-78310531D01*
X146294864Y-78154331D01*
X146107076Y-78032424D01*
X145883974Y-77952581D01*
X145709100Y-78078746D01*
X145455100Y-78078746D01*
X145280226Y-77952581D01*
X145057124Y-78032424D01*
X144869336Y-78154331D01*
X144724984Y-78294906D01*
X144606831Y-78215959D01*
X144432122Y-78143592D01*
X144246652Y-78106700D01*
X144057548Y-78106700D01*
X143872078Y-78143592D01*
X143697369Y-78215959D01*
X143540136Y-78321019D01*
X143406419Y-78454736D01*
X143301359Y-78611969D01*
X143228992Y-78786678D01*
X143192100Y-78972148D01*
X143192100Y-79161252D01*
X143228992Y-79346722D01*
X143301359Y-79521431D01*
X143406419Y-79678664D01*
X143445915Y-79718160D01*
X143316579Y-79771733D01*
X143264816Y-79806320D01*
X142816754Y-79358258D01*
X142815010Y-79349489D01*
X142752066Y-79197528D01*
X142747099Y-79190094D01*
X142747099Y-76529147D01*
X143732546Y-75543700D01*
X144447100Y-75543700D01*
X144447100Y-75843700D01*
X144493685Y-76062687D01*
X144582097Y-76268378D01*
X144708939Y-76452869D01*
X144869336Y-76609069D01*
X145057124Y-76730976D01*
X145280226Y-76810819D01*
X145455100Y-76684654D01*
X145455100Y-75543700D01*
X145709100Y-75543700D01*
X145709100Y-76684654D01*
X145883974Y-76810819D01*
X146107076Y-76730976D01*
X146294864Y-76609069D01*
X146455261Y-76452869D01*
X146582103Y-76268378D01*
X146670515Y-76062687D01*
X146717100Y-75843700D01*
X146717100Y-75543700D01*
X145709100Y-75543700D01*
X145455100Y-75543700D01*
X144447100Y-75543700D01*
X143732546Y-75543700D01*
X144373247Y-74903000D01*
X144465544Y-74903000D01*
X144447100Y-74989700D01*
%TA.AperFunction,Conductor*%
D18*
G36*
X144447100Y-74989700D02*
G01*
X144447100Y-75289700D01*
X145455100Y-75289700D01*
X145455100Y-75269700D01*
X145709100Y-75269700D01*
X145709100Y-75289700D01*
X146717100Y-75289700D01*
X146717100Y-74989700D01*
X146698656Y-74903000D01*
X147612617Y-74903000D01*
X147754025Y-75114632D01*
X147960868Y-75321475D01*
X148135260Y-75438000D01*
X147960868Y-75554525D01*
X147754025Y-75761368D01*
X147591510Y-76004589D01*
X147479568Y-76274842D01*
X147422500Y-76561740D01*
X147422500Y-76854260D01*
X147479568Y-77141158D01*
X147591510Y-77411411D01*
X147754025Y-77654632D01*
X147960868Y-77861475D01*
X148135260Y-77978000D01*
X147960868Y-78094525D01*
X147754025Y-78301368D01*
X147591510Y-78544589D01*
X147479568Y-78814842D01*
X147422500Y-79101740D01*
X147422500Y-79394260D01*
X147472156Y-79643897D01*
X146683255Y-80432799D01*
X146717100Y-80273700D01*
X146717100Y-79723700D01*
X145709100Y-79723700D01*
X145709100Y-79743700D01*
X145455100Y-79743700D01*
X145455100Y-79723700D01*
X145435100Y-79723700D01*
X145435100Y-79469700D01*
X145455100Y-79469700D01*
X145455100Y-78078746D01*
X145709100Y-78078746D01*
X145709100Y-79469700D01*
X146717100Y-79469700D01*
X146717100Y-78919700D01*
X146670515Y-78700713D01*
X146582103Y-78495022D01*
X146455261Y-78310531D01*
X146294864Y-78154331D01*
X146107076Y-78032424D01*
X145883974Y-77952581D01*
X145709100Y-78078746D01*
X145455100Y-78078746D01*
X145280226Y-77952581D01*
X145057124Y-78032424D01*
X144869336Y-78154331D01*
X144724984Y-78294906D01*
X144606831Y-78215959D01*
X144432122Y-78143592D01*
X144246652Y-78106700D01*
X144057548Y-78106700D01*
X143872078Y-78143592D01*
X143697369Y-78215959D01*
X143540136Y-78321019D01*
X143406419Y-78454736D01*
X143301359Y-78611969D01*
X143228992Y-78786678D01*
X143192100Y-78972148D01*
X143192100Y-79161252D01*
X143228992Y-79346722D01*
X143301359Y-79521431D01*
X143406419Y-79678664D01*
X143445915Y-79718160D01*
X143316579Y-79771733D01*
X143264816Y-79806320D01*
X142816754Y-79358258D01*
X142815010Y-79349489D01*
X142752066Y-79197528D01*
X142747099Y-79190094D01*
X142747099Y-76529147D01*
X143732546Y-75543700D01*
X144447100Y-75543700D01*
X144447100Y-75843700D01*
X144493685Y-76062687D01*
X144582097Y-76268378D01*
X144708939Y-76452869D01*
X144869336Y-76609069D01*
X145057124Y-76730976D01*
X145280226Y-76810819D01*
X145455100Y-76684654D01*
X145455100Y-75543700D01*
X145709100Y-75543700D01*
X145709100Y-76684654D01*
X145883974Y-76810819D01*
X146107076Y-76730976D01*
X146294864Y-76609069D01*
X146455261Y-76452869D01*
X146582103Y-76268378D01*
X146670515Y-76062687D01*
X146717100Y-75843700D01*
X146717100Y-75543700D01*
X145709100Y-75543700D01*
X145455100Y-75543700D01*
X144447100Y-75543700D01*
X143732546Y-75543700D01*
X144373247Y-74903000D01*
X144465544Y-74903000D01*
X144447100Y-74989700D01*
G37*
%TD.AperFunction*%
D17*
X135807100Y-74989700D02*
X135807100Y-75289700D01*
X136815100Y-75289700D01*
X136815100Y-75269700D01*
X137069100Y-75269700D01*
X137069100Y-75289700D01*
X138077100Y-75289700D01*
X138077100Y-74989700D01*
X138058656Y-74903000D01*
X138163654Y-74903000D01*
X139777101Y-76516448D01*
X139777102Y-78721747D01*
X139753060Y-78711789D01*
X139591740Y-78679700D01*
X139427260Y-78679700D01*
X139265940Y-78711789D01*
X139264444Y-78712408D01*
X139222841Y-78611969D01*
X139117781Y-78454736D01*
X138984064Y-78321019D01*
X138826831Y-78215959D01*
X138652122Y-78143592D01*
X138466652Y-78106700D01*
X138277548Y-78106700D01*
X138092078Y-78143592D01*
X137917369Y-78215959D01*
X137799216Y-78294906D01*
X137654864Y-78154331D01*
X137467076Y-78032424D01*
X137243974Y-77952581D01*
X137069100Y-78078746D01*
X137069100Y-79469700D01*
X137089100Y-79469700D01*
X137089100Y-79723700D01*
X137069100Y-79723700D01*
X137069100Y-79743700D01*
X136815100Y-79743700D01*
X136815100Y-79723700D01*
X136795100Y-79723700D01*
X136795100Y-79469700D01*
X136815100Y-79469700D01*
X136815100Y-78078746D01*
X136640226Y-77952581D01*
X136417124Y-78032424D01*
X136229336Y-78154331D01*
X136186294Y-78196247D01*
X135093944Y-77103897D01*
X135143600Y-76854260D01*
X135143600Y-76561740D01*
X135086532Y-76274842D01*
X134974590Y-76004589D01*
X134812075Y-75761368D01*
X134605232Y-75554525D01*
X134589032Y-75543700D01*
X135807100Y-75543700D01*
X135807100Y-75843700D01*
X135853685Y-76062687D01*
X135942097Y-76268378D01*
X136068939Y-76452869D01*
X136229336Y-76609069D01*
X136417124Y-76730976D01*
X136640226Y-76810819D01*
X136815100Y-76684654D01*
X136815100Y-75543700D01*
X137069100Y-75543700D01*
X137069100Y-76684654D01*
X137243974Y-76810819D01*
X137467076Y-76730976D01*
X137654864Y-76609069D01*
X137815261Y-76452869D01*
X137942103Y-76268378D01*
X138030515Y-76062687D01*
X138077100Y-75843700D01*
X138077100Y-75543700D01*
X137069100Y-75543700D01*
X136815100Y-75543700D01*
X135807100Y-75543700D01*
X134589032Y-75543700D01*
X134430840Y-75438000D01*
X134605232Y-75321475D01*
X134812075Y-75114632D01*
X134953483Y-74903000D01*
X135825544Y-74903000D01*
X135807100Y-74989700D01*
%TA.AperFunction,Conductor*%
D18*
G36*
X135807100Y-74989700D02*
G01*
X135807100Y-75289700D01*
X136815100Y-75289700D01*
X136815100Y-75269700D01*
X137069100Y-75269700D01*
X137069100Y-75289700D01*
X138077100Y-75289700D01*
X138077100Y-74989700D01*
X138058656Y-74903000D01*
X138163654Y-74903000D01*
X139777101Y-76516448D01*
X139777102Y-78721747D01*
X139753060Y-78711789D01*
X139591740Y-78679700D01*
X139427260Y-78679700D01*
X139265940Y-78711789D01*
X139264444Y-78712408D01*
X139222841Y-78611969D01*
X139117781Y-78454736D01*
X138984064Y-78321019D01*
X138826831Y-78215959D01*
X138652122Y-78143592D01*
X138466652Y-78106700D01*
X138277548Y-78106700D01*
X138092078Y-78143592D01*
X137917369Y-78215959D01*
X137799216Y-78294906D01*
X137654864Y-78154331D01*
X137467076Y-78032424D01*
X137243974Y-77952581D01*
X137069100Y-78078746D01*
X137069100Y-79469700D01*
X137089100Y-79469700D01*
X137089100Y-79723700D01*
X137069100Y-79723700D01*
X137069100Y-79743700D01*
X136815100Y-79743700D01*
X136815100Y-79723700D01*
X136795100Y-79723700D01*
X136795100Y-79469700D01*
X136815100Y-79469700D01*
X136815100Y-78078746D01*
X136640226Y-77952581D01*
X136417124Y-78032424D01*
X136229336Y-78154331D01*
X136186294Y-78196247D01*
X135093944Y-77103897D01*
X135143600Y-76854260D01*
X135143600Y-76561740D01*
X135086532Y-76274842D01*
X134974590Y-76004589D01*
X134812075Y-75761368D01*
X134605232Y-75554525D01*
X134589032Y-75543700D01*
X135807100Y-75543700D01*
X135807100Y-75843700D01*
X135853685Y-76062687D01*
X135942097Y-76268378D01*
X136068939Y-76452869D01*
X136229336Y-76609069D01*
X136417124Y-76730976D01*
X136640226Y-76810819D01*
X136815100Y-76684654D01*
X136815100Y-75543700D01*
X137069100Y-75543700D01*
X137069100Y-76684654D01*
X137243974Y-76810819D01*
X137467076Y-76730976D01*
X137654864Y-76609069D01*
X137815261Y-76452869D01*
X137942103Y-76268378D01*
X138030515Y-76062687D01*
X138077100Y-75843700D01*
X138077100Y-75543700D01*
X137069100Y-75543700D01*
X136815100Y-75543700D01*
X135807100Y-75543700D01*
X134589032Y-75543700D01*
X134430840Y-75438000D01*
X134605232Y-75321475D01*
X134812075Y-75114632D01*
X134953483Y-74903000D01*
X135825544Y-74903000D01*
X135807100Y-74989700D01*
G37*
%TD.AperFunction*%
%TD*%
D17*
%TO.N,GND*%
X147546356Y-101513601D02*
X147479568Y-101674842D01*
X147422500Y-101961740D01*
X147422500Y-102120803D01*
X147412069Y-102108093D01*
X147300151Y-102016244D01*
X147172464Y-101947994D01*
X147033916Y-101905966D01*
X146925936Y-101895331D01*
X146889831Y-101891775D01*
X146853726Y-101895331D01*
X146300537Y-101895331D01*
X146330287Y-101865581D01*
X146421667Y-101728821D01*
X146484611Y-101576860D01*
X146516700Y-101415540D01*
X146516700Y-101251060D01*
X146484611Y-101089740D01*
X146421667Y-100937779D01*
X146330287Y-100801019D01*
X146213981Y-100684713D01*
X146077221Y-100593333D01*
X145925260Y-100530389D01*
X145763940Y-100498300D01*
X145599460Y-100498300D01*
X145438140Y-100530389D01*
X145286179Y-100593333D01*
X145278745Y-100598300D01*
X145198747Y-100598300D01*
X144873455Y-100273009D01*
X144871711Y-100264240D01*
X144808767Y-100112279D01*
X144717387Y-99975519D01*
X144669541Y-99927673D01*
X144767564Y-99829651D01*
X145862407Y-99829651D01*
X147546356Y-101513601D01*
%TA.AperFunction,Conductor*%
D18*
G36*
X147546356Y-101513601D02*
G01*
X147479568Y-101674842D01*
X147422500Y-101961740D01*
X147422500Y-102120803D01*
X147412069Y-102108093D01*
X147300151Y-102016244D01*
X147172464Y-101947994D01*
X147033916Y-101905966D01*
X146925936Y-101895331D01*
X146889831Y-101891775D01*
X146853726Y-101895331D01*
X146300537Y-101895331D01*
X146330287Y-101865581D01*
X146421667Y-101728821D01*
X146484611Y-101576860D01*
X146516700Y-101415540D01*
X146516700Y-101251060D01*
X146484611Y-101089740D01*
X146421667Y-100937779D01*
X146330287Y-100801019D01*
X146213981Y-100684713D01*
X146077221Y-100593333D01*
X145925260Y-100530389D01*
X145763940Y-100498300D01*
X145599460Y-100498300D01*
X145438140Y-100530389D01*
X145286179Y-100593333D01*
X145278745Y-100598300D01*
X145198747Y-100598300D01*
X144873455Y-100273009D01*
X144871711Y-100264240D01*
X144808767Y-100112279D01*
X144717387Y-99975519D01*
X144669541Y-99927673D01*
X144767564Y-99829651D01*
X145862407Y-99829651D01*
X147546356Y-101513601D01*
G37*
%TD.AperFunction*%
D17*
X144271729Y-87449960D02*
X144334673Y-87601921D01*
X144426053Y-87738681D01*
X144542359Y-87854987D01*
X144679119Y-87946367D01*
X144831080Y-88009311D01*
X144839641Y-88011014D01*
X144839642Y-91351029D01*
X144342672Y-91848000D01*
X144206668Y-91848000D01*
X144209387Y-91845281D01*
X144300767Y-91708521D01*
X144363711Y-91556560D01*
X144395800Y-91395240D01*
X144395800Y-91230760D01*
X144363711Y-91069440D01*
X144300767Y-90917479D01*
X144209387Y-90780719D01*
X144093081Y-90664413D01*
X143956321Y-90573033D01*
X143804360Y-90510089D01*
X143795591Y-90508345D01*
X143755020Y-90467774D01*
X143731999Y-90439723D01*
X143620081Y-90347874D01*
X143492394Y-90279624D01*
X143353846Y-90237596D01*
X143245866Y-90226961D01*
X143209761Y-90223405D01*
X143173656Y-90226961D01*
X141440367Y-90226961D01*
X141443267Y-90222621D01*
X141506211Y-90070660D01*
X141507955Y-90061891D01*
X144246536Y-87323310D01*
X144271729Y-87449960D01*
%TA.AperFunction,Conductor*%
D18*
G36*
X144271729Y-87449960D02*
G01*
X144334673Y-87601921D01*
X144426053Y-87738681D01*
X144542359Y-87854987D01*
X144679119Y-87946367D01*
X144831080Y-88009311D01*
X144839641Y-88011014D01*
X144839642Y-91351029D01*
X144342672Y-91848000D01*
X144206668Y-91848000D01*
X144209387Y-91845281D01*
X144300767Y-91708521D01*
X144363711Y-91556560D01*
X144395800Y-91395240D01*
X144395800Y-91230760D01*
X144363711Y-91069440D01*
X144300767Y-90917479D01*
X144209387Y-90780719D01*
X144093081Y-90664413D01*
X143956321Y-90573033D01*
X143804360Y-90510089D01*
X143795591Y-90508345D01*
X143755020Y-90467774D01*
X143731999Y-90439723D01*
X143620081Y-90347874D01*
X143492394Y-90279624D01*
X143353846Y-90237596D01*
X143245866Y-90226961D01*
X143209761Y-90223405D01*
X143173656Y-90226961D01*
X141440367Y-90226961D01*
X141443267Y-90222621D01*
X141506211Y-90070660D01*
X141507955Y-90061891D01*
X144246536Y-87323310D01*
X144271729Y-87449960D01*
G37*
%TD.AperFunction*%
D17*
X143651300Y-83617084D02*
X143651301Y-85839652D01*
X140468509Y-89022445D01*
X140459740Y-89024189D01*
X140307779Y-89087133D01*
X140171019Y-89178513D01*
X140054713Y-89294819D01*
X139963333Y-89431579D01*
X139900389Y-89583540D01*
X139868300Y-89744860D01*
X139868300Y-89909340D01*
X139900389Y-90070660D01*
X139963333Y-90222621D01*
X139966233Y-90226961D01*
X139794926Y-90226961D01*
X139697561Y-90129597D01*
X139697561Y-88629708D01*
X139701117Y-88593603D01*
X139686926Y-88449518D01*
X139668368Y-88388341D01*
X139644898Y-88310970D01*
X139576648Y-88183283D01*
X139484799Y-88071365D01*
X139456754Y-88048349D01*
X137699266Y-86290862D01*
X137750167Y-86239961D01*
X137841547Y-86103201D01*
X137904491Y-85951240D01*
X137936580Y-85789920D01*
X137936580Y-85625440D01*
X137904491Y-85464120D01*
X137841547Y-85312159D01*
X137836580Y-85304725D01*
X137836580Y-84668644D01*
X139918725Y-82586500D01*
X142620717Y-82586500D01*
X143651300Y-83617084D01*
%TA.AperFunction,Conductor*%
D18*
G36*
X143651300Y-83617084D02*
G01*
X143651301Y-85839652D01*
X140468509Y-89022445D01*
X140459740Y-89024189D01*
X140307779Y-89087133D01*
X140171019Y-89178513D01*
X140054713Y-89294819D01*
X139963333Y-89431579D01*
X139900389Y-89583540D01*
X139868300Y-89744860D01*
X139868300Y-89909340D01*
X139900389Y-90070660D01*
X139963333Y-90222621D01*
X139966233Y-90226961D01*
X139794926Y-90226961D01*
X139697561Y-90129597D01*
X139697561Y-88629708D01*
X139701117Y-88593603D01*
X139686926Y-88449518D01*
X139668368Y-88388341D01*
X139644898Y-88310970D01*
X139576648Y-88183283D01*
X139484799Y-88071365D01*
X139456754Y-88048349D01*
X137699266Y-86290862D01*
X137750167Y-86239961D01*
X137841547Y-86103201D01*
X137904491Y-85951240D01*
X137936580Y-85789920D01*
X137936580Y-85625440D01*
X137904491Y-85464120D01*
X137841547Y-85312159D01*
X137836580Y-85304725D01*
X137836580Y-84668644D01*
X139918725Y-82586500D01*
X142620717Y-82586500D01*
X143651300Y-83617084D01*
G37*
%TD.AperFunction*%
D17*
X147591510Y-81084589D02*
X147479568Y-81354842D01*
X147422500Y-81641740D01*
X147422500Y-81934260D01*
X147479568Y-82221158D01*
X147591510Y-82491411D01*
X147754025Y-82734632D01*
X147960868Y-82941475D01*
X148135260Y-83058000D01*
X147960868Y-83174525D01*
X147754025Y-83381368D01*
X147591510Y-83624589D01*
X147509671Y-83822167D01*
X147509671Y-83610365D01*
X147513226Y-83574270D01*
X147509671Y-83538175D01*
X147509671Y-83538166D01*
X147499036Y-83430186D01*
X147457008Y-83291638D01*
X147388758Y-83163951D01*
X147296909Y-83052033D01*
X147268864Y-83029017D01*
X145521022Y-81281175D01*
X145582100Y-81287191D01*
X145804598Y-81265277D01*
X146018546Y-81200376D01*
X146215723Y-81094984D01*
X146388549Y-80953149D01*
X146464256Y-80860900D01*
X147740974Y-80860900D01*
X147591510Y-81084589D01*
%TA.AperFunction,Conductor*%
D18*
G36*
X147591510Y-81084589D02*
G01*
X147479568Y-81354842D01*
X147422500Y-81641740D01*
X147422500Y-81934260D01*
X147479568Y-82221158D01*
X147591510Y-82491411D01*
X147754025Y-82734632D01*
X147960868Y-82941475D01*
X148135260Y-83058000D01*
X147960868Y-83174525D01*
X147754025Y-83381368D01*
X147591510Y-83624589D01*
X147509671Y-83822167D01*
X147509671Y-83610365D01*
X147513226Y-83574270D01*
X147509671Y-83538175D01*
X147509671Y-83538166D01*
X147499036Y-83430186D01*
X147457008Y-83291638D01*
X147388758Y-83163951D01*
X147296909Y-83052033D01*
X147268864Y-83029017D01*
X145521022Y-81281175D01*
X145582100Y-81287191D01*
X145804598Y-81265277D01*
X146018546Y-81200376D01*
X146215723Y-81094984D01*
X146388549Y-80953149D01*
X146464256Y-80860900D01*
X147740974Y-80860900D01*
X147591510Y-81084589D01*
G37*
%TD.AperFunction*%
%TD*%
M02*
