%TF.GenerationSoftware,KiCad,Pcbnew,(5.1.8)-1*%
%TF.CreationDate,2021-02-16T22:48:13+07:00*%
%TF.ProjectId,ArduinoMicroC,41726475-696e-46f4-9d69-63726f432e6b,rev?*%
%TF.SameCoordinates,Original*%
%TF.FileFunction,Copper,L1,Top*%
%TF.FilePolarity,Positive*%
%FSLAX46Y46*%
G04 Gerber Fmt 4.6, Leading zero omitted, Abs format (unit mm)*
G04 Created by KiCad (PCBNEW (5.1.8)-1) date 2021-02-16 22:48:13*
%MOMM*%
%LPD*%
G01*
G04 APERTURE LIST*
%TA.AperFunction,ComponentPad*%
%ADD10R,2.700000X1.700000*%
%TD*%
%TA.AperFunction,ComponentPad*%
%ADD11C,1.700000*%
%TD*%
%TA.AperFunction,SMDPad,CuDef*%
%ADD12R,2.400000X2.000000*%
%TD*%
%TA.AperFunction,SMDPad,CuDef*%
%ADD13R,1.100000X1.100000*%
%TD*%
%TA.AperFunction,ComponentPad*%
%ADD14R,1.700000X2.700000*%
%TD*%
%TA.AperFunction,SMDPad,CuDef*%
%ADD15R,0.600000X1.450000*%
%TD*%
%TA.AperFunction,SMDPad,CuDef*%
%ADD16R,0.300000X1.450000*%
%TD*%
%TA.AperFunction,ComponentPad*%
%ADD17O,1.000000X2.100000*%
%TD*%
%TA.AperFunction,ComponentPad*%
%ADD18O,1.000000X1.600000*%
%TD*%
%TA.AperFunction,ViaPad*%
%ADD19C,0.400000*%
%TD*%
%TA.AperFunction,Conductor*%
%ADD20C,0.200000*%
%TD*%
%TA.AperFunction,Conductor*%
%ADD21C,0.254000*%
%TD*%
%TA.AperFunction,Conductor*%
%ADD22C,0.100000*%
%TD*%
G04 APERTURE END LIST*
D10*
%TO.P,J4,13*%
%TO.N,D-*%
X150257500Y-74168000D03*
%TO.P,J4,12*%
%TO.N,RAW*%
X150257500Y-76708000D03*
%TO.P,J4,11*%
%TO.N,GND*%
X150257500Y-79248000D03*
%TO.P,J4,10*%
%TO.N,RESET*%
X150257500Y-81788000D03*
%TO.P,J4,9*%
%TO.N,VCC*%
X150257500Y-84328000D03*
%TO.P,J4,8*%
%TO.N,A3*%
X150257500Y-86868000D03*
%TO.P,J4,7*%
%TO.N,A2*%
X150257500Y-89408000D03*
%TO.P,J4,6*%
%TO.N,A1*%
X150257500Y-91948000D03*
%TO.P,J4,5*%
%TO.N,A0*%
X150257500Y-94488000D03*
%TO.P,J4,4*%
%TO.N,15*%
X150257500Y-97028000D03*
%TO.P,J4,3*%
%TO.N,14*%
X150257500Y-99568000D03*
%TO.P,J4,2*%
%TO.N,16*%
X150257500Y-102108000D03*
%TO.P,J4,1*%
%TO.N,10*%
X150257500Y-104648000D03*
D11*
%TO.P,J4,13*%
%TO.N,D-*%
X148907500Y-74168000D03*
%TO.P,J4,12*%
%TO.N,RAW*%
X148907500Y-76708000D03*
%TO.P,J4,11*%
%TO.N,GND*%
X148907500Y-79248000D03*
%TO.P,J4,10*%
%TO.N,RESET*%
X148907500Y-81788000D03*
%TO.P,J4,9*%
%TO.N,VCC*%
X148907500Y-84328000D03*
%TO.P,J4,8*%
%TO.N,A3*%
X148907500Y-86868000D03*
%TO.P,J4,7*%
%TO.N,A2*%
X148907500Y-89408000D03*
%TO.P,J4,6*%
%TO.N,A1*%
X148907500Y-91948000D03*
%TO.P,J4,5*%
%TO.N,A0*%
X148907500Y-94488000D03*
%TO.P,J4,4*%
%TO.N,15*%
X148907500Y-97028000D03*
%TO.P,J4,3*%
%TO.N,14*%
X148907500Y-99568000D03*
%TO.P,J4,2*%
%TO.N,16*%
X148907500Y-102108000D03*
%TO.P,J4,1*%
%TO.N,10*%
X148907500Y-104648000D03*
%TD*%
%TO.P,J2,1*%
%TO.N,D+*%
X133658600Y-74168000D03*
%TO.P,J2,2*%
%TO.N,TX*%
X133658600Y-76708000D03*
%TO.P,J2,3*%
%TO.N,RX*%
X133658600Y-79248000D03*
%TO.P,J2,4*%
%TO.N,GND*%
X133658600Y-81788000D03*
%TO.P,J2,5*%
X133658600Y-84328000D03*
%TO.P,J2,6*%
%TO.N,SDA*%
X133658600Y-86868000D03*
%TO.P,J2,7*%
%TO.N,SCL*%
X133658600Y-89408000D03*
%TO.P,J2,8*%
%TO.N,4*%
X133658600Y-91948000D03*
%TO.P,J2,9*%
%TO.N,5*%
X133658600Y-94488000D03*
%TO.P,J2,10*%
%TO.N,6*%
X133658600Y-97028000D03*
%TO.P,J2,11*%
%TO.N,7*%
X133658600Y-99568000D03*
%TO.P,J2,12*%
%TO.N,8*%
X133658600Y-102108000D03*
%TO.P,J2,13*%
%TO.N,9*%
X133658600Y-104648000D03*
D10*
%TO.P,J2,1*%
%TO.N,D+*%
X132308600Y-74168000D03*
%TO.P,J2,2*%
%TO.N,TX*%
X132308600Y-76708000D03*
%TO.P,J2,3*%
%TO.N,RX*%
X132308600Y-79248000D03*
%TO.P,J2,4*%
%TO.N,GND*%
X132308600Y-81788000D03*
%TO.P,J2,5*%
X132308600Y-84328000D03*
%TO.P,J2,6*%
%TO.N,SDA*%
X132308600Y-86868000D03*
%TO.P,J2,7*%
%TO.N,SCL*%
X132308600Y-89408000D03*
%TO.P,J2,8*%
%TO.N,4*%
X132308600Y-91948000D03*
%TO.P,J2,9*%
%TO.N,5*%
X132308600Y-94488000D03*
%TO.P,J2,10*%
%TO.N,6*%
X132308600Y-97028000D03*
%TO.P,J2,11*%
%TO.N,7*%
X132308600Y-99568000D03*
%TO.P,J2,12*%
%TO.N,8*%
X132308600Y-102108000D03*
%TO.P,J2,13*%
%TO.N,9*%
X132308600Y-104648000D03*
%TD*%
%TO.P,R7,2*%
%TO.N,GND*%
%TA.AperFunction,SMDPad,CuDef*%
G36*
G01*
X144280720Y-92573780D02*
X144280720Y-92373780D01*
G75*
G02*
X144380720Y-92273780I100000J0D01*
G01*
X144640720Y-92273780D01*
G75*
G02*
X144740720Y-92373780I0J-100000D01*
G01*
X144740720Y-92573780D01*
G75*
G02*
X144640720Y-92673780I-100000J0D01*
G01*
X144380720Y-92673780D01*
G75*
G02*
X144280720Y-92573780I0J100000D01*
G01*
G37*
%TD.AperFunction*%
%TO.P,R7,1*%
%TO.N,11*%
%TA.AperFunction,SMDPad,CuDef*%
G36*
G01*
X143640720Y-92573780D02*
X143640720Y-92373780D01*
G75*
G02*
X143740720Y-92273780I100000J0D01*
G01*
X144000720Y-92273780D01*
G75*
G02*
X144100720Y-92373780I0J-100000D01*
G01*
X144100720Y-92573780D01*
G75*
G02*
X144000720Y-92673780I-100000J0D01*
G01*
X143740720Y-92673780D01*
G75*
G02*
X143640720Y-92573780I0J100000D01*
G01*
G37*
%TD.AperFunction*%
%TD*%
%TO.P,U2,44*%
%TO.N,VCC*%
%TA.AperFunction,SMDPad,CuDef*%
G36*
G01*
X145155048Y-97180698D02*
X145826800Y-97852450D01*
G75*
G02*
X145826800Y-97940838I-44194J-44194D01*
G01*
X145738412Y-98029226D01*
G75*
G02*
X145650024Y-98029226I-44194J44194D01*
G01*
X144978272Y-97357474D01*
G75*
G02*
X144978272Y-97269086I44194J44194D01*
G01*
X145066660Y-97180698D01*
G75*
G02*
X145155048Y-97180698I44194J-44194D01*
G01*
G37*
%TD.AperFunction*%
%TO.P,U2,43*%
%TO.N,GND*%
%TA.AperFunction,SMDPad,CuDef*%
G36*
G01*
X144801494Y-97534251D02*
X145473246Y-98206003D01*
G75*
G02*
X145473246Y-98294391I-44194J-44194D01*
G01*
X145384858Y-98382779D01*
G75*
G02*
X145296470Y-98382779I-44194J44194D01*
G01*
X144624718Y-97711027D01*
G75*
G02*
X144624718Y-97622639I44194J44194D01*
G01*
X144713106Y-97534251D01*
G75*
G02*
X144801494Y-97534251I44194J-44194D01*
G01*
G37*
%TD.AperFunction*%
%TO.P,U2,42*%
%TO.N,AREF*%
%TA.AperFunction,SMDPad,CuDef*%
G36*
G01*
X144447941Y-97887805D02*
X145119693Y-98559557D01*
G75*
G02*
X145119693Y-98647945I-44194J-44194D01*
G01*
X145031305Y-98736333D01*
G75*
G02*
X144942917Y-98736333I-44194J44194D01*
G01*
X144271165Y-98064581D01*
G75*
G02*
X144271165Y-97976193I44194J44194D01*
G01*
X144359553Y-97887805D01*
G75*
G02*
X144447941Y-97887805I44194J-44194D01*
G01*
G37*
%TD.AperFunction*%
%TO.P,U2,41*%
%TO.N,A5*%
%TA.AperFunction,SMDPad,CuDef*%
G36*
G01*
X144094388Y-98241358D02*
X144766140Y-98913110D01*
G75*
G02*
X144766140Y-99001498I-44194J-44194D01*
G01*
X144677752Y-99089886D01*
G75*
G02*
X144589364Y-99089886I-44194J44194D01*
G01*
X143917612Y-98418134D01*
G75*
G02*
X143917612Y-98329746I44194J44194D01*
G01*
X144006000Y-98241358D01*
G75*
G02*
X144094388Y-98241358I44194J-44194D01*
G01*
G37*
%TD.AperFunction*%
%TO.P,U2,40*%
%TO.N,A4*%
%TA.AperFunction,SMDPad,CuDef*%
G36*
G01*
X143740834Y-98594911D02*
X144412586Y-99266663D01*
G75*
G02*
X144412586Y-99355051I-44194J-44194D01*
G01*
X144324198Y-99443439D01*
G75*
G02*
X144235810Y-99443439I-44194J44194D01*
G01*
X143564058Y-98771687D01*
G75*
G02*
X143564058Y-98683299I44194J44194D01*
G01*
X143652446Y-98594911D01*
G75*
G02*
X143740834Y-98594911I44194J-44194D01*
G01*
G37*
%TD.AperFunction*%
%TO.P,U2,39*%
%TO.N,A3*%
%TA.AperFunction,SMDPad,CuDef*%
G36*
G01*
X143387281Y-98948465D02*
X144059033Y-99620217D01*
G75*
G02*
X144059033Y-99708605I-44194J-44194D01*
G01*
X143970645Y-99796993D01*
G75*
G02*
X143882257Y-99796993I-44194J44194D01*
G01*
X143210505Y-99125241D01*
G75*
G02*
X143210505Y-99036853I44194J44194D01*
G01*
X143298893Y-98948465D01*
G75*
G02*
X143387281Y-98948465I44194J-44194D01*
G01*
G37*
%TD.AperFunction*%
%TO.P,U2,38*%
%TO.N,A2*%
%TA.AperFunction,SMDPad,CuDef*%
G36*
G01*
X143033727Y-99302018D02*
X143705479Y-99973770D01*
G75*
G02*
X143705479Y-100062158I-44194J-44194D01*
G01*
X143617091Y-100150546D01*
G75*
G02*
X143528703Y-100150546I-44194J44194D01*
G01*
X142856951Y-99478794D01*
G75*
G02*
X142856951Y-99390406I44194J44194D01*
G01*
X142945339Y-99302018D01*
G75*
G02*
X143033727Y-99302018I44194J-44194D01*
G01*
G37*
%TD.AperFunction*%
%TO.P,U2,37*%
%TO.N,A1*%
%TA.AperFunction,SMDPad,CuDef*%
G36*
G01*
X142680174Y-99655572D02*
X143351926Y-100327324D01*
G75*
G02*
X143351926Y-100415712I-44194J-44194D01*
G01*
X143263538Y-100504100D01*
G75*
G02*
X143175150Y-100504100I-44194J44194D01*
G01*
X142503398Y-99832348D01*
G75*
G02*
X142503398Y-99743960I44194J44194D01*
G01*
X142591786Y-99655572D01*
G75*
G02*
X142680174Y-99655572I44194J-44194D01*
G01*
G37*
%TD.AperFunction*%
%TO.P,U2,36*%
%TO.N,A0*%
%TA.AperFunction,SMDPad,CuDef*%
G36*
G01*
X142326621Y-100009125D02*
X142998373Y-100680877D01*
G75*
G02*
X142998373Y-100769265I-44194J-44194D01*
G01*
X142909985Y-100857653D01*
G75*
G02*
X142821597Y-100857653I-44194J44194D01*
G01*
X142149845Y-100185901D01*
G75*
G02*
X142149845Y-100097513I44194J44194D01*
G01*
X142238233Y-100009125D01*
G75*
G02*
X142326621Y-100009125I44194J-44194D01*
G01*
G37*
%TD.AperFunction*%
%TO.P,U2,35*%
%TO.N,GND*%
%TA.AperFunction,SMDPad,CuDef*%
G36*
G01*
X141973067Y-100362678D02*
X142644819Y-101034430D01*
G75*
G02*
X142644819Y-101122818I-44194J-44194D01*
G01*
X142556431Y-101211206D01*
G75*
G02*
X142468043Y-101211206I-44194J44194D01*
G01*
X141796291Y-100539454D01*
G75*
G02*
X141796291Y-100451066I44194J44194D01*
G01*
X141884679Y-100362678D01*
G75*
G02*
X141973067Y-100362678I44194J-44194D01*
G01*
G37*
%TD.AperFunction*%
%TO.P,U2,34*%
%TO.N,VCC*%
%TA.AperFunction,SMDPad,CuDef*%
G36*
G01*
X141619514Y-100716232D02*
X142291266Y-101387984D01*
G75*
G02*
X142291266Y-101476372I-44194J-44194D01*
G01*
X142202878Y-101564760D01*
G75*
G02*
X142114490Y-101564760I-44194J44194D01*
G01*
X141442738Y-100893008D01*
G75*
G02*
X141442738Y-100804620I44194J44194D01*
G01*
X141531126Y-100716232D01*
G75*
G02*
X141619514Y-100716232I44194J-44194D01*
G01*
G37*
%TD.AperFunction*%
%TO.P,U2,33*%
%TO.N,Net-(R6-Pad1)*%
%TA.AperFunction,SMDPad,CuDef*%
G36*
G01*
X141018474Y-100716232D02*
X141106862Y-100804620D01*
G75*
G02*
X141106862Y-100893008I-44194J-44194D01*
G01*
X140435110Y-101564760D01*
G75*
G02*
X140346722Y-101564760I-44194J44194D01*
G01*
X140258334Y-101476372D01*
G75*
G02*
X140258334Y-101387984I44194J44194D01*
G01*
X140930086Y-100716232D01*
G75*
G02*
X141018474Y-100716232I44194J-44194D01*
G01*
G37*
%TD.AperFunction*%
%TO.P,U2,32*%
%TO.N,13*%
%TA.AperFunction,SMDPad,CuDef*%
G36*
G01*
X140664921Y-100362678D02*
X140753309Y-100451066D01*
G75*
G02*
X140753309Y-100539454I-44194J-44194D01*
G01*
X140081557Y-101211206D01*
G75*
G02*
X139993169Y-101211206I-44194J44194D01*
G01*
X139904781Y-101122818D01*
G75*
G02*
X139904781Y-101034430I44194J44194D01*
G01*
X140576533Y-100362678D01*
G75*
G02*
X140664921Y-100362678I44194J-44194D01*
G01*
G37*
%TD.AperFunction*%
%TO.P,U2,31*%
%TO.N,5*%
%TA.AperFunction,SMDPad,CuDef*%
G36*
G01*
X140311367Y-100009125D02*
X140399755Y-100097513D01*
G75*
G02*
X140399755Y-100185901I-44194J-44194D01*
G01*
X139728003Y-100857653D01*
G75*
G02*
X139639615Y-100857653I-44194J44194D01*
G01*
X139551227Y-100769265D01*
G75*
G02*
X139551227Y-100680877I44194J44194D01*
G01*
X140222979Y-100009125D01*
G75*
G02*
X140311367Y-100009125I44194J-44194D01*
G01*
G37*
%TD.AperFunction*%
%TO.P,U2,30*%
%TO.N,10*%
%TA.AperFunction,SMDPad,CuDef*%
G36*
G01*
X139957814Y-99655572D02*
X140046202Y-99743960D01*
G75*
G02*
X140046202Y-99832348I-44194J-44194D01*
G01*
X139374450Y-100504100D01*
G75*
G02*
X139286062Y-100504100I-44194J44194D01*
G01*
X139197674Y-100415712D01*
G75*
G02*
X139197674Y-100327324I44194J44194D01*
G01*
X139869426Y-99655572D01*
G75*
G02*
X139957814Y-99655572I44194J-44194D01*
G01*
G37*
%TD.AperFunction*%
%TO.P,U2,29*%
%TO.N,9*%
%TA.AperFunction,SMDPad,CuDef*%
G36*
G01*
X139604261Y-99302018D02*
X139692649Y-99390406D01*
G75*
G02*
X139692649Y-99478794I-44194J-44194D01*
G01*
X139020897Y-100150546D01*
G75*
G02*
X138932509Y-100150546I-44194J44194D01*
G01*
X138844121Y-100062158D01*
G75*
G02*
X138844121Y-99973770I44194J44194D01*
G01*
X139515873Y-99302018D01*
G75*
G02*
X139604261Y-99302018I44194J-44194D01*
G01*
G37*
%TD.AperFunction*%
%TO.P,U2,28*%
%TO.N,8*%
%TA.AperFunction,SMDPad,CuDef*%
G36*
G01*
X139250707Y-98948465D02*
X139339095Y-99036853D01*
G75*
G02*
X139339095Y-99125241I-44194J-44194D01*
G01*
X138667343Y-99796993D01*
G75*
G02*
X138578955Y-99796993I-44194J44194D01*
G01*
X138490567Y-99708605D01*
G75*
G02*
X138490567Y-99620217I44194J44194D01*
G01*
X139162319Y-98948465D01*
G75*
G02*
X139250707Y-98948465I44194J-44194D01*
G01*
G37*
%TD.AperFunction*%
%TO.P,U2,27*%
%TO.N,6*%
%TA.AperFunction,SMDPad,CuDef*%
G36*
G01*
X138897154Y-98594911D02*
X138985542Y-98683299D01*
G75*
G02*
X138985542Y-98771687I-44194J-44194D01*
G01*
X138313790Y-99443439D01*
G75*
G02*
X138225402Y-99443439I-44194J44194D01*
G01*
X138137014Y-99355051D01*
G75*
G02*
X138137014Y-99266663I44194J44194D01*
G01*
X138808766Y-98594911D01*
G75*
G02*
X138897154Y-98594911I44194J-44194D01*
G01*
G37*
%TD.AperFunction*%
%TO.P,U2,26*%
%TO.N,12*%
%TA.AperFunction,SMDPad,CuDef*%
G36*
G01*
X138543600Y-98241358D02*
X138631988Y-98329746D01*
G75*
G02*
X138631988Y-98418134I-44194J-44194D01*
G01*
X137960236Y-99089886D01*
G75*
G02*
X137871848Y-99089886I-44194J44194D01*
G01*
X137783460Y-99001498D01*
G75*
G02*
X137783460Y-98913110I44194J44194D01*
G01*
X138455212Y-98241358D01*
G75*
G02*
X138543600Y-98241358I44194J-44194D01*
G01*
G37*
%TD.AperFunction*%
%TO.P,U2,25*%
%TO.N,4*%
%TA.AperFunction,SMDPad,CuDef*%
G36*
G01*
X138190047Y-97887805D02*
X138278435Y-97976193D01*
G75*
G02*
X138278435Y-98064581I-44194J-44194D01*
G01*
X137606683Y-98736333D01*
G75*
G02*
X137518295Y-98736333I-44194J44194D01*
G01*
X137429907Y-98647945D01*
G75*
G02*
X137429907Y-98559557I44194J44194D01*
G01*
X138101659Y-97887805D01*
G75*
G02*
X138190047Y-97887805I44194J-44194D01*
G01*
G37*
%TD.AperFunction*%
%TO.P,U2,24*%
%TO.N,VCC*%
%TA.AperFunction,SMDPad,CuDef*%
G36*
G01*
X137836494Y-97534251D02*
X137924882Y-97622639D01*
G75*
G02*
X137924882Y-97711027I-44194J-44194D01*
G01*
X137253130Y-98382779D01*
G75*
G02*
X137164742Y-98382779I-44194J44194D01*
G01*
X137076354Y-98294391D01*
G75*
G02*
X137076354Y-98206003I44194J44194D01*
G01*
X137748106Y-97534251D01*
G75*
G02*
X137836494Y-97534251I44194J-44194D01*
G01*
G37*
%TD.AperFunction*%
%TO.P,U2,23*%
%TO.N,GND*%
%TA.AperFunction,SMDPad,CuDef*%
G36*
G01*
X137482940Y-97180698D02*
X137571328Y-97269086D01*
G75*
G02*
X137571328Y-97357474I-44194J-44194D01*
G01*
X136899576Y-98029226D01*
G75*
G02*
X136811188Y-98029226I-44194J44194D01*
G01*
X136722800Y-97940838D01*
G75*
G02*
X136722800Y-97852450I44194J44194D01*
G01*
X137394552Y-97180698D01*
G75*
G02*
X137482940Y-97180698I44194J-44194D01*
G01*
G37*
%TD.AperFunction*%
%TO.P,U2,22*%
%TO.N,Net-(U2-Pad22)*%
%TA.AperFunction,SMDPad,CuDef*%
G36*
G01*
X136899576Y-95996294D02*
X137571328Y-96668046D01*
G75*
G02*
X137571328Y-96756434I-44194J-44194D01*
G01*
X137482940Y-96844822D01*
G75*
G02*
X137394552Y-96844822I-44194J44194D01*
G01*
X136722800Y-96173070D01*
G75*
G02*
X136722800Y-96084682I44194J44194D01*
G01*
X136811188Y-95996294D01*
G75*
G02*
X136899576Y-95996294I44194J-44194D01*
G01*
G37*
%TD.AperFunction*%
%TO.P,U2,21*%
%TO.N,TX*%
%TA.AperFunction,SMDPad,CuDef*%
G36*
G01*
X137253130Y-95642741D02*
X137924882Y-96314493D01*
G75*
G02*
X137924882Y-96402881I-44194J-44194D01*
G01*
X137836494Y-96491269D01*
G75*
G02*
X137748106Y-96491269I-44194J44194D01*
G01*
X137076354Y-95819517D01*
G75*
G02*
X137076354Y-95731129I44194J44194D01*
G01*
X137164742Y-95642741D01*
G75*
G02*
X137253130Y-95642741I44194J-44194D01*
G01*
G37*
%TD.AperFunction*%
%TO.P,U2,20*%
%TO.N,RX*%
%TA.AperFunction,SMDPad,CuDef*%
G36*
G01*
X137606683Y-95289187D02*
X138278435Y-95960939D01*
G75*
G02*
X138278435Y-96049327I-44194J-44194D01*
G01*
X138190047Y-96137715D01*
G75*
G02*
X138101659Y-96137715I-44194J44194D01*
G01*
X137429907Y-95465963D01*
G75*
G02*
X137429907Y-95377575I44194J44194D01*
G01*
X137518295Y-95289187D01*
G75*
G02*
X137606683Y-95289187I44194J-44194D01*
G01*
G37*
%TD.AperFunction*%
%TO.P,U2,19*%
%TO.N,SDA*%
%TA.AperFunction,SMDPad,CuDef*%
G36*
G01*
X137960236Y-94935634D02*
X138631988Y-95607386D01*
G75*
G02*
X138631988Y-95695774I-44194J-44194D01*
G01*
X138543600Y-95784162D01*
G75*
G02*
X138455212Y-95784162I-44194J44194D01*
G01*
X137783460Y-95112410D01*
G75*
G02*
X137783460Y-95024022I44194J44194D01*
G01*
X137871848Y-94935634D01*
G75*
G02*
X137960236Y-94935634I44194J-44194D01*
G01*
G37*
%TD.AperFunction*%
%TO.P,U2,18*%
%TO.N,SCL*%
%TA.AperFunction,SMDPad,CuDef*%
G36*
G01*
X138313790Y-94582081D02*
X138985542Y-95253833D01*
G75*
G02*
X138985542Y-95342221I-44194J-44194D01*
G01*
X138897154Y-95430609D01*
G75*
G02*
X138808766Y-95430609I-44194J44194D01*
G01*
X138137014Y-94758857D01*
G75*
G02*
X138137014Y-94670469I44194J44194D01*
G01*
X138225402Y-94582081D01*
G75*
G02*
X138313790Y-94582081I44194J-44194D01*
G01*
G37*
%TD.AperFunction*%
%TO.P,U2,17*%
%TO.N,Net-(C4-Pad2)*%
%TA.AperFunction,SMDPad,CuDef*%
G36*
G01*
X138667343Y-94228527D02*
X139339095Y-94900279D01*
G75*
G02*
X139339095Y-94988667I-44194J-44194D01*
G01*
X139250707Y-95077055D01*
G75*
G02*
X139162319Y-95077055I-44194J44194D01*
G01*
X138490567Y-94405303D01*
G75*
G02*
X138490567Y-94316915I44194J44194D01*
G01*
X138578955Y-94228527D01*
G75*
G02*
X138667343Y-94228527I44194J-44194D01*
G01*
G37*
%TD.AperFunction*%
%TO.P,U2,16*%
%TO.N,Net-(C5-Pad2)*%
%TA.AperFunction,SMDPad,CuDef*%
G36*
G01*
X139020897Y-93874974D02*
X139692649Y-94546726D01*
G75*
G02*
X139692649Y-94635114I-44194J-44194D01*
G01*
X139604261Y-94723502D01*
G75*
G02*
X139515873Y-94723502I-44194J44194D01*
G01*
X138844121Y-94051750D01*
G75*
G02*
X138844121Y-93963362I44194J44194D01*
G01*
X138932509Y-93874974D01*
G75*
G02*
X139020897Y-93874974I44194J-44194D01*
G01*
G37*
%TD.AperFunction*%
%TO.P,U2,15*%
%TO.N,GND*%
%TA.AperFunction,SMDPad,CuDef*%
G36*
G01*
X139374450Y-93521420D02*
X140046202Y-94193172D01*
G75*
G02*
X140046202Y-94281560I-44194J-44194D01*
G01*
X139957814Y-94369948D01*
G75*
G02*
X139869426Y-94369948I-44194J44194D01*
G01*
X139197674Y-93698196D01*
G75*
G02*
X139197674Y-93609808I44194J44194D01*
G01*
X139286062Y-93521420D01*
G75*
G02*
X139374450Y-93521420I44194J-44194D01*
G01*
G37*
%TD.AperFunction*%
%TO.P,U2,14*%
%TO.N,VCC*%
%TA.AperFunction,SMDPad,CuDef*%
G36*
G01*
X139728003Y-93167867D02*
X140399755Y-93839619D01*
G75*
G02*
X140399755Y-93928007I-44194J-44194D01*
G01*
X140311367Y-94016395D01*
G75*
G02*
X140222979Y-94016395I-44194J44194D01*
G01*
X139551227Y-93344643D01*
G75*
G02*
X139551227Y-93256255I44194J44194D01*
G01*
X139639615Y-93167867D01*
G75*
G02*
X139728003Y-93167867I44194J-44194D01*
G01*
G37*
%TD.AperFunction*%
%TO.P,U2,13*%
%TO.N,RESET*%
%TA.AperFunction,SMDPad,CuDef*%
G36*
G01*
X140081557Y-92814314D02*
X140753309Y-93486066D01*
G75*
G02*
X140753309Y-93574454I-44194J-44194D01*
G01*
X140664921Y-93662842D01*
G75*
G02*
X140576533Y-93662842I-44194J44194D01*
G01*
X139904781Y-92991090D01*
G75*
G02*
X139904781Y-92902702I44194J44194D01*
G01*
X139993169Y-92814314D01*
G75*
G02*
X140081557Y-92814314I44194J-44194D01*
G01*
G37*
%TD.AperFunction*%
%TO.P,U2,12*%
%TO.N,11*%
%TA.AperFunction,SMDPad,CuDef*%
G36*
G01*
X140435110Y-92460760D02*
X141106862Y-93132512D01*
G75*
G02*
X141106862Y-93220900I-44194J-44194D01*
G01*
X141018474Y-93309288D01*
G75*
G02*
X140930086Y-93309288I-44194J44194D01*
G01*
X140258334Y-92637536D01*
G75*
G02*
X140258334Y-92549148I44194J44194D01*
G01*
X140346722Y-92460760D01*
G75*
G02*
X140435110Y-92460760I44194J-44194D01*
G01*
G37*
%TD.AperFunction*%
%TO.P,U2,11*%
%TO.N,14*%
%TA.AperFunction,SMDPad,CuDef*%
G36*
G01*
X142202878Y-92460760D02*
X142291266Y-92549148D01*
G75*
G02*
X142291266Y-92637536I-44194J-44194D01*
G01*
X141619514Y-93309288D01*
G75*
G02*
X141531126Y-93309288I-44194J44194D01*
G01*
X141442738Y-93220900D01*
G75*
G02*
X141442738Y-93132512I44194J44194D01*
G01*
X142114490Y-92460760D01*
G75*
G02*
X142202878Y-92460760I44194J-44194D01*
G01*
G37*
%TD.AperFunction*%
%TO.P,U2,10*%
%TO.N,16*%
%TA.AperFunction,SMDPad,CuDef*%
G36*
G01*
X142556431Y-92814314D02*
X142644819Y-92902702D01*
G75*
G02*
X142644819Y-92991090I-44194J-44194D01*
G01*
X141973067Y-93662842D01*
G75*
G02*
X141884679Y-93662842I-44194J44194D01*
G01*
X141796291Y-93574454D01*
G75*
G02*
X141796291Y-93486066I44194J44194D01*
G01*
X142468043Y-92814314D01*
G75*
G02*
X142556431Y-92814314I44194J-44194D01*
G01*
G37*
%TD.AperFunction*%
%TO.P,U2,9*%
%TO.N,15*%
%TA.AperFunction,SMDPad,CuDef*%
G36*
G01*
X142909985Y-93167867D02*
X142998373Y-93256255D01*
G75*
G02*
X142998373Y-93344643I-44194J-44194D01*
G01*
X142326621Y-94016395D01*
G75*
G02*
X142238233Y-94016395I-44194J44194D01*
G01*
X142149845Y-93928007D01*
G75*
G02*
X142149845Y-93839619I44194J44194D01*
G01*
X142821597Y-93167867D01*
G75*
G02*
X142909985Y-93167867I44194J-44194D01*
G01*
G37*
%TD.AperFunction*%
%TO.P,U2,8*%
%TO.N,17*%
%TA.AperFunction,SMDPad,CuDef*%
G36*
G01*
X143263538Y-93521420D02*
X143351926Y-93609808D01*
G75*
G02*
X143351926Y-93698196I-44194J-44194D01*
G01*
X142680174Y-94369948D01*
G75*
G02*
X142591786Y-94369948I-44194J44194D01*
G01*
X142503398Y-94281560D01*
G75*
G02*
X142503398Y-94193172I44194J44194D01*
G01*
X143175150Y-93521420D01*
G75*
G02*
X143263538Y-93521420I44194J-44194D01*
G01*
G37*
%TD.AperFunction*%
%TO.P,U2,7*%
%TO.N,VBUS*%
%TA.AperFunction,SMDPad,CuDef*%
G36*
G01*
X143617091Y-93874974D02*
X143705479Y-93963362D01*
G75*
G02*
X143705479Y-94051750I-44194J-44194D01*
G01*
X143033727Y-94723502D01*
G75*
G02*
X142945339Y-94723502I-44194J44194D01*
G01*
X142856951Y-94635114D01*
G75*
G02*
X142856951Y-94546726I44194J44194D01*
G01*
X143528703Y-93874974D01*
G75*
G02*
X143617091Y-93874974I44194J-44194D01*
G01*
G37*
%TD.AperFunction*%
%TO.P,U2,6*%
%TO.N,Net-(C7-Pad2)*%
%TA.AperFunction,SMDPad,CuDef*%
G36*
G01*
X143970645Y-94228527D02*
X144059033Y-94316915D01*
G75*
G02*
X144059033Y-94405303I-44194J-44194D01*
G01*
X143387281Y-95077055D01*
G75*
G02*
X143298893Y-95077055I-44194J44194D01*
G01*
X143210505Y-94988667D01*
G75*
G02*
X143210505Y-94900279I44194J44194D01*
G01*
X143882257Y-94228527D01*
G75*
G02*
X143970645Y-94228527I44194J-44194D01*
G01*
G37*
%TD.AperFunction*%
%TO.P,U2,5*%
%TO.N,GND*%
%TA.AperFunction,SMDPad,CuDef*%
G36*
G01*
X144324198Y-94582081D02*
X144412586Y-94670469D01*
G75*
G02*
X144412586Y-94758857I-44194J-44194D01*
G01*
X143740834Y-95430609D01*
G75*
G02*
X143652446Y-95430609I-44194J44194D01*
G01*
X143564058Y-95342221D01*
G75*
G02*
X143564058Y-95253833I44194J44194D01*
G01*
X144235810Y-94582081D01*
G75*
G02*
X144324198Y-94582081I44194J-44194D01*
G01*
G37*
%TD.AperFunction*%
%TO.P,U2,4*%
%TO.N,C_D+*%
%TA.AperFunction,SMDPad,CuDef*%
G36*
G01*
X144677752Y-94935634D02*
X144766140Y-95024022D01*
G75*
G02*
X144766140Y-95112410I-44194J-44194D01*
G01*
X144094388Y-95784162D01*
G75*
G02*
X144006000Y-95784162I-44194J44194D01*
G01*
X143917612Y-95695774D01*
G75*
G02*
X143917612Y-95607386I44194J44194D01*
G01*
X144589364Y-94935634D01*
G75*
G02*
X144677752Y-94935634I44194J-44194D01*
G01*
G37*
%TD.AperFunction*%
%TO.P,U2,3*%
%TO.N,C_D-*%
%TA.AperFunction,SMDPad,CuDef*%
G36*
G01*
X145031305Y-95289187D02*
X145119693Y-95377575D01*
G75*
G02*
X145119693Y-95465963I-44194J-44194D01*
G01*
X144447941Y-96137715D01*
G75*
G02*
X144359553Y-96137715I-44194J44194D01*
G01*
X144271165Y-96049327D01*
G75*
G02*
X144271165Y-95960939I44194J44194D01*
G01*
X144942917Y-95289187D01*
G75*
G02*
X145031305Y-95289187I44194J-44194D01*
G01*
G37*
%TD.AperFunction*%
%TO.P,U2,2*%
%TO.N,VBUS*%
%TA.AperFunction,SMDPad,CuDef*%
G36*
G01*
X145384858Y-95642741D02*
X145473246Y-95731129D01*
G75*
G02*
X145473246Y-95819517I-44194J-44194D01*
G01*
X144801494Y-96491269D01*
G75*
G02*
X144713106Y-96491269I-44194J44194D01*
G01*
X144624718Y-96402881D01*
G75*
G02*
X144624718Y-96314493I44194J44194D01*
G01*
X145296470Y-95642741D01*
G75*
G02*
X145384858Y-95642741I44194J-44194D01*
G01*
G37*
%TD.AperFunction*%
%TO.P,U2,1*%
%TO.N,7*%
%TA.AperFunction,SMDPad,CuDef*%
G36*
G01*
X145738412Y-95996294D02*
X145826800Y-96084682D01*
G75*
G02*
X145826800Y-96173070I-44194J-44194D01*
G01*
X145155048Y-96844822D01*
G75*
G02*
X145066660Y-96844822I-44194J44194D01*
G01*
X144978272Y-96756434D01*
G75*
G02*
X144978272Y-96668046I44194J44194D01*
G01*
X145650024Y-95996294D01*
G75*
G02*
X145738412Y-95996294I44194J-44194D01*
G01*
G37*
%TD.AperFunction*%
%TD*%
%TO.P,C7,2*%
%TO.N,Net-(C7-Pad2)*%
%TA.AperFunction,SMDPad,CuDef*%
G36*
G01*
X145669660Y-92410460D02*
X145669660Y-92750460D01*
G75*
G02*
X145529660Y-92890460I-140000J0D01*
G01*
X145249660Y-92890460D01*
G75*
G02*
X145109660Y-92750460I0J140000D01*
G01*
X145109660Y-92410460D01*
G75*
G02*
X145249660Y-92270460I140000J0D01*
G01*
X145529660Y-92270460D01*
G75*
G02*
X145669660Y-92410460I0J-140000D01*
G01*
G37*
%TD.AperFunction*%
%TO.P,C7,1*%
%TO.N,GND*%
%TA.AperFunction,SMDPad,CuDef*%
G36*
G01*
X146629660Y-92410460D02*
X146629660Y-92750460D01*
G75*
G02*
X146489660Y-92890460I-140000J0D01*
G01*
X146209660Y-92890460D01*
G75*
G02*
X146069660Y-92750460I0J140000D01*
G01*
X146069660Y-92410460D01*
G75*
G02*
X146209660Y-92270460I140000J0D01*
G01*
X146489660Y-92270460D01*
G75*
G02*
X146629660Y-92410460I0J-140000D01*
G01*
G37*
%TD.AperFunction*%
%TD*%
%TO.P,C5,2*%
%TO.N,Net-(C5-Pad2)*%
%TA.AperFunction,SMDPad,CuDef*%
G36*
G01*
X137001860Y-94444640D02*
X137001860Y-94104640D01*
G75*
G02*
X137141860Y-93964640I140000J0D01*
G01*
X137421860Y-93964640D01*
G75*
G02*
X137561860Y-94104640I0J-140000D01*
G01*
X137561860Y-94444640D01*
G75*
G02*
X137421860Y-94584640I-140000J0D01*
G01*
X137141860Y-94584640D01*
G75*
G02*
X137001860Y-94444640I0J140000D01*
G01*
G37*
%TD.AperFunction*%
%TO.P,C5,1*%
%TO.N,GND*%
%TA.AperFunction,SMDPad,CuDef*%
G36*
G01*
X136041860Y-94444640D02*
X136041860Y-94104640D01*
G75*
G02*
X136181860Y-93964640I140000J0D01*
G01*
X136461860Y-93964640D01*
G75*
G02*
X136601860Y-94104640I0J-140000D01*
G01*
X136601860Y-94444640D01*
G75*
G02*
X136461860Y-94584640I-140000J0D01*
G01*
X136181860Y-94584640D01*
G75*
G02*
X136041860Y-94444640I0J140000D01*
G01*
G37*
%TD.AperFunction*%
%TD*%
%TO.P,C4,2*%
%TO.N,Net-(C4-Pad2)*%
%TA.AperFunction,SMDPad,CuDef*%
G36*
G01*
X136601860Y-93114040D02*
X136601860Y-93454040D01*
G75*
G02*
X136461860Y-93594040I-140000J0D01*
G01*
X136181860Y-93594040D01*
G75*
G02*
X136041860Y-93454040I0J140000D01*
G01*
X136041860Y-93114040D01*
G75*
G02*
X136181860Y-92974040I140000J0D01*
G01*
X136461860Y-92974040D01*
G75*
G02*
X136601860Y-93114040I0J-140000D01*
G01*
G37*
%TD.AperFunction*%
%TO.P,C4,1*%
%TO.N,GND*%
%TA.AperFunction,SMDPad,CuDef*%
G36*
G01*
X137561860Y-93114040D02*
X137561860Y-93454040D01*
G75*
G02*
X137421860Y-93594040I-140000J0D01*
G01*
X137141860Y-93594040D01*
G75*
G02*
X137001860Y-93454040I0J140000D01*
G01*
X137001860Y-93114040D01*
G75*
G02*
X137141860Y-92974040I140000J0D01*
G01*
X137421860Y-92974040D01*
G75*
G02*
X137561860Y-93114040I0J-140000D01*
G01*
G37*
%TD.AperFunction*%
%TD*%
%TO.P,D2,2*%
%TO.N,Net-(D2-Pad2)*%
%TA.AperFunction,SMDPad,CuDef*%
G36*
G01*
X139902980Y-89786960D02*
X139557980Y-89786960D01*
G75*
G02*
X139410480Y-89639460I0J147500D01*
G01*
X139410480Y-89344460D01*
G75*
G02*
X139557980Y-89196960I147500J0D01*
G01*
X139902980Y-89196960D01*
G75*
G02*
X140050480Y-89344460I0J-147500D01*
G01*
X140050480Y-89639460D01*
G75*
G02*
X139902980Y-89786960I-147500J0D01*
G01*
G37*
%TD.AperFunction*%
%TO.P,D2,1*%
%TO.N,GND*%
%TA.AperFunction,SMDPad,CuDef*%
G36*
G01*
X139902980Y-90756960D02*
X139557980Y-90756960D01*
G75*
G02*
X139410480Y-90609460I0J147500D01*
G01*
X139410480Y-90314460D01*
G75*
G02*
X139557980Y-90166960I147500J0D01*
G01*
X139902980Y-90166960D01*
G75*
G02*
X140050480Y-90314460I0J-147500D01*
G01*
X140050480Y-90609460D01*
G75*
G02*
X139902980Y-90756960I-147500J0D01*
G01*
G37*
%TD.AperFunction*%
%TD*%
%TO.P,C2,2*%
%TO.N,GND*%
%TA.AperFunction,SMDPad,CuDef*%
G36*
G01*
X142616100Y-90166800D02*
X142956100Y-90166800D01*
G75*
G02*
X143096100Y-90306800I0J-140000D01*
G01*
X143096100Y-90586800D01*
G75*
G02*
X142956100Y-90726800I-140000J0D01*
G01*
X142616100Y-90726800D01*
G75*
G02*
X142476100Y-90586800I0J140000D01*
G01*
X142476100Y-90306800D01*
G75*
G02*
X142616100Y-90166800I140000J0D01*
G01*
G37*
%TD.AperFunction*%
%TO.P,C2,1*%
%TO.N,Net-(C2-Pad1)*%
%TA.AperFunction,SMDPad,CuDef*%
G36*
G01*
X142616100Y-89206800D02*
X142956100Y-89206800D01*
G75*
G02*
X143096100Y-89346800I0J-140000D01*
G01*
X143096100Y-89626800D01*
G75*
G02*
X142956100Y-89766800I-140000J0D01*
G01*
X142616100Y-89766800D01*
G75*
G02*
X142476100Y-89626800I0J140000D01*
G01*
X142476100Y-89346800D01*
G75*
G02*
X142616100Y-89206800I140000J0D01*
G01*
G37*
%TD.AperFunction*%
%TD*%
D12*
%TO.P,Y1,2*%
%TO.N,Net-(C4-Pad2)*%
X137360660Y-87817080D03*
%TO.P,Y1,1*%
%TO.N,Net-(C5-Pad2)*%
X137360660Y-91517080D03*
%TD*%
%TO.P,SW2,1*%
%TO.N,RESET*%
%TA.AperFunction,SMDPad,CuDef*%
G36*
G01*
X144274640Y-86806400D02*
X145874640Y-86806400D01*
G75*
G02*
X146074640Y-87006400I0J-200000D01*
G01*
X146074640Y-87406400D01*
G75*
G02*
X145874640Y-87606400I-200000J0D01*
G01*
X144274640Y-87606400D01*
G75*
G02*
X144074640Y-87406400I0J200000D01*
G01*
X144074640Y-87006400D01*
G75*
G02*
X144274640Y-86806400I200000J0D01*
G01*
G37*
%TD.AperFunction*%
%TO.P,SW2,2*%
%TO.N,GND*%
%TA.AperFunction,SMDPad,CuDef*%
G36*
G01*
X144274640Y-91006400D02*
X145874640Y-91006400D01*
G75*
G02*
X146074640Y-91206400I0J-200000D01*
G01*
X146074640Y-91606400D01*
G75*
G02*
X145874640Y-91806400I-200000J0D01*
G01*
X144274640Y-91806400D01*
G75*
G02*
X144074640Y-91606400I0J200000D01*
G01*
X144074640Y-91206400D01*
G75*
G02*
X144274640Y-91006400I200000J0D01*
G01*
G37*
%TD.AperFunction*%
%TD*%
%TO.P,U1,5*%
%TO.N,VCC*%
%TA.AperFunction,SMDPad,CuDef*%
G36*
G01*
X141747260Y-86486980D02*
X141747260Y-86186980D01*
G75*
G02*
X141897260Y-86036980I150000J0D01*
G01*
X142922260Y-86036980D01*
G75*
G02*
X143072260Y-86186980I0J-150000D01*
G01*
X143072260Y-86486980D01*
G75*
G02*
X142922260Y-86636980I-150000J0D01*
G01*
X141897260Y-86636980D01*
G75*
G02*
X141747260Y-86486980I0J150000D01*
G01*
G37*
%TD.AperFunction*%
%TO.P,U1,4*%
%TO.N,Net-(C2-Pad1)*%
%TA.AperFunction,SMDPad,CuDef*%
G36*
G01*
X141747260Y-88386980D02*
X141747260Y-88086980D01*
G75*
G02*
X141897260Y-87936980I150000J0D01*
G01*
X142922260Y-87936980D01*
G75*
G02*
X143072260Y-88086980I0J-150000D01*
G01*
X143072260Y-88386980D01*
G75*
G02*
X142922260Y-88536980I-150000J0D01*
G01*
X141897260Y-88536980D01*
G75*
G02*
X141747260Y-88386980I0J150000D01*
G01*
G37*
%TD.AperFunction*%
%TO.P,U1,3*%
%TO.N,RAW*%
%TA.AperFunction,SMDPad,CuDef*%
G36*
G01*
X139472260Y-88386980D02*
X139472260Y-88086980D01*
G75*
G02*
X139622260Y-87936980I150000J0D01*
G01*
X140647260Y-87936980D01*
G75*
G02*
X140797260Y-88086980I0J-150000D01*
G01*
X140797260Y-88386980D01*
G75*
G02*
X140647260Y-88536980I-150000J0D01*
G01*
X139622260Y-88536980D01*
G75*
G02*
X139472260Y-88386980I0J150000D01*
G01*
G37*
%TD.AperFunction*%
%TO.P,U1,2*%
%TO.N,GND*%
%TA.AperFunction,SMDPad,CuDef*%
G36*
G01*
X139472260Y-87436980D02*
X139472260Y-87136980D01*
G75*
G02*
X139622260Y-86986980I150000J0D01*
G01*
X140647260Y-86986980D01*
G75*
G02*
X140797260Y-87136980I0J-150000D01*
G01*
X140797260Y-87436980D01*
G75*
G02*
X140647260Y-87586980I-150000J0D01*
G01*
X139622260Y-87586980D01*
G75*
G02*
X139472260Y-87436980I0J150000D01*
G01*
G37*
%TD.AperFunction*%
%TO.P,U1,1*%
%TO.N,RAW*%
%TA.AperFunction,SMDPad,CuDef*%
G36*
G01*
X139472260Y-86486980D02*
X139472260Y-86186980D01*
G75*
G02*
X139622260Y-86036980I150000J0D01*
G01*
X140647260Y-86036980D01*
G75*
G02*
X140797260Y-86186980I0J-150000D01*
G01*
X140797260Y-86486980D01*
G75*
G02*
X140647260Y-86636980I-150000J0D01*
G01*
X139622260Y-86636980D01*
G75*
G02*
X139472260Y-86486980I0J150000D01*
G01*
G37*
%TD.AperFunction*%
%TD*%
%TO.P,F1,2*%
%TO.N,Net-(D1-Pad2)*%
%TA.AperFunction,SMDPad,CuDef*%
G36*
G01*
X140816010Y-84236980D02*
X141728510Y-84236980D01*
G75*
G02*
X141972260Y-84480730I0J-243750D01*
G01*
X141972260Y-84968230D01*
G75*
G02*
X141728510Y-85211980I-243750J0D01*
G01*
X140816010Y-85211980D01*
G75*
G02*
X140572260Y-84968230I0J243750D01*
G01*
X140572260Y-84480730D01*
G75*
G02*
X140816010Y-84236980I243750J0D01*
G01*
G37*
%TD.AperFunction*%
%TO.P,F1,1*%
%TO.N,VBUS*%
%TA.AperFunction,SMDPad,CuDef*%
G36*
G01*
X140816010Y-82361980D02*
X141728510Y-82361980D01*
G75*
G02*
X141972260Y-82605730I0J-243750D01*
G01*
X141972260Y-83093230D01*
G75*
G02*
X141728510Y-83336980I-243750J0D01*
G01*
X140816010Y-83336980D01*
G75*
G02*
X140572260Y-83093230I0J243750D01*
G01*
X140572260Y-82605730D01*
G75*
G02*
X140816010Y-82361980I243750J0D01*
G01*
G37*
%TD.AperFunction*%
%TD*%
%TO.P,C3,2*%
%TO.N,GND*%
%TA.AperFunction,SMDPad,CuDef*%
G36*
G01*
X143525921Y-83479760D02*
X142975919Y-83479760D01*
G75*
G02*
X142725920Y-83229761I0J249999D01*
G01*
X142725920Y-82604759D01*
G75*
G02*
X142975919Y-82354760I249999J0D01*
G01*
X143525921Y-82354760D01*
G75*
G02*
X143775920Y-82604759I0J-249999D01*
G01*
X143775920Y-83229761D01*
G75*
G02*
X143525921Y-83479760I-249999J0D01*
G01*
G37*
%TD.AperFunction*%
%TO.P,C3,1*%
%TO.N,VCC*%
%TA.AperFunction,SMDPad,CuDef*%
G36*
G01*
X143525921Y-85254760D02*
X142975919Y-85254760D01*
G75*
G02*
X142725920Y-85004761I0J249999D01*
G01*
X142725920Y-84379759D01*
G75*
G02*
X142975919Y-84129760I249999J0D01*
G01*
X143525921Y-84129760D01*
G75*
G02*
X143775920Y-84379759I0J-249999D01*
G01*
X143775920Y-85004761D01*
G75*
G02*
X143525921Y-85254760I-249999J0D01*
G01*
G37*
%TD.AperFunction*%
%TD*%
D13*
%TO.P,D3,2*%
%TO.N,Net-(D1-Pad2)*%
X145440400Y-82905140D03*
%TO.P,D3,1*%
%TO.N,RAW*%
X145440400Y-85705140D03*
%TD*%
%TO.P,C1,2*%
%TO.N,GND*%
%TA.AperFunction,SMDPad,CuDef*%
G36*
G01*
X139563521Y-83479760D02*
X139013519Y-83479760D01*
G75*
G02*
X138763520Y-83229761I0J249999D01*
G01*
X138763520Y-82604759D01*
G75*
G02*
X139013519Y-82354760I249999J0D01*
G01*
X139563521Y-82354760D01*
G75*
G02*
X139813520Y-82604759I0J-249999D01*
G01*
X139813520Y-83229761D01*
G75*
G02*
X139563521Y-83479760I-249999J0D01*
G01*
G37*
%TD.AperFunction*%
%TO.P,C1,1*%
%TO.N,RAW*%
%TA.AperFunction,SMDPad,CuDef*%
G36*
G01*
X139563521Y-85254760D02*
X139013519Y-85254760D01*
G75*
G02*
X138763520Y-85004761I0J249999D01*
G01*
X138763520Y-84379759D01*
G75*
G02*
X139013519Y-84129760I249999J0D01*
G01*
X139563521Y-84129760D01*
G75*
G02*
X139813520Y-84379759I0J-249999D01*
G01*
X139813520Y-85004761D01*
G75*
G02*
X139563521Y-85254760I-249999J0D01*
G01*
G37*
%TD.AperFunction*%
%TD*%
%TO.P,C6,2*%
%TO.N,AREF*%
%TA.AperFunction,SMDPad,CuDef*%
G36*
G01*
X145839000Y-99634700D02*
X145499000Y-99634700D01*
G75*
G02*
X145359000Y-99494700I0J140000D01*
G01*
X145359000Y-99214700D01*
G75*
G02*
X145499000Y-99074700I140000J0D01*
G01*
X145839000Y-99074700D01*
G75*
G02*
X145979000Y-99214700I0J-140000D01*
G01*
X145979000Y-99494700D01*
G75*
G02*
X145839000Y-99634700I-140000J0D01*
G01*
G37*
%TD.AperFunction*%
%TO.P,C6,1*%
%TO.N,GND*%
%TA.AperFunction,SMDPad,CuDef*%
G36*
G01*
X145839000Y-100594700D02*
X145499000Y-100594700D01*
G75*
G02*
X145359000Y-100454700I0J140000D01*
G01*
X145359000Y-100174700D01*
G75*
G02*
X145499000Y-100034700I140000J0D01*
G01*
X145839000Y-100034700D01*
G75*
G02*
X145979000Y-100174700I0J-140000D01*
G01*
X145979000Y-100454700D01*
G75*
G02*
X145839000Y-100594700I-140000J0D01*
G01*
G37*
%TD.AperFunction*%
%TD*%
D14*
%TO.P,J3,5*%
%TO.N,17*%
X146357340Y-105996740D03*
%TO.P,J3,4*%
%TO.N,A5*%
X143817340Y-105996740D03*
%TO.P,J3,3*%
%TO.N,A4*%
X141277340Y-105996740D03*
%TO.P,J3,2*%
%TO.N,13*%
X138737340Y-105996740D03*
%TO.P,J3,1*%
%TO.N,12*%
X136197340Y-105996740D03*
D11*
%TO.P,J3,5*%
%TO.N,17*%
X146357340Y-104646740D03*
%TO.P,J3,4*%
%TO.N,A5*%
X143817340Y-104646740D03*
%TO.P,J3,3*%
%TO.N,A4*%
X141277340Y-104646740D03*
%TO.P,J3,2*%
%TO.N,13*%
X138737340Y-104646740D03*
%TO.P,J3,1*%
%TO.N,12*%
X136197340Y-104646740D03*
%TD*%
D13*
%TO.P,D1,2*%
%TO.N,Net-(D1-Pad2)*%
X137101580Y-82907680D03*
%TO.P,D1,1*%
%TO.N,Net-(D1-Pad1)*%
X137101580Y-85707680D03*
%TD*%
%TO.P,C8,2*%
%TO.N,GND*%
%TA.AperFunction,SMDPad,CuDef*%
G36*
G01*
X146476900Y-100034700D02*
X146816900Y-100034700D01*
G75*
G02*
X146956900Y-100174700I0J-140000D01*
G01*
X146956900Y-100454700D01*
G75*
G02*
X146816900Y-100594700I-140000J0D01*
G01*
X146476900Y-100594700D01*
G75*
G02*
X146336900Y-100454700I0J140000D01*
G01*
X146336900Y-100174700D01*
G75*
G02*
X146476900Y-100034700I140000J0D01*
G01*
G37*
%TD.AperFunction*%
%TO.P,C8,1*%
%TO.N,VBUS*%
%TA.AperFunction,SMDPad,CuDef*%
G36*
G01*
X146476900Y-99074700D02*
X146816900Y-99074700D01*
G75*
G02*
X146956900Y-99214700I0J-140000D01*
G01*
X146956900Y-99494700D01*
G75*
G02*
X146816900Y-99634700I-140000J0D01*
G01*
X146476900Y-99634700D01*
G75*
G02*
X146336900Y-99494700I0J140000D01*
G01*
X146336900Y-99214700D01*
G75*
G02*
X146476900Y-99074700I140000J0D01*
G01*
G37*
%TD.AperFunction*%
%TD*%
D15*
%TO.P,J1,B1*%
%TO.N,GND*%
X138012100Y-80511700D03*
%TO.P,J1,A9*%
%TO.N,VBUS*%
X138812100Y-80511700D03*
%TO.P,J1,B9*%
X143712100Y-80511700D03*
%TO.P,J1,B12*%
%TO.N,GND*%
X144512100Y-80511700D03*
%TO.P,J1,A1*%
X144512100Y-80511700D03*
%TO.P,J1,A4*%
%TO.N,VBUS*%
X143712100Y-80511700D03*
%TO.P,J1,B4*%
X138812100Y-80511700D03*
%TO.P,J1,A12*%
%TO.N,GND*%
X138012100Y-80511700D03*
D16*
%TO.P,J1,B8*%
%TO.N,Net-(J1-PadB8)*%
X143012100Y-80511700D03*
%TO.P,J1,A5*%
%TO.N,Net-(J1-PadA5)*%
X142512100Y-80511700D03*
%TO.P,J1,B7*%
%TO.N,D-*%
X142012100Y-80511700D03*
%TO.P,J1,A7*%
X141012100Y-80511700D03*
%TO.P,J1,B6*%
%TO.N,D+*%
X140512100Y-80511700D03*
%TO.P,J1,A8*%
%TO.N,Net-(J1-PadA8)*%
X140012100Y-80511700D03*
%TO.P,J1,B5*%
%TO.N,Net-(J1-PadA5)*%
X139512100Y-80511700D03*
%TO.P,J1,A6*%
%TO.N,D+*%
X141512100Y-80511700D03*
D17*
%TO.P,J1,S1*%
%TO.N,Net-(J1-PadS1)*%
X136942100Y-79596700D03*
X145582100Y-79596700D03*
D18*
X145582100Y-75416700D03*
X136942100Y-75416700D03*
%TD*%
%TO.P,R3,2*%
%TO.N,GND*%
%TA.AperFunction,SMDPad,CuDef*%
G36*
G01*
X142442100Y-91213000D02*
X142442100Y-91413000D01*
G75*
G02*
X142342100Y-91513000I-100000J0D01*
G01*
X142082100Y-91513000D01*
G75*
G02*
X141982100Y-91413000I0J100000D01*
G01*
X141982100Y-91213000D01*
G75*
G02*
X142082100Y-91113000I100000J0D01*
G01*
X142342100Y-91113000D01*
G75*
G02*
X142442100Y-91213000I0J-100000D01*
G01*
G37*
%TD.AperFunction*%
%TO.P,R3,1*%
%TO.N,Net-(J1-PadA5)*%
%TA.AperFunction,SMDPad,CuDef*%
G36*
G01*
X143082100Y-91213000D02*
X143082100Y-91413000D01*
G75*
G02*
X142982100Y-91513000I-100000J0D01*
G01*
X142722100Y-91513000D01*
G75*
G02*
X142622100Y-91413000I0J100000D01*
G01*
X142622100Y-91213000D01*
G75*
G02*
X142722100Y-91113000I100000J0D01*
G01*
X142982100Y-91113000D01*
G75*
G02*
X143082100Y-91213000I0J-100000D01*
G01*
G37*
%TD.AperFunction*%
%TD*%
%TO.P,R5,2*%
%TO.N,RESET*%
%TA.AperFunction,SMDPad,CuDef*%
G36*
G01*
X140094800Y-91413000D02*
X140094800Y-91213000D01*
G75*
G02*
X140194800Y-91113000I100000J0D01*
G01*
X140454800Y-91113000D01*
G75*
G02*
X140554800Y-91213000I0J-100000D01*
G01*
X140554800Y-91413000D01*
G75*
G02*
X140454800Y-91513000I-100000J0D01*
G01*
X140194800Y-91513000D01*
G75*
G02*
X140094800Y-91413000I0J100000D01*
G01*
G37*
%TD.AperFunction*%
%TO.P,R5,1*%
%TO.N,VCC*%
%TA.AperFunction,SMDPad,CuDef*%
G36*
G01*
X139454800Y-91413000D02*
X139454800Y-91213000D01*
G75*
G02*
X139554800Y-91113000I100000J0D01*
G01*
X139814800Y-91113000D01*
G75*
G02*
X139914800Y-91213000I0J-100000D01*
G01*
X139914800Y-91413000D01*
G75*
G02*
X139814800Y-91513000I-100000J0D01*
G01*
X139554800Y-91513000D01*
G75*
G02*
X139454800Y-91413000I0J100000D01*
G01*
G37*
%TD.AperFunction*%
%TD*%
%TO.P,R10,2*%
%TO.N,Net-(D1-Pad1)*%
%TA.AperFunction,SMDPad,CuDef*%
G36*
G01*
X140803300Y-90054600D02*
X140603300Y-90054600D01*
G75*
G02*
X140503300Y-89954600I0J100000D01*
G01*
X140503300Y-89694600D01*
G75*
G02*
X140603300Y-89594600I100000J0D01*
G01*
X140803300Y-89594600D01*
G75*
G02*
X140903300Y-89694600I0J-100000D01*
G01*
X140903300Y-89954600D01*
G75*
G02*
X140803300Y-90054600I-100000J0D01*
G01*
G37*
%TD.AperFunction*%
%TO.P,R10,1*%
%TO.N,11*%
%TA.AperFunction,SMDPad,CuDef*%
G36*
G01*
X140803300Y-90694600D02*
X140603300Y-90694600D01*
G75*
G02*
X140503300Y-90594600I0J100000D01*
G01*
X140503300Y-90334600D01*
G75*
G02*
X140603300Y-90234600I100000J0D01*
G01*
X140803300Y-90234600D01*
G75*
G02*
X140903300Y-90334600I0J-100000D01*
G01*
X140903300Y-90594600D01*
G75*
G02*
X140803300Y-90694600I-100000J0D01*
G01*
G37*
%TD.AperFunction*%
%TD*%
%TO.P,R6,2*%
%TO.N,GND*%
%TA.AperFunction,SMDPad,CuDef*%
G36*
G01*
X139474210Y-102205068D02*
X139615632Y-102346490D01*
G75*
G02*
X139615632Y-102487912I-70711J-70711D01*
G01*
X139431784Y-102671760D01*
G75*
G02*
X139290362Y-102671760I-70711J70711D01*
G01*
X139148940Y-102530338D01*
G75*
G02*
X139148940Y-102388916I70711J70711D01*
G01*
X139332788Y-102205068D01*
G75*
G02*
X139474210Y-102205068I70711J-70711D01*
G01*
G37*
%TD.AperFunction*%
%TO.P,R6,1*%
%TO.N,Net-(R6-Pad1)*%
%TA.AperFunction,SMDPad,CuDef*%
G36*
G01*
X139926758Y-101752520D02*
X140068180Y-101893942D01*
G75*
G02*
X140068180Y-102035364I-70711J-70711D01*
G01*
X139884332Y-102219212D01*
G75*
G02*
X139742910Y-102219212I-70711J70711D01*
G01*
X139601488Y-102077790D01*
G75*
G02*
X139601488Y-101936368I70711J70711D01*
G01*
X139785336Y-101752520D01*
G75*
G02*
X139926758Y-101752520I70711J-70711D01*
G01*
G37*
%TD.AperFunction*%
%TD*%
%TO.P,R4,2*%
%TO.N,Net-(D2-Pad2)*%
%TA.AperFunction,SMDPad,CuDef*%
G36*
G01*
X141720900Y-90234600D02*
X141920900Y-90234600D01*
G75*
G02*
X142020900Y-90334600I0J-100000D01*
G01*
X142020900Y-90594600D01*
G75*
G02*
X141920900Y-90694600I-100000J0D01*
G01*
X141720900Y-90694600D01*
G75*
G02*
X141620900Y-90594600I0J100000D01*
G01*
X141620900Y-90334600D01*
G75*
G02*
X141720900Y-90234600I100000J0D01*
G01*
G37*
%TD.AperFunction*%
%TO.P,R4,1*%
%TO.N,VCC*%
%TA.AperFunction,SMDPad,CuDef*%
G36*
G01*
X141720900Y-89594600D02*
X141920900Y-89594600D01*
G75*
G02*
X142020900Y-89694600I0J-100000D01*
G01*
X142020900Y-89954600D01*
G75*
G02*
X141920900Y-90054600I-100000J0D01*
G01*
X141720900Y-90054600D01*
G75*
G02*
X141620900Y-89954600I0J100000D01*
G01*
X141620900Y-89694600D01*
G75*
G02*
X141720900Y-89594600I100000J0D01*
G01*
G37*
%TD.AperFunction*%
%TD*%
%TO.P,R2,2*%
%TO.N,C_D-*%
%TA.AperFunction,SMDPad,CuDef*%
G36*
G01*
X146150660Y-93915060D02*
X146350660Y-93915060D01*
G75*
G02*
X146450660Y-94015060I0J-100000D01*
G01*
X146450660Y-94275060D01*
G75*
G02*
X146350660Y-94375060I-100000J0D01*
G01*
X146150660Y-94375060D01*
G75*
G02*
X146050660Y-94275060I0J100000D01*
G01*
X146050660Y-94015060D01*
G75*
G02*
X146150660Y-93915060I100000J0D01*
G01*
G37*
%TD.AperFunction*%
%TO.P,R2,1*%
%TO.N,D-*%
%TA.AperFunction,SMDPad,CuDef*%
G36*
G01*
X146150660Y-93275060D02*
X146350660Y-93275060D01*
G75*
G02*
X146450660Y-93375060I0J-100000D01*
G01*
X146450660Y-93635060D01*
G75*
G02*
X146350660Y-93735060I-100000J0D01*
G01*
X146150660Y-93735060D01*
G75*
G02*
X146050660Y-93635060I0J100000D01*
G01*
X146050660Y-93375060D01*
G75*
G02*
X146150660Y-93275060I100000J0D01*
G01*
G37*
%TD.AperFunction*%
%TD*%
%TO.P,R1,2*%
%TO.N,C_D+*%
%TA.AperFunction,SMDPad,CuDef*%
G36*
G01*
X145388660Y-93915060D02*
X145588660Y-93915060D01*
G75*
G02*
X145688660Y-94015060I0J-100000D01*
G01*
X145688660Y-94275060D01*
G75*
G02*
X145588660Y-94375060I-100000J0D01*
G01*
X145388660Y-94375060D01*
G75*
G02*
X145288660Y-94275060I0J100000D01*
G01*
X145288660Y-94015060D01*
G75*
G02*
X145388660Y-93915060I100000J0D01*
G01*
G37*
%TD.AperFunction*%
%TO.P,R1,1*%
%TO.N,D+*%
%TA.AperFunction,SMDPad,CuDef*%
G36*
G01*
X145388660Y-93275060D02*
X145588660Y-93275060D01*
G75*
G02*
X145688660Y-93375060I0J-100000D01*
G01*
X145688660Y-93635060D01*
G75*
G02*
X145588660Y-93735060I-100000J0D01*
G01*
X145388660Y-93735060D01*
G75*
G02*
X145288660Y-93635060I0J100000D01*
G01*
X145288660Y-93375060D01*
G75*
G02*
X145388660Y-93275060I100000J0D01*
G01*
G37*
%TD.AperFunction*%
%TD*%
D19*
%TO.N,GND*%
X136290756Y-94305744D03*
X137129386Y-97587284D03*
X143494760Y-95498920D03*
X143497300Y-97356041D03*
X142891689Y-102091311D03*
X146646900Y-100314700D03*
X145074640Y-91406400D03*
X140134760Y-87286980D03*
X139288520Y-82917260D03*
X143250920Y-82917260D03*
X139730480Y-90461960D03*
X138789128Y-93112874D03*
X144512100Y-80511700D03*
%TO.N,Net-(C4-Pad2)*%
X137342880Y-87856060D03*
X136329420Y-89617081D03*
X138259632Y-93997593D03*
%TO.N,Net-(C7-Pad2)*%
X144010720Y-93106240D03*
X145389660Y-92580460D03*
%TO.N,VBUS*%
X143712100Y-80511700D03*
X146004058Y-95132472D03*
%TO.N,Net-(J1-PadA5)*%
X143560800Y-91313000D03*
X139509500Y-79514700D03*
%TO.N,RX*%
X136558364Y-95470871D03*
%TO.N,TX*%
X138087100Y-96647000D03*
%TO.N,RESET*%
X145074640Y-87206400D03*
X140909179Y-91951336D03*
%TO.N,A3*%
X141998700Y-97856041D03*
%TO.N,A2*%
X145681700Y-101333300D03*
X144068800Y-100507800D03*
%TO.N,A1*%
X141972347Y-98602800D03*
%TO.N,A0*%
X141972347Y-99345914D03*
%TO.N,D+*%
X145491200Y-93510100D03*
X140512101Y-79593049D03*
%TO.N,D-*%
X146253200Y-93510100D03*
X142012099Y-79593049D03*
%TO.N,SCL*%
X139098020Y-95534480D03*
%TO.N,Net-(D1-Pad1)*%
X140703300Y-89827100D03*
X137101580Y-85707680D03*
%TO.N,5*%
X139023439Y-101264871D03*
X136973492Y-99193768D03*
%TO.N,7*%
X146035828Y-95790486D03*
%TO.N,13*%
X139616273Y-101379144D03*
%TO.N,12*%
X136721787Y-100152580D03*
%TO.N,10*%
X142314569Y-102630331D03*
%TO.N,17*%
X140070867Y-97425451D03*
%TO.N,16*%
X140572337Y-96517460D03*
%TO.N,15*%
X141983460Y-94127320D03*
%TO.N,14*%
X141849324Y-92867346D03*
%TD*%
D20*
%TO.N,GND*%
X134217100Y-82337600D02*
X133667500Y-81788000D01*
X137281860Y-93314640D02*
X136321860Y-94274640D01*
X144510720Y-91970320D02*
X145074640Y-91406400D01*
X144510720Y-92473780D02*
X144510720Y-91970320D01*
X145175600Y-91406400D02*
X145074640Y-91406400D01*
X146349660Y-92580460D02*
X145175600Y-91406400D01*
X144510720Y-94483947D02*
X143988322Y-95006345D01*
X144510720Y-92473780D02*
X144510720Y-94483947D01*
X136321860Y-94274640D02*
X136290756Y-94305744D01*
X137582547Y-97169479D02*
X137147064Y-97604962D01*
X138614618Y-97169479D02*
X137582547Y-97169479D01*
X138012100Y-81640840D02*
X138012100Y-80511700D01*
X139288520Y-82917260D02*
X138012100Y-81640840D01*
X144512100Y-81656080D02*
X144512100Y-80511700D01*
X143250920Y-82917260D02*
X144512100Y-81656080D01*
X143494760Y-95498920D02*
X143495747Y-95498920D01*
X143495747Y-95498920D02*
X143988322Y-95006345D01*
X144446508Y-97356041D02*
X145048982Y-97958515D01*
X143497300Y-97356041D02*
X144446508Y-97356041D01*
X142891689Y-101458076D02*
X142891689Y-102091311D01*
X142220555Y-100786942D02*
X142891689Y-101458076D01*
X145669000Y-100314700D02*
X146646900Y-100314700D01*
X141036286Y-102579836D02*
X141524811Y-102091311D01*
X139523708Y-102579836D02*
X141036286Y-102579836D01*
X139382286Y-102438414D02*
X139523708Y-102579836D01*
X142891689Y-102091311D02*
X141524811Y-102091311D01*
X142212100Y-91020800D02*
X142786100Y-90446800D01*
X142212100Y-91313000D02*
X142212100Y-91020800D01*
X144115040Y-90446800D02*
X145074640Y-91406400D01*
X142786100Y-90446800D02*
X144115040Y-90446800D01*
X139621938Y-93945684D02*
X138789128Y-93112874D01*
X140010965Y-94334711D02*
X139621938Y-93945684D01*
X140010965Y-95773132D02*
X140010965Y-94334711D01*
X138614618Y-97169479D02*
X140010965Y-95773132D01*
X141605155Y-97356041D02*
X140881100Y-98080096D01*
X140881100Y-99447487D02*
X142220555Y-100786942D01*
X140881100Y-98080096D02*
X140881100Y-99447487D01*
X143497300Y-97356041D02*
X141605155Y-97356041D01*
%TO.N,RAW*%
X139288520Y-85490740D02*
X140134760Y-86336980D01*
X139288520Y-84692260D02*
X139288520Y-85490740D01*
X139472260Y-88236980D02*
X140134760Y-88236980D01*
X139172250Y-87936970D02*
X139472260Y-88236980D01*
X139172250Y-86636990D02*
X139172250Y-87936970D01*
X139472260Y-86336980D02*
X139172250Y-86636990D01*
X140134760Y-86336980D02*
X139472260Y-86336980D01*
X137246158Y-84692260D02*
X139288520Y-84692260D01*
X137246158Y-84692260D02*
X135674100Y-83120202D01*
X135674100Y-83120202D02*
X135674100Y-78244700D01*
X137210800Y-76708000D02*
X148907500Y-76708000D01*
X135674100Y-78244700D02*
X137210800Y-76708000D01*
X148907500Y-76708000D02*
X147015200Y-78600300D01*
X147015200Y-84130340D02*
X145440400Y-85705140D01*
X147015200Y-78600300D02*
X147015200Y-84130340D01*
%TO.N,Net-(C2-Pad1)*%
X142786100Y-88613320D02*
X142409760Y-88236980D01*
X142786100Y-89486800D02*
X142786100Y-88613320D01*
%TO.N,VCC*%
X143250920Y-85495820D02*
X142409760Y-86336980D01*
X143250920Y-84692260D02*
X143250920Y-85495820D01*
X140410975Y-94027615D02*
X139975491Y-93592131D01*
X140410975Y-95938820D02*
X140410975Y-94027615D01*
X145402520Y-97604962D02*
X145402536Y-97604962D01*
X144653599Y-96856041D02*
X145402520Y-97604962D01*
X142146733Y-96856041D02*
X144653599Y-96856041D01*
X141539457Y-96856041D02*
X140470046Y-97925452D01*
X142146733Y-96856041D02*
X141539457Y-96856041D01*
X140470046Y-99743524D02*
X141867002Y-101140480D01*
X141867002Y-101140480D02*
X141867002Y-101140496D01*
X140470046Y-97925452D02*
X140470046Y-99743524D01*
X139260671Y-92877311D02*
X139975491Y-93592131D01*
X139260671Y-91737129D02*
X139684800Y-91313000D01*
X139260671Y-92877311D02*
X139260671Y-91737129D01*
X142409760Y-86336980D02*
X141300200Y-87446540D01*
X139684800Y-91313000D02*
X139357100Y-91313000D01*
X139357100Y-91313000D02*
X138988800Y-90944700D01*
X138988800Y-90944700D02*
X138988800Y-89179400D01*
X138988800Y-89179400D02*
X139293600Y-88874600D01*
X141300200Y-87446540D02*
X141300200Y-88874600D01*
X139293600Y-88874600D02*
X141300200Y-88874600D01*
X141820900Y-89395300D02*
X141820900Y-89824600D01*
X141300200Y-88874600D02*
X141820900Y-89395300D01*
X137889644Y-97569489D02*
X137500618Y-97958515D01*
X138780307Y-97569489D02*
X137889644Y-97569489D01*
X140410975Y-95938821D02*
X138780307Y-97569489D01*
X140410975Y-95938820D02*
X140410975Y-95938821D01*
X139136270Y-97925452D02*
X140470046Y-97925452D01*
X138780307Y-97569489D02*
X139136270Y-97925452D01*
X142409760Y-86336980D02*
X144325080Y-88252300D01*
X148907500Y-85165998D02*
X148907500Y-84328000D01*
X145821198Y-88252300D02*
X148907500Y-85165998D01*
X144325080Y-88252300D02*
X145821198Y-88252300D01*
%TO.N,Net-(C4-Pad2)*%
X137360660Y-87838280D02*
X137342880Y-87856060D01*
X137360660Y-87817080D02*
X137360660Y-87838280D01*
X138914830Y-94652791D02*
X138259632Y-93997593D01*
X138914831Y-94652791D02*
X138914830Y-94652791D01*
X136329420Y-89617081D02*
X135677509Y-90268992D01*
X135677509Y-92639689D02*
X136321860Y-93284040D01*
X135677509Y-90268992D02*
X135677509Y-92639689D01*
%TO.N,Net-(C5-Pad2)*%
X137360660Y-91517080D02*
X137360660Y-92391513D01*
X137861870Y-93694630D02*
X137861870Y-92892724D01*
X137281860Y-94274640D02*
X137861870Y-93694630D01*
X137456403Y-92487257D02*
X139268385Y-94299238D01*
X137360660Y-92391513D02*
X137456403Y-92487257D01*
%TO.N,AREF*%
X145669000Y-99285640D02*
X144695429Y-98312069D01*
X145669000Y-99354700D02*
X145669000Y-99285640D01*
%TO.N,Net-(C7-Pad2)*%
X144023795Y-93857398D02*
X144010720Y-93844323D01*
X144010720Y-93844323D02*
X144010720Y-93106240D01*
X144023795Y-94263765D02*
X144023795Y-93857398D01*
X143634769Y-94652791D02*
X144023795Y-94263765D01*
%TO.N,VBUS*%
X144659956Y-96456031D02*
X145048982Y-96067005D01*
X143711869Y-96456031D02*
X144659956Y-96456031D01*
X142892189Y-95636351D02*
X143711869Y-96456031D01*
X142892189Y-94688264D02*
X143281215Y-94299238D01*
X142892189Y-95636351D02*
X142892189Y-94688264D01*
X143712100Y-81436700D02*
X143712100Y-80511700D01*
X143094050Y-82054750D02*
X143712100Y-81436700D01*
X142066990Y-82054750D02*
X143094050Y-82054750D01*
X141272260Y-82849480D02*
X142066990Y-82054750D01*
X138812100Y-81436700D02*
X138812100Y-80511700D01*
X139430150Y-82054750D02*
X138812100Y-81436700D01*
X140477530Y-82054750D02*
X139430150Y-82054750D01*
X141272260Y-82849480D02*
X140477530Y-82054750D01*
X145983515Y-95132472D02*
X145048982Y-96067005D01*
X146004058Y-95132472D02*
X145983515Y-95132472D01*
X146646900Y-95492472D02*
X146646900Y-99354700D01*
X146286900Y-95132472D02*
X146646900Y-95492472D01*
X146004058Y-95132472D02*
X146286900Y-95132472D01*
%TO.N,Net-(D1-Pad2)*%
X140377530Y-83829750D02*
X141272260Y-84724480D01*
X138023650Y-83829750D02*
X140377530Y-83829750D01*
X137101580Y-82907680D02*
X138023650Y-83829750D01*
X142166990Y-83829750D02*
X141272260Y-84724480D01*
X144515790Y-83829750D02*
X142166990Y-83829750D01*
X145440400Y-82905140D02*
X144515790Y-83829750D01*
%TO.N,Net-(D2-Pad2)*%
X140968992Y-89294590D02*
X141262100Y-89587698D01*
X139927850Y-89294590D02*
X139730480Y-89491960D01*
X140968992Y-89294590D02*
X139927850Y-89294590D01*
X141262100Y-89587698D02*
X141262100Y-90309700D01*
X141417000Y-90464600D02*
X141820900Y-90464600D01*
X141262100Y-90309700D02*
X141417000Y-90464600D01*
%TO.N,Net-(J1-PadA5)*%
X142852100Y-91313000D02*
X143560800Y-91313000D01*
X139512100Y-79517300D02*
X139509500Y-79514700D01*
X139512100Y-80511700D02*
X139512100Y-79517300D01*
X142512100Y-79353048D02*
X142512100Y-80511700D01*
X142152092Y-78993040D02*
X142512100Y-79353048D01*
X140031160Y-78993040D02*
X142152092Y-78993040D01*
X139509500Y-79514700D02*
X140031160Y-78993040D01*
%TO.N,Net-(J1-PadS1)*%
X136942100Y-75416700D02*
X145582100Y-75416700D01*
%TO.N,RX*%
X137465145Y-95324425D02*
X137854171Y-95713451D01*
X136704810Y-95324425D02*
X136558364Y-95470871D01*
X137465145Y-95324425D02*
X136704810Y-95324425D01*
%TO.N,TX*%
X138080613Y-96647000D02*
X137500618Y-96067005D01*
X138087100Y-96647000D02*
X138080613Y-96647000D01*
%TO.N,RESET*%
X140324800Y-91366957D02*
X140909179Y-91951336D01*
X140324800Y-91313000D02*
X140324800Y-91366957D01*
X139940018Y-92849551D02*
X140329045Y-93238578D01*
X140324800Y-91468702D02*
X140324800Y-91313000D01*
X139940018Y-91853484D02*
X140324800Y-91468702D01*
X139940018Y-92849551D02*
X139940018Y-91853484D01*
X145579142Y-87206400D02*
X145074640Y-87206400D01*
X147415210Y-85370332D02*
X145579142Y-87206400D01*
X147415210Y-83280290D02*
X147415210Y-85370332D01*
X148907500Y-81788000D02*
X147415210Y-83280290D01*
%TO.N,A3*%
X142118081Y-97856041D02*
X143634769Y-99372729D01*
X141998700Y-97856041D02*
X142118081Y-97856041D01*
%TO.N,A2*%
X148907500Y-89408000D02*
X147256910Y-91058590D01*
X147256910Y-100636960D02*
X146560570Y-101333300D01*
X147256910Y-91058590D02*
X147256910Y-100636960D01*
X146560570Y-101333300D02*
X145681700Y-101333300D01*
X144062733Y-100507800D02*
X143281215Y-99726282D01*
X144068800Y-100507800D02*
X144062733Y-100507800D01*
%TO.N,A1*%
X142472349Y-99624523D02*
X142927662Y-100079836D01*
X142472349Y-99102802D02*
X142472349Y-99624523D01*
X141972347Y-98602800D02*
X142472349Y-99102802D01*
%TO.N,A0*%
X148907500Y-94488000D02*
X148830890Y-94411390D01*
X148907500Y-94488000D02*
X148729700Y-94310200D01*
X142574109Y-100433389D02*
X142574109Y-100433485D01*
X141972347Y-99831627D02*
X142574109Y-100433389D01*
X141972347Y-99345914D02*
X141972347Y-99831627D01*
%TO.N,A5*%
X144968811Y-99292557D02*
X144341876Y-98665622D01*
X144968811Y-103495269D02*
X144968811Y-99292557D01*
X143817340Y-104646740D02*
X144968811Y-103495269D01*
%TO.N,A4*%
X144568801Y-101355279D02*
X141277340Y-104646740D01*
X144568801Y-99599654D02*
X143988322Y-99019175D01*
X144568801Y-101355279D02*
X144568801Y-99599654D01*
%TO.N,D+*%
X140512100Y-79593050D02*
X140512101Y-79593049D01*
X140512100Y-80511700D02*
X140512100Y-79593050D01*
X140712100Y-79393050D02*
X140512101Y-79593049D01*
X141308452Y-79393050D02*
X140712100Y-79393050D01*
X141512098Y-79596696D02*
X141308452Y-79393050D01*
X141512098Y-80511698D02*
X141512098Y-79596696D01*
X141512100Y-80511700D02*
X141512098Y-80511698D01*
%TO.N,D-*%
X142012100Y-79593050D02*
X142012099Y-79593049D01*
X142012100Y-80511700D02*
X142012100Y-79593050D01*
X141012100Y-80511700D02*
X141012100Y-81499900D01*
X141012100Y-81499900D02*
X141338300Y-81826100D01*
X142012100Y-81543941D02*
X142012100Y-80511700D01*
X141729941Y-81826100D02*
X142012100Y-81543941D01*
X141338300Y-81826100D02*
X141729941Y-81826100D01*
%TO.N,Net-(R6-Pad1)*%
X140680204Y-101140496D02*
X139834834Y-101985866D01*
X140682598Y-101140496D02*
X140680204Y-101140496D01*
%TO.N,SDA*%
X138101674Y-95359898D02*
X137626426Y-94884650D01*
X135999600Y-94884650D02*
X135741850Y-94626900D01*
X138207724Y-95359898D02*
X138101674Y-95359898D01*
X135741850Y-93456652D02*
X135741850Y-94626900D01*
X137626426Y-94884650D02*
X135999600Y-94884650D01*
X135277499Y-88486899D02*
X135277499Y-92992301D01*
X135277499Y-92992301D02*
X135741850Y-93456652D01*
X133658600Y-86868000D02*
X135277499Y-88486899D01*
%TO.N,SCL*%
X139089413Y-95534480D02*
X138561278Y-95006345D01*
X139098020Y-95534480D02*
X139089413Y-95534480D01*
%TO.N,Net-(D1-Pad1)*%
X140703300Y-89824600D02*
X140703300Y-89827100D01*
%TO.N,4*%
X133667500Y-91948000D02*
X135341840Y-93622340D01*
X137465145Y-98701095D02*
X137854171Y-98312069D01*
X137058777Y-98701095D02*
X137465145Y-98701095D01*
X135341840Y-96984158D02*
X137058777Y-98701095D01*
X135341840Y-93622340D02*
X135341840Y-96984158D01*
%TO.N,5*%
X139465894Y-100822416D02*
X139023439Y-101264871D01*
X139586464Y-100822416D02*
X139465894Y-100822416D01*
X139975491Y-100433389D02*
X139586464Y-100822416D01*
X134817501Y-97037777D02*
X136973492Y-99193768D01*
X134817501Y-95638001D02*
X134817501Y-97037777D01*
X133667500Y-94488000D02*
X134817501Y-95638001D01*
%TO.N,6*%
X133667500Y-97838295D02*
X136481786Y-100652581D01*
X133667500Y-97028000D02*
X133667500Y-97838295D01*
X136961788Y-100652581D02*
X138561278Y-99053091D01*
X138561278Y-99053091D02*
X138561278Y-99019175D01*
X136481786Y-100652581D02*
X136961788Y-100652581D01*
%TO.N,7*%
X146032608Y-95790486D02*
X145402536Y-96420558D01*
X146035828Y-95790486D02*
X146032608Y-95790486D01*
%TO.N,8*%
X136179560Y-102108000D02*
X138914831Y-99372729D01*
X133667500Y-102108000D02*
X136179560Y-102108000D01*
%TO.N,9*%
X139256328Y-99726282D02*
X139268385Y-99726282D01*
X133667500Y-104648000D02*
X134334610Y-104648000D01*
X134334610Y-104648000D02*
X139256328Y-99726282D01*
%TO.N,13*%
X139736843Y-101379144D02*
X139616273Y-101379144D01*
X140329045Y-100786942D02*
X139736843Y-101379144D01*
%TO.N,12*%
X136721787Y-100152580D02*
X138207724Y-98666643D01*
X138207724Y-98666643D02*
X138207724Y-98665622D01*
%TO.N,10*%
X139232912Y-100468862D02*
X139621938Y-100079836D01*
X139079446Y-100468862D02*
X139232912Y-100468862D01*
X138523438Y-101024870D02*
X139079446Y-100468862D01*
X138523438Y-101024870D02*
X138523438Y-102531638D01*
X138523438Y-102531638D02*
X139204700Y-103212900D01*
X141732000Y-103212900D02*
X142314569Y-102630331D01*
X139204700Y-103212900D02*
X141732000Y-103212900D01*
%TO.N,11*%
X141425178Y-92142444D02*
X140682598Y-92885024D01*
X143539384Y-92142444D02*
X141425178Y-92142444D01*
X143870720Y-92473780D02*
X143539384Y-92142444D01*
X141425178Y-91186478D02*
X141425178Y-92142444D01*
X140703300Y-90464600D02*
X141425178Y-91186478D01*
%TO.N,17*%
X141210995Y-95662351D02*
X141210995Y-96618804D01*
X142927662Y-93945684D02*
X141210995Y-95662351D01*
X140404348Y-97425451D02*
X140070867Y-97425451D01*
X141210995Y-96618804D02*
X140404348Y-97425451D01*
%TO.N,16*%
X142091786Y-93367347D02*
X142220555Y-93238578D01*
X140572337Y-96517460D02*
X140810985Y-96278812D01*
X141831814Y-93627319D02*
X142220555Y-93238578D01*
X141743459Y-93627319D02*
X141831814Y-93627319D01*
X140810985Y-94559793D02*
X141743459Y-93627319D01*
X140810985Y-96278812D02*
X140810985Y-94559793D01*
%TO.N,15*%
X141983460Y-94127320D02*
X142038920Y-94127320D01*
X142038920Y-94127320D02*
X142574109Y-93592131D01*
%TO.N,C_D+*%
X145488660Y-94213114D02*
X144341876Y-95359898D01*
X145488660Y-94145060D02*
X145488660Y-94213114D01*
%TO.N,C_D-*%
X144715971Y-95713451D02*
X144695429Y-95713451D01*
X146250660Y-94178762D02*
X144715971Y-95713451D01*
X146250660Y-94145060D02*
X146250660Y-94178762D01*
%TD*%
D21*
%TO.N,GND*%
X141663305Y-102015945D02*
X141709871Y-102054161D01*
X141665982Y-102098050D01*
X141574602Y-102234810D01*
X141511658Y-102386771D01*
X141509914Y-102395540D01*
X141427554Y-102477900D01*
X140526463Y-102477900D01*
X140611153Y-102374704D01*
X140679359Y-102247101D01*
X140708234Y-102151913D01*
X140730601Y-102129545D01*
X140780133Y-102103070D01*
X140886295Y-102015945D01*
X141274800Y-101627440D01*
X141663305Y-102015945D01*
%TA.AperFunction,Conductor*%
D22*
G36*
X141663305Y-102015945D02*
G01*
X141709871Y-102054161D01*
X141665982Y-102098050D01*
X141574602Y-102234810D01*
X141511658Y-102386771D01*
X141509914Y-102395540D01*
X141427554Y-102477900D01*
X140526463Y-102477900D01*
X140611153Y-102374704D01*
X140679359Y-102247101D01*
X140708234Y-102151913D01*
X140730601Y-102129545D01*
X140780133Y-102103070D01*
X140886295Y-102015945D01*
X141274800Y-101627440D01*
X141663305Y-102015945D01*
G37*
%TD.AperFunction*%
D21*
X143536519Y-101156387D02*
X143651451Y-101233182D01*
X142874870Y-102009764D01*
X142846850Y-101981744D01*
X142750704Y-101917501D01*
X142829576Y-101821395D01*
X142840599Y-101800773D01*
X142856192Y-101792830D01*
X142937384Y-101728278D01*
X142937384Y-101536352D01*
X142940305Y-101506692D01*
X142969965Y-101503771D01*
X143161891Y-101503771D01*
X143226443Y-101422579D01*
X143234386Y-101406986D01*
X143255008Y-101395963D01*
X143361170Y-101308838D01*
X143449558Y-101220450D01*
X143517633Y-101137501D01*
X143536519Y-101156387D01*
%TA.AperFunction,Conductor*%
D22*
G36*
X143536519Y-101156387D02*
G01*
X143651451Y-101233182D01*
X142874870Y-102009764D01*
X142846850Y-101981744D01*
X142750704Y-101917501D01*
X142829576Y-101821395D01*
X142840599Y-101800773D01*
X142856192Y-101792830D01*
X142937384Y-101728278D01*
X142937384Y-101536352D01*
X142940305Y-101506692D01*
X142969965Y-101503771D01*
X143161891Y-101503771D01*
X143226443Y-101422579D01*
X143234386Y-101406986D01*
X143255008Y-101395963D01*
X143361170Y-101308838D01*
X143449558Y-101220450D01*
X143517633Y-101137501D01*
X143536519Y-101156387D01*
G37*
%TD.AperFunction*%
D21*
X146476660Y-92453460D02*
X146496660Y-92453460D01*
X146496660Y-92651779D01*
X146494651Y-92651170D01*
X146350660Y-92636988D01*
X146307732Y-92636988D01*
X146307732Y-92433460D01*
X146476660Y-92433460D01*
X146476660Y-92453460D01*
%TA.AperFunction,Conductor*%
D22*
G36*
X146476660Y-92453460D02*
G01*
X146496660Y-92453460D01*
X146496660Y-92651779D01*
X146494651Y-92651170D01*
X146350660Y-92636988D01*
X146307732Y-92636988D01*
X146307732Y-92433460D01*
X146476660Y-92433460D01*
X146476660Y-92453460D01*
G37*
%TD.AperFunction*%
D21*
X147591510Y-87571411D02*
X147754025Y-87814632D01*
X147960868Y-88021475D01*
X148135260Y-88138000D01*
X147960868Y-88254525D01*
X147754025Y-88461368D01*
X147591510Y-88704589D01*
X147479568Y-88974842D01*
X147422500Y-89261740D01*
X147422500Y-89554260D01*
X147472156Y-89803897D01*
X146762718Y-90513336D01*
X146734672Y-90536353D01*
X146642823Y-90648271D01*
X146623029Y-90685304D01*
X146605177Y-90651906D01*
X146525825Y-90555215D01*
X146429134Y-90475863D01*
X146318820Y-90416898D01*
X146199122Y-90380588D01*
X146074640Y-90368328D01*
X145360390Y-90371400D01*
X145201640Y-90530150D01*
X145201640Y-91279400D01*
X145221640Y-91279400D01*
X145221640Y-91533400D01*
X145201640Y-91533400D01*
X145201640Y-91553400D01*
X144947640Y-91553400D01*
X144947640Y-91533400D01*
X144927640Y-91533400D01*
X144927640Y-91279400D01*
X144947640Y-91279400D01*
X144947640Y-90530150D01*
X144788890Y-90371400D01*
X144074640Y-90368328D01*
X143950158Y-90380588D01*
X143830460Y-90416898D01*
X143720146Y-90475863D01*
X143703007Y-90489928D01*
X143643040Y-90478000D01*
X143478560Y-90478000D01*
X143317240Y-90510089D01*
X143265396Y-90531563D01*
X143264548Y-90531110D01*
X143126091Y-90489110D01*
X142982100Y-90474928D01*
X142722100Y-90474928D01*
X142658972Y-90481146D01*
X142658972Y-90404872D01*
X142956100Y-90404872D01*
X143107894Y-90389922D01*
X143253855Y-90345645D01*
X143302208Y-90319800D01*
X143572350Y-90319800D01*
X143731100Y-90161050D01*
X143721335Y-90039452D01*
X143684477Y-89919922D01*
X143679272Y-89910291D01*
X143719222Y-89778594D01*
X143734172Y-89626800D01*
X143734172Y-89346800D01*
X143719222Y-89195006D01*
X143674945Y-89049045D01*
X143603043Y-88914526D01*
X143553466Y-88854116D01*
X143577518Y-88824809D01*
X143650344Y-88688562D01*
X143666997Y-88633664D01*
X143779826Y-88746493D01*
X143802842Y-88774538D01*
X143864097Y-88824809D01*
X143914760Y-88866387D01*
X144042446Y-88934637D01*
X144180995Y-88976665D01*
X144325080Y-88990856D01*
X144361185Y-88987300D01*
X145785093Y-88987300D01*
X145821198Y-88990856D01*
X145857303Y-88987300D01*
X145965283Y-88976665D01*
X146103831Y-88934637D01*
X146231518Y-88866387D01*
X146343436Y-88774538D01*
X146366457Y-88746487D01*
X147576872Y-87536072D01*
X147591510Y-87571411D01*
%TA.AperFunction,Conductor*%
D22*
G36*
X147591510Y-87571411D02*
G01*
X147754025Y-87814632D01*
X147960868Y-88021475D01*
X148135260Y-88138000D01*
X147960868Y-88254525D01*
X147754025Y-88461368D01*
X147591510Y-88704589D01*
X147479568Y-88974842D01*
X147422500Y-89261740D01*
X147422500Y-89554260D01*
X147472156Y-89803897D01*
X146762718Y-90513336D01*
X146734672Y-90536353D01*
X146642823Y-90648271D01*
X146623029Y-90685304D01*
X146605177Y-90651906D01*
X146525825Y-90555215D01*
X146429134Y-90475863D01*
X146318820Y-90416898D01*
X146199122Y-90380588D01*
X146074640Y-90368328D01*
X145360390Y-90371400D01*
X145201640Y-90530150D01*
X145201640Y-91279400D01*
X145221640Y-91279400D01*
X145221640Y-91533400D01*
X145201640Y-91533400D01*
X145201640Y-91553400D01*
X144947640Y-91553400D01*
X144947640Y-91533400D01*
X144927640Y-91533400D01*
X144927640Y-91279400D01*
X144947640Y-91279400D01*
X144947640Y-90530150D01*
X144788890Y-90371400D01*
X144074640Y-90368328D01*
X143950158Y-90380588D01*
X143830460Y-90416898D01*
X143720146Y-90475863D01*
X143703007Y-90489928D01*
X143643040Y-90478000D01*
X143478560Y-90478000D01*
X143317240Y-90510089D01*
X143265396Y-90531563D01*
X143264548Y-90531110D01*
X143126091Y-90489110D01*
X142982100Y-90474928D01*
X142722100Y-90474928D01*
X142658972Y-90481146D01*
X142658972Y-90404872D01*
X142956100Y-90404872D01*
X143107894Y-90389922D01*
X143253855Y-90345645D01*
X143302208Y-90319800D01*
X143572350Y-90319800D01*
X143731100Y-90161050D01*
X143721335Y-90039452D01*
X143684477Y-89919922D01*
X143679272Y-89910291D01*
X143719222Y-89778594D01*
X143734172Y-89626800D01*
X143734172Y-89346800D01*
X143719222Y-89195006D01*
X143674945Y-89049045D01*
X143603043Y-88914526D01*
X143553466Y-88854116D01*
X143577518Y-88824809D01*
X143650344Y-88688562D01*
X143666997Y-88633664D01*
X143779826Y-88746493D01*
X143802842Y-88774538D01*
X143864097Y-88824809D01*
X143914760Y-88866387D01*
X144042446Y-88934637D01*
X144180995Y-88976665D01*
X144325080Y-88990856D01*
X144361185Y-88987300D01*
X145785093Y-88987300D01*
X145821198Y-88990856D01*
X145857303Y-88987300D01*
X145965283Y-88976665D01*
X146103831Y-88934637D01*
X146231518Y-88866387D01*
X146343436Y-88774538D01*
X146366457Y-88746487D01*
X147576872Y-87536072D01*
X147591510Y-87571411D01*
G37*
%TD.AperFunction*%
D21*
X139865228Y-90479895D02*
X139814800Y-90474928D01*
X139723800Y-90474928D01*
X139723800Y-90425032D01*
X139865228Y-90425032D01*
X139865228Y-90479895D01*
%TA.AperFunction,Conductor*%
D22*
G36*
X139865228Y-90479895D02*
G01*
X139814800Y-90474928D01*
X139723800Y-90474928D01*
X139723800Y-90425032D01*
X139865228Y-90425032D01*
X139865228Y-90479895D01*
G37*
%TD.AperFunction*%
D21*
X134686997Y-82636792D02*
X134936072Y-82559157D01*
X134939100Y-82552806D01*
X134939100Y-83084097D01*
X134935544Y-83120202D01*
X134946112Y-83227502D01*
X134949735Y-83264286D01*
X134991763Y-83402834D01*
X135060013Y-83530521D01*
X135151862Y-83642439D01*
X135179908Y-83665456D01*
X136166607Y-84652156D01*
X136100395Y-84706495D01*
X136021043Y-84803186D01*
X135962078Y-84913500D01*
X135925768Y-85033198D01*
X135913508Y-85157680D01*
X135913508Y-86229167D01*
X135806166Y-86286543D01*
X135709475Y-86365895D01*
X135630123Y-86462586D01*
X135571158Y-86572900D01*
X135534848Y-86692598D01*
X135522588Y-86817080D01*
X135522588Y-87692541D01*
X135093944Y-87263897D01*
X135143600Y-87014260D01*
X135143600Y-86721740D01*
X135086532Y-86434842D01*
X134974590Y-86164589D01*
X134812075Y-85921368D01*
X134605232Y-85714525D01*
X134431871Y-85598689D01*
X134507392Y-85356397D01*
X134296495Y-85145500D01*
X134294529Y-84784324D01*
X134686997Y-85176792D01*
X134936072Y-85099157D01*
X135061971Y-84835117D01*
X135133939Y-84551589D01*
X135149211Y-84259469D01*
X135107199Y-83969981D01*
X135009519Y-83694253D01*
X134936072Y-83556843D01*
X134686997Y-83479208D01*
X134294529Y-83871676D01*
X134296495Y-83510500D01*
X134507392Y-83299603D01*
X134432086Y-83058000D01*
X134507392Y-82816397D01*
X134296495Y-82605500D01*
X134294529Y-82244324D01*
X134686997Y-82636792D01*
%TA.AperFunction,Conductor*%
D22*
G36*
X134686997Y-82636792D02*
G01*
X134936072Y-82559157D01*
X134939100Y-82552806D01*
X134939100Y-83084097D01*
X134935544Y-83120202D01*
X134946112Y-83227502D01*
X134949735Y-83264286D01*
X134991763Y-83402834D01*
X135060013Y-83530521D01*
X135151862Y-83642439D01*
X135179908Y-83665456D01*
X136166607Y-84652156D01*
X136100395Y-84706495D01*
X136021043Y-84803186D01*
X135962078Y-84913500D01*
X135925768Y-85033198D01*
X135913508Y-85157680D01*
X135913508Y-86229167D01*
X135806166Y-86286543D01*
X135709475Y-86365895D01*
X135630123Y-86462586D01*
X135571158Y-86572900D01*
X135534848Y-86692598D01*
X135522588Y-86817080D01*
X135522588Y-87692541D01*
X135093944Y-87263897D01*
X135143600Y-87014260D01*
X135143600Y-86721740D01*
X135086532Y-86434842D01*
X134974590Y-86164589D01*
X134812075Y-85921368D01*
X134605232Y-85714525D01*
X134431871Y-85598689D01*
X134507392Y-85356397D01*
X134296495Y-85145500D01*
X134294529Y-84784324D01*
X134686997Y-85176792D01*
X134936072Y-85099157D01*
X135061971Y-84835117D01*
X135133939Y-84551589D01*
X135149211Y-84259469D01*
X135107199Y-83969981D01*
X135009519Y-83694253D01*
X134936072Y-83556843D01*
X134686997Y-83479208D01*
X134294529Y-83871676D01*
X134296495Y-83510500D01*
X134507392Y-83299603D01*
X134432086Y-83058000D01*
X134507392Y-82816397D01*
X134296495Y-82605500D01*
X134294529Y-82244324D01*
X134686997Y-82636792D01*
G37*
%TD.AperFunction*%
D21*
X140281760Y-87298908D02*
X139987760Y-87298908D01*
X139987760Y-87275052D01*
X140281760Y-87275052D01*
X140281760Y-87298908D01*
%TA.AperFunction,Conductor*%
D22*
G36*
X140281760Y-87298908D02*
G01*
X139987760Y-87298908D01*
X139987760Y-87275052D01*
X140281760Y-87275052D01*
X140281760Y-87298908D01*
G37*
%TD.AperFunction*%
D21*
X143377920Y-82790260D02*
X143397920Y-82790260D01*
X143397920Y-83044260D01*
X143377920Y-83044260D01*
X143377920Y-83064260D01*
X143123920Y-83064260D01*
X143123920Y-83044260D01*
X143103920Y-83044260D01*
X143103920Y-82792334D01*
X143130155Y-82789750D01*
X143238135Y-82779115D01*
X143267326Y-82770260D01*
X143377920Y-82770260D01*
X143377920Y-82790260D01*
%TA.AperFunction,Conductor*%
D22*
G36*
X143377920Y-82790260D02*
G01*
X143397920Y-82790260D01*
X143397920Y-83044260D01*
X143377920Y-83044260D01*
X143377920Y-83064260D01*
X143123920Y-83064260D01*
X143123920Y-83044260D01*
X143103920Y-83044260D01*
X143103920Y-82792334D01*
X143130155Y-82789750D01*
X143238135Y-82779115D01*
X143267326Y-82770260D01*
X143377920Y-82770260D01*
X143377920Y-82790260D01*
G37*
%TD.AperFunction*%
D21*
X139286065Y-82779115D02*
X139430150Y-82793306D01*
X139435520Y-82792777D01*
X139435520Y-83044260D01*
X139415520Y-83044260D01*
X139415520Y-83064260D01*
X139161520Y-83064260D01*
X139161520Y-83044260D01*
X139141520Y-83044260D01*
X139141520Y-82790260D01*
X139161520Y-82790260D01*
X139161520Y-82770260D01*
X139256874Y-82770260D01*
X139286065Y-82779115D01*
%TA.AperFunction,Conductor*%
D22*
G36*
X139286065Y-82779115D02*
G01*
X139430150Y-82793306D01*
X139435520Y-82792777D01*
X139435520Y-83044260D01*
X139415520Y-83044260D01*
X139415520Y-83064260D01*
X139161520Y-83064260D01*
X139161520Y-83044260D01*
X139141520Y-83044260D01*
X139141520Y-82790260D01*
X139161520Y-82790260D01*
X139161520Y-82770260D01*
X139256874Y-82770260D01*
X139286065Y-82779115D01*
G37*
%TD.AperFunction*%
%TD*%
D21*
%TO.N,Net-(J1-PadS1)*%
X146521008Y-78055046D02*
X146492962Y-78078063D01*
X146401113Y-78189981D01*
X146377273Y-78234583D01*
X146294864Y-78154331D01*
X146107076Y-78032424D01*
X145883974Y-77952581D01*
X145709100Y-78078746D01*
X145709100Y-79469700D01*
X145729100Y-79469700D01*
X145729100Y-79723700D01*
X145709100Y-79723700D01*
X145709100Y-81114654D01*
X145883974Y-81240819D01*
X146107076Y-81160976D01*
X146280200Y-81048588D01*
X146280201Y-81790023D01*
X146234580Y-81765638D01*
X146114882Y-81729328D01*
X145990400Y-81717068D01*
X145244649Y-81717068D01*
X145246137Y-81701958D01*
X145263285Y-81687885D01*
X145342637Y-81591194D01*
X145401602Y-81480880D01*
X145437912Y-81361182D01*
X145450172Y-81236700D01*
X145450172Y-81118209D01*
X145455100Y-81114654D01*
X145455100Y-79723700D01*
X145443967Y-79723700D01*
X145437912Y-79662218D01*
X145435100Y-79652948D01*
X145435100Y-79469700D01*
X145455100Y-79469700D01*
X145455100Y-78078746D01*
X145280226Y-77952581D01*
X145057124Y-78032424D01*
X144869336Y-78154331D01*
X144724984Y-78294906D01*
X144606831Y-78215959D01*
X144432122Y-78143592D01*
X144246652Y-78106700D01*
X144057548Y-78106700D01*
X143872078Y-78143592D01*
X143697369Y-78215959D01*
X143540136Y-78321019D01*
X143406419Y-78454736D01*
X143301359Y-78611969D01*
X143228992Y-78786678D01*
X143192100Y-78972148D01*
X143192100Y-79066043D01*
X143126187Y-78942728D01*
X143034337Y-78830810D01*
X143006292Y-78807794D01*
X142697351Y-78498853D01*
X142674330Y-78470802D01*
X142562412Y-78378953D01*
X142434725Y-78310703D01*
X142296177Y-78268675D01*
X142188197Y-78258040D01*
X142152092Y-78254484D01*
X142115987Y-78258040D01*
X140067265Y-78258040D01*
X140031160Y-78254484D01*
X139887075Y-78268675D01*
X139748526Y-78310703D01*
X139620840Y-78378953D01*
X139508922Y-78470802D01*
X139485906Y-78498848D01*
X139274709Y-78710045D01*
X139265940Y-78711789D01*
X139264444Y-78712408D01*
X139222841Y-78611969D01*
X139117781Y-78454736D01*
X138984064Y-78321019D01*
X138826831Y-78215959D01*
X138652122Y-78143592D01*
X138466652Y-78106700D01*
X138277548Y-78106700D01*
X138092078Y-78143592D01*
X137917369Y-78215959D01*
X137799216Y-78294906D01*
X137654864Y-78154331D01*
X137467076Y-78032424D01*
X137243974Y-77952581D01*
X137069102Y-78078745D01*
X137069102Y-77911700D01*
X137046546Y-77911700D01*
X137515247Y-77443000D01*
X147133054Y-77443000D01*
X146521008Y-78055046D01*
%TA.AperFunction,Conductor*%
D22*
G36*
X146521008Y-78055046D02*
G01*
X146492962Y-78078063D01*
X146401113Y-78189981D01*
X146377273Y-78234583D01*
X146294864Y-78154331D01*
X146107076Y-78032424D01*
X145883974Y-77952581D01*
X145709100Y-78078746D01*
X145709100Y-79469700D01*
X145729100Y-79469700D01*
X145729100Y-79723700D01*
X145709100Y-79723700D01*
X145709100Y-81114654D01*
X145883974Y-81240819D01*
X146107076Y-81160976D01*
X146280200Y-81048588D01*
X146280201Y-81790023D01*
X146234580Y-81765638D01*
X146114882Y-81729328D01*
X145990400Y-81717068D01*
X145244649Y-81717068D01*
X145246137Y-81701958D01*
X145263285Y-81687885D01*
X145342637Y-81591194D01*
X145401602Y-81480880D01*
X145437912Y-81361182D01*
X145450172Y-81236700D01*
X145450172Y-81118209D01*
X145455100Y-81114654D01*
X145455100Y-79723700D01*
X145443967Y-79723700D01*
X145437912Y-79662218D01*
X145435100Y-79652948D01*
X145435100Y-79469700D01*
X145455100Y-79469700D01*
X145455100Y-78078746D01*
X145280226Y-77952581D01*
X145057124Y-78032424D01*
X144869336Y-78154331D01*
X144724984Y-78294906D01*
X144606831Y-78215959D01*
X144432122Y-78143592D01*
X144246652Y-78106700D01*
X144057548Y-78106700D01*
X143872078Y-78143592D01*
X143697369Y-78215959D01*
X143540136Y-78321019D01*
X143406419Y-78454736D01*
X143301359Y-78611969D01*
X143228992Y-78786678D01*
X143192100Y-78972148D01*
X143192100Y-79066043D01*
X143126187Y-78942728D01*
X143034337Y-78830810D01*
X143006292Y-78807794D01*
X142697351Y-78498853D01*
X142674330Y-78470802D01*
X142562412Y-78378953D01*
X142434725Y-78310703D01*
X142296177Y-78268675D01*
X142188197Y-78258040D01*
X142152092Y-78254484D01*
X142115987Y-78258040D01*
X140067265Y-78258040D01*
X140031160Y-78254484D01*
X139887075Y-78268675D01*
X139748526Y-78310703D01*
X139620840Y-78378953D01*
X139508922Y-78470802D01*
X139485906Y-78498848D01*
X139274709Y-78710045D01*
X139265940Y-78711789D01*
X139264444Y-78712408D01*
X139222841Y-78611969D01*
X139117781Y-78454736D01*
X138984064Y-78321019D01*
X138826831Y-78215959D01*
X138652122Y-78143592D01*
X138466652Y-78106700D01*
X138277548Y-78106700D01*
X138092078Y-78143592D01*
X137917369Y-78215959D01*
X137799216Y-78294906D01*
X137654864Y-78154331D01*
X137467076Y-78032424D01*
X137243974Y-77952581D01*
X137069102Y-78078745D01*
X137069102Y-77911700D01*
X137046546Y-77911700D01*
X137515247Y-77443000D01*
X147133054Y-77443000D01*
X146521008Y-78055046D01*
G37*
%TD.AperFunction*%
D21*
X137069100Y-79469700D02*
X137089100Y-79469700D01*
X137089100Y-79652948D01*
X137086288Y-79662218D01*
X137080233Y-79723700D01*
X137069100Y-79723700D01*
X137069100Y-81114654D01*
X137074028Y-81118209D01*
X137074028Y-81236700D01*
X137086288Y-81361182D01*
X137122598Y-81480880D01*
X137181563Y-81591194D01*
X137260915Y-81687885D01*
X137279695Y-81703298D01*
X137281302Y-81719608D01*
X136551580Y-81719608D01*
X136427098Y-81731868D01*
X136409100Y-81737328D01*
X136409100Y-81155767D01*
X136417124Y-81160976D01*
X136640226Y-81240819D01*
X136815100Y-81114654D01*
X136815100Y-79723700D01*
X136795100Y-79723700D01*
X136795100Y-79469700D01*
X136815100Y-79469700D01*
X136815100Y-79449700D01*
X137069100Y-79449700D01*
X137069100Y-79469700D01*
%TA.AperFunction,Conductor*%
D22*
G36*
X137069100Y-79469700D02*
G01*
X137089100Y-79469700D01*
X137089100Y-79652948D01*
X137086288Y-79662218D01*
X137080233Y-79723700D01*
X137069100Y-79723700D01*
X137069100Y-81114654D01*
X137074028Y-81118209D01*
X137074028Y-81236700D01*
X137086288Y-81361182D01*
X137122598Y-81480880D01*
X137181563Y-81591194D01*
X137260915Y-81687885D01*
X137279695Y-81703298D01*
X137281302Y-81719608D01*
X136551580Y-81719608D01*
X136427098Y-81731868D01*
X136409100Y-81737328D01*
X136409100Y-81155767D01*
X136417124Y-81160976D01*
X136640226Y-81240819D01*
X136815100Y-81114654D01*
X136815100Y-79723700D01*
X136795100Y-79723700D01*
X136795100Y-79469700D01*
X136815100Y-79469700D01*
X136815100Y-79449700D01*
X137069100Y-79449700D01*
X137069100Y-79469700D01*
G37*
%TD.AperFunction*%
D21*
X147479568Y-73734842D02*
X147422500Y-74021740D01*
X147422500Y-74314260D01*
X147479568Y-74601158D01*
X147591510Y-74871411D01*
X147754025Y-75114632D01*
X147960868Y-75321475D01*
X148135260Y-75438000D01*
X147960868Y-75554525D01*
X147754025Y-75761368D01*
X147612617Y-75973000D01*
X146689594Y-75973000D01*
X146717100Y-75843700D01*
X146717100Y-75543700D01*
X145709100Y-75543700D01*
X145709100Y-75563700D01*
X145455100Y-75563700D01*
X145455100Y-75543700D01*
X144447100Y-75543700D01*
X144447100Y-75843700D01*
X144474606Y-75973000D01*
X138049594Y-75973000D01*
X138077100Y-75843700D01*
X138077100Y-75543700D01*
X137069100Y-75543700D01*
X137069100Y-75563700D01*
X136815100Y-75563700D01*
X136815100Y-75543700D01*
X135807100Y-75543700D01*
X135807100Y-75843700D01*
X135853685Y-76062687D01*
X135942097Y-76268378D01*
X136068939Y-76452869D01*
X136229336Y-76609069D01*
X136254166Y-76625188D01*
X135179908Y-77699446D01*
X135151863Y-77722462D01*
X135060014Y-77834380D01*
X135018261Y-77912494D01*
X134991764Y-77962067D01*
X134949735Y-78100615D01*
X134935544Y-78244700D01*
X134939101Y-78280815D01*
X134939101Y-78491476D01*
X134812075Y-78301368D01*
X134605232Y-78094525D01*
X134430840Y-77978000D01*
X134605232Y-77861475D01*
X134812075Y-77654632D01*
X134974590Y-77411411D01*
X135086532Y-77141158D01*
X135143600Y-76854260D01*
X135143600Y-76561740D01*
X135086532Y-76274842D01*
X134974590Y-76004589D01*
X134812075Y-75761368D01*
X134605232Y-75554525D01*
X134430840Y-75438000D01*
X134605232Y-75321475D01*
X134812075Y-75114632D01*
X134895551Y-74989700D01*
X135807100Y-74989700D01*
X135807100Y-75289700D01*
X136815100Y-75289700D01*
X136815100Y-74148746D01*
X137069100Y-74148746D01*
X137069100Y-75289700D01*
X138077100Y-75289700D01*
X138077100Y-74989700D01*
X144447100Y-74989700D01*
X144447100Y-75289700D01*
X145455100Y-75289700D01*
X145455100Y-74148746D01*
X145709100Y-74148746D01*
X145709100Y-75289700D01*
X146717100Y-75289700D01*
X146717100Y-74989700D01*
X146670515Y-74770713D01*
X146582103Y-74565022D01*
X146455261Y-74380531D01*
X146294864Y-74224331D01*
X146107076Y-74102424D01*
X145883974Y-74022581D01*
X145709100Y-74148746D01*
X145455100Y-74148746D01*
X145280226Y-74022581D01*
X145057124Y-74102424D01*
X144869336Y-74224331D01*
X144708939Y-74380531D01*
X144582097Y-74565022D01*
X144493685Y-74770713D01*
X144447100Y-74989700D01*
X138077100Y-74989700D01*
X138030515Y-74770713D01*
X137942103Y-74565022D01*
X137815261Y-74380531D01*
X137654864Y-74224331D01*
X137467076Y-74102424D01*
X137243974Y-74022581D01*
X137069100Y-74148746D01*
X136815100Y-74148746D01*
X136640226Y-74022581D01*
X136417124Y-74102424D01*
X136229336Y-74224331D01*
X136068939Y-74380531D01*
X135942097Y-74565022D01*
X135853685Y-74770713D01*
X135807100Y-74989700D01*
X134895551Y-74989700D01*
X134974590Y-74871411D01*
X135086532Y-74601158D01*
X135143600Y-74314260D01*
X135143600Y-74021740D01*
X135086532Y-73734842D01*
X135012951Y-73557200D01*
X147553149Y-73557200D01*
X147479568Y-73734842D01*
%TA.AperFunction,Conductor*%
D22*
G36*
X147479568Y-73734842D02*
G01*
X147422500Y-74021740D01*
X147422500Y-74314260D01*
X147479568Y-74601158D01*
X147591510Y-74871411D01*
X147754025Y-75114632D01*
X147960868Y-75321475D01*
X148135260Y-75438000D01*
X147960868Y-75554525D01*
X147754025Y-75761368D01*
X147612617Y-75973000D01*
X146689594Y-75973000D01*
X146717100Y-75843700D01*
X146717100Y-75543700D01*
X145709100Y-75543700D01*
X145709100Y-75563700D01*
X145455100Y-75563700D01*
X145455100Y-75543700D01*
X144447100Y-75543700D01*
X144447100Y-75843700D01*
X144474606Y-75973000D01*
X138049594Y-75973000D01*
X138077100Y-75843700D01*
X138077100Y-75543700D01*
X137069100Y-75543700D01*
X137069100Y-75563700D01*
X136815100Y-75563700D01*
X136815100Y-75543700D01*
X135807100Y-75543700D01*
X135807100Y-75843700D01*
X135853685Y-76062687D01*
X135942097Y-76268378D01*
X136068939Y-76452869D01*
X136229336Y-76609069D01*
X136254166Y-76625188D01*
X135179908Y-77699446D01*
X135151863Y-77722462D01*
X135060014Y-77834380D01*
X135018261Y-77912494D01*
X134991764Y-77962067D01*
X134949735Y-78100615D01*
X134935544Y-78244700D01*
X134939101Y-78280815D01*
X134939101Y-78491476D01*
X134812075Y-78301368D01*
X134605232Y-78094525D01*
X134430840Y-77978000D01*
X134605232Y-77861475D01*
X134812075Y-77654632D01*
X134974590Y-77411411D01*
X135086532Y-77141158D01*
X135143600Y-76854260D01*
X135143600Y-76561740D01*
X135086532Y-76274842D01*
X134974590Y-76004589D01*
X134812075Y-75761368D01*
X134605232Y-75554525D01*
X134430840Y-75438000D01*
X134605232Y-75321475D01*
X134812075Y-75114632D01*
X134895551Y-74989700D01*
X135807100Y-74989700D01*
X135807100Y-75289700D01*
X136815100Y-75289700D01*
X136815100Y-74148746D01*
X137069100Y-74148746D01*
X137069100Y-75289700D01*
X138077100Y-75289700D01*
X138077100Y-74989700D01*
X144447100Y-74989700D01*
X144447100Y-75289700D01*
X145455100Y-75289700D01*
X145455100Y-74148746D01*
X145709100Y-74148746D01*
X145709100Y-75289700D01*
X146717100Y-75289700D01*
X146717100Y-74989700D01*
X146670515Y-74770713D01*
X146582103Y-74565022D01*
X146455261Y-74380531D01*
X146294864Y-74224331D01*
X146107076Y-74102424D01*
X145883974Y-74022581D01*
X145709100Y-74148746D01*
X145455100Y-74148746D01*
X145280226Y-74022581D01*
X145057124Y-74102424D01*
X144869336Y-74224331D01*
X144708939Y-74380531D01*
X144582097Y-74565022D01*
X144493685Y-74770713D01*
X144447100Y-74989700D01*
X138077100Y-74989700D01*
X138030515Y-74770713D01*
X137942103Y-74565022D01*
X137815261Y-74380531D01*
X137654864Y-74224331D01*
X137467076Y-74102424D01*
X137243974Y-74022581D01*
X137069100Y-74148746D01*
X136815100Y-74148746D01*
X136640226Y-74022581D01*
X136417124Y-74102424D01*
X136229336Y-74224331D01*
X136068939Y-74380531D01*
X135942097Y-74565022D01*
X135853685Y-74770713D01*
X135807100Y-74989700D01*
X134895551Y-74989700D01*
X134974590Y-74871411D01*
X135086532Y-74601158D01*
X135143600Y-74314260D01*
X135143600Y-74021740D01*
X135086532Y-73734842D01*
X135012951Y-73557200D01*
X147553149Y-73557200D01*
X147479568Y-73734842D01*
G37*
%TD.AperFunction*%
%TD*%
M02*
