%TF.GenerationSoftware,KiCad,Pcbnew,(5.1.8)-1*%
%TF.CreationDate,2021-01-01T16:30:17+07:00*%
%TF.ProjectId,ArduinoMicroC,41726475-696e-46f4-9d69-63726f432e6b,rev?*%
%TF.SameCoordinates,Original*%
%TF.FileFunction,Soldermask,Top*%
%TF.FilePolarity,Negative*%
%FSLAX46Y46*%
G04 Gerber Fmt 4.6, Leading zero omitted, Abs format (unit mm)*
G04 Created by KiCad (PCBNEW (5.1.8)-1) date 2021-01-01 16:30:17*
%MOMM*%
%LPD*%
G01*
G04 APERTURE LIST*
%ADD10R,2.400000X2.000000*%
%ADD11R,1.100000X1.100000*%
%ADD12R,1.700000X2.700000*%
%ADD13C,1.700000*%
%ADD14R,2.700000X1.700000*%
%ADD15R,0.600000X1.450000*%
%ADD16R,0.300000X1.450000*%
%ADD17O,1.000000X2.100000*%
%ADD18C,0.650000*%
%ADD19O,1.000000X1.600000*%
G04 APERTURE END LIST*
%TO.C,R7*%
G36*
G01*
X144280720Y-92573780D02*
X144280720Y-92373780D01*
G75*
G02*
X144380720Y-92273780I100000J0D01*
G01*
X144640720Y-92273780D01*
G75*
G02*
X144740720Y-92373780I0J-100000D01*
G01*
X144740720Y-92573780D01*
G75*
G02*
X144640720Y-92673780I-100000J0D01*
G01*
X144380720Y-92673780D01*
G75*
G02*
X144280720Y-92573780I0J100000D01*
G01*
G37*
G36*
G01*
X143640720Y-92573780D02*
X143640720Y-92373780D01*
G75*
G02*
X143740720Y-92273780I100000J0D01*
G01*
X144000720Y-92273780D01*
G75*
G02*
X144100720Y-92373780I0J-100000D01*
G01*
X144100720Y-92573780D01*
G75*
G02*
X144000720Y-92673780I-100000J0D01*
G01*
X143740720Y-92673780D01*
G75*
G02*
X143640720Y-92573780I0J100000D01*
G01*
G37*
%TD*%
%TO.C,U2*%
G36*
G01*
X145155048Y-97180698D02*
X145826800Y-97852450D01*
G75*
G02*
X145826800Y-97940838I-44194J-44194D01*
G01*
X145738412Y-98029226D01*
G75*
G02*
X145650024Y-98029226I-44194J44194D01*
G01*
X144978272Y-97357474D01*
G75*
G02*
X144978272Y-97269086I44194J44194D01*
G01*
X145066660Y-97180698D01*
G75*
G02*
X145155048Y-97180698I44194J-44194D01*
G01*
G37*
G36*
G01*
X144801494Y-97534251D02*
X145473246Y-98206003D01*
G75*
G02*
X145473246Y-98294391I-44194J-44194D01*
G01*
X145384858Y-98382779D01*
G75*
G02*
X145296470Y-98382779I-44194J44194D01*
G01*
X144624718Y-97711027D01*
G75*
G02*
X144624718Y-97622639I44194J44194D01*
G01*
X144713106Y-97534251D01*
G75*
G02*
X144801494Y-97534251I44194J-44194D01*
G01*
G37*
G36*
G01*
X144447941Y-97887805D02*
X145119693Y-98559557D01*
G75*
G02*
X145119693Y-98647945I-44194J-44194D01*
G01*
X145031305Y-98736333D01*
G75*
G02*
X144942917Y-98736333I-44194J44194D01*
G01*
X144271165Y-98064581D01*
G75*
G02*
X144271165Y-97976193I44194J44194D01*
G01*
X144359553Y-97887805D01*
G75*
G02*
X144447941Y-97887805I44194J-44194D01*
G01*
G37*
G36*
G01*
X144094388Y-98241358D02*
X144766140Y-98913110D01*
G75*
G02*
X144766140Y-99001498I-44194J-44194D01*
G01*
X144677752Y-99089886D01*
G75*
G02*
X144589364Y-99089886I-44194J44194D01*
G01*
X143917612Y-98418134D01*
G75*
G02*
X143917612Y-98329746I44194J44194D01*
G01*
X144006000Y-98241358D01*
G75*
G02*
X144094388Y-98241358I44194J-44194D01*
G01*
G37*
G36*
G01*
X143740834Y-98594911D02*
X144412586Y-99266663D01*
G75*
G02*
X144412586Y-99355051I-44194J-44194D01*
G01*
X144324198Y-99443439D01*
G75*
G02*
X144235810Y-99443439I-44194J44194D01*
G01*
X143564058Y-98771687D01*
G75*
G02*
X143564058Y-98683299I44194J44194D01*
G01*
X143652446Y-98594911D01*
G75*
G02*
X143740834Y-98594911I44194J-44194D01*
G01*
G37*
G36*
G01*
X143387281Y-98948465D02*
X144059033Y-99620217D01*
G75*
G02*
X144059033Y-99708605I-44194J-44194D01*
G01*
X143970645Y-99796993D01*
G75*
G02*
X143882257Y-99796993I-44194J44194D01*
G01*
X143210505Y-99125241D01*
G75*
G02*
X143210505Y-99036853I44194J44194D01*
G01*
X143298893Y-98948465D01*
G75*
G02*
X143387281Y-98948465I44194J-44194D01*
G01*
G37*
G36*
G01*
X143033727Y-99302018D02*
X143705479Y-99973770D01*
G75*
G02*
X143705479Y-100062158I-44194J-44194D01*
G01*
X143617091Y-100150546D01*
G75*
G02*
X143528703Y-100150546I-44194J44194D01*
G01*
X142856951Y-99478794D01*
G75*
G02*
X142856951Y-99390406I44194J44194D01*
G01*
X142945339Y-99302018D01*
G75*
G02*
X143033727Y-99302018I44194J-44194D01*
G01*
G37*
G36*
G01*
X142680174Y-99655572D02*
X143351926Y-100327324D01*
G75*
G02*
X143351926Y-100415712I-44194J-44194D01*
G01*
X143263538Y-100504100D01*
G75*
G02*
X143175150Y-100504100I-44194J44194D01*
G01*
X142503398Y-99832348D01*
G75*
G02*
X142503398Y-99743960I44194J44194D01*
G01*
X142591786Y-99655572D01*
G75*
G02*
X142680174Y-99655572I44194J-44194D01*
G01*
G37*
G36*
G01*
X142326621Y-100009125D02*
X142998373Y-100680877D01*
G75*
G02*
X142998373Y-100769265I-44194J-44194D01*
G01*
X142909985Y-100857653D01*
G75*
G02*
X142821597Y-100857653I-44194J44194D01*
G01*
X142149845Y-100185901D01*
G75*
G02*
X142149845Y-100097513I44194J44194D01*
G01*
X142238233Y-100009125D01*
G75*
G02*
X142326621Y-100009125I44194J-44194D01*
G01*
G37*
G36*
G01*
X141973067Y-100362678D02*
X142644819Y-101034430D01*
G75*
G02*
X142644819Y-101122818I-44194J-44194D01*
G01*
X142556431Y-101211206D01*
G75*
G02*
X142468043Y-101211206I-44194J44194D01*
G01*
X141796291Y-100539454D01*
G75*
G02*
X141796291Y-100451066I44194J44194D01*
G01*
X141884679Y-100362678D01*
G75*
G02*
X141973067Y-100362678I44194J-44194D01*
G01*
G37*
G36*
G01*
X141619514Y-100716232D02*
X142291266Y-101387984D01*
G75*
G02*
X142291266Y-101476372I-44194J-44194D01*
G01*
X142202878Y-101564760D01*
G75*
G02*
X142114490Y-101564760I-44194J44194D01*
G01*
X141442738Y-100893008D01*
G75*
G02*
X141442738Y-100804620I44194J44194D01*
G01*
X141531126Y-100716232D01*
G75*
G02*
X141619514Y-100716232I44194J-44194D01*
G01*
G37*
G36*
G01*
X141018474Y-100716232D02*
X141106862Y-100804620D01*
G75*
G02*
X141106862Y-100893008I-44194J-44194D01*
G01*
X140435110Y-101564760D01*
G75*
G02*
X140346722Y-101564760I-44194J44194D01*
G01*
X140258334Y-101476372D01*
G75*
G02*
X140258334Y-101387984I44194J44194D01*
G01*
X140930086Y-100716232D01*
G75*
G02*
X141018474Y-100716232I44194J-44194D01*
G01*
G37*
G36*
G01*
X140664921Y-100362678D02*
X140753309Y-100451066D01*
G75*
G02*
X140753309Y-100539454I-44194J-44194D01*
G01*
X140081557Y-101211206D01*
G75*
G02*
X139993169Y-101211206I-44194J44194D01*
G01*
X139904781Y-101122818D01*
G75*
G02*
X139904781Y-101034430I44194J44194D01*
G01*
X140576533Y-100362678D01*
G75*
G02*
X140664921Y-100362678I44194J-44194D01*
G01*
G37*
G36*
G01*
X140311367Y-100009125D02*
X140399755Y-100097513D01*
G75*
G02*
X140399755Y-100185901I-44194J-44194D01*
G01*
X139728003Y-100857653D01*
G75*
G02*
X139639615Y-100857653I-44194J44194D01*
G01*
X139551227Y-100769265D01*
G75*
G02*
X139551227Y-100680877I44194J44194D01*
G01*
X140222979Y-100009125D01*
G75*
G02*
X140311367Y-100009125I44194J-44194D01*
G01*
G37*
G36*
G01*
X139957814Y-99655572D02*
X140046202Y-99743960D01*
G75*
G02*
X140046202Y-99832348I-44194J-44194D01*
G01*
X139374450Y-100504100D01*
G75*
G02*
X139286062Y-100504100I-44194J44194D01*
G01*
X139197674Y-100415712D01*
G75*
G02*
X139197674Y-100327324I44194J44194D01*
G01*
X139869426Y-99655572D01*
G75*
G02*
X139957814Y-99655572I44194J-44194D01*
G01*
G37*
G36*
G01*
X139604261Y-99302018D02*
X139692649Y-99390406D01*
G75*
G02*
X139692649Y-99478794I-44194J-44194D01*
G01*
X139020897Y-100150546D01*
G75*
G02*
X138932509Y-100150546I-44194J44194D01*
G01*
X138844121Y-100062158D01*
G75*
G02*
X138844121Y-99973770I44194J44194D01*
G01*
X139515873Y-99302018D01*
G75*
G02*
X139604261Y-99302018I44194J-44194D01*
G01*
G37*
G36*
G01*
X139250707Y-98948465D02*
X139339095Y-99036853D01*
G75*
G02*
X139339095Y-99125241I-44194J-44194D01*
G01*
X138667343Y-99796993D01*
G75*
G02*
X138578955Y-99796993I-44194J44194D01*
G01*
X138490567Y-99708605D01*
G75*
G02*
X138490567Y-99620217I44194J44194D01*
G01*
X139162319Y-98948465D01*
G75*
G02*
X139250707Y-98948465I44194J-44194D01*
G01*
G37*
G36*
G01*
X138897154Y-98594911D02*
X138985542Y-98683299D01*
G75*
G02*
X138985542Y-98771687I-44194J-44194D01*
G01*
X138313790Y-99443439D01*
G75*
G02*
X138225402Y-99443439I-44194J44194D01*
G01*
X138137014Y-99355051D01*
G75*
G02*
X138137014Y-99266663I44194J44194D01*
G01*
X138808766Y-98594911D01*
G75*
G02*
X138897154Y-98594911I44194J-44194D01*
G01*
G37*
G36*
G01*
X138543600Y-98241358D02*
X138631988Y-98329746D01*
G75*
G02*
X138631988Y-98418134I-44194J-44194D01*
G01*
X137960236Y-99089886D01*
G75*
G02*
X137871848Y-99089886I-44194J44194D01*
G01*
X137783460Y-99001498D01*
G75*
G02*
X137783460Y-98913110I44194J44194D01*
G01*
X138455212Y-98241358D01*
G75*
G02*
X138543600Y-98241358I44194J-44194D01*
G01*
G37*
G36*
G01*
X138190047Y-97887805D02*
X138278435Y-97976193D01*
G75*
G02*
X138278435Y-98064581I-44194J-44194D01*
G01*
X137606683Y-98736333D01*
G75*
G02*
X137518295Y-98736333I-44194J44194D01*
G01*
X137429907Y-98647945D01*
G75*
G02*
X137429907Y-98559557I44194J44194D01*
G01*
X138101659Y-97887805D01*
G75*
G02*
X138190047Y-97887805I44194J-44194D01*
G01*
G37*
G36*
G01*
X137836494Y-97534251D02*
X137924882Y-97622639D01*
G75*
G02*
X137924882Y-97711027I-44194J-44194D01*
G01*
X137253130Y-98382779D01*
G75*
G02*
X137164742Y-98382779I-44194J44194D01*
G01*
X137076354Y-98294391D01*
G75*
G02*
X137076354Y-98206003I44194J44194D01*
G01*
X137748106Y-97534251D01*
G75*
G02*
X137836494Y-97534251I44194J-44194D01*
G01*
G37*
G36*
G01*
X137482940Y-97180698D02*
X137571328Y-97269086D01*
G75*
G02*
X137571328Y-97357474I-44194J-44194D01*
G01*
X136899576Y-98029226D01*
G75*
G02*
X136811188Y-98029226I-44194J44194D01*
G01*
X136722800Y-97940838D01*
G75*
G02*
X136722800Y-97852450I44194J44194D01*
G01*
X137394552Y-97180698D01*
G75*
G02*
X137482940Y-97180698I44194J-44194D01*
G01*
G37*
G36*
G01*
X136899576Y-95996294D02*
X137571328Y-96668046D01*
G75*
G02*
X137571328Y-96756434I-44194J-44194D01*
G01*
X137482940Y-96844822D01*
G75*
G02*
X137394552Y-96844822I-44194J44194D01*
G01*
X136722800Y-96173070D01*
G75*
G02*
X136722800Y-96084682I44194J44194D01*
G01*
X136811188Y-95996294D01*
G75*
G02*
X136899576Y-95996294I44194J-44194D01*
G01*
G37*
G36*
G01*
X137253130Y-95642741D02*
X137924882Y-96314493D01*
G75*
G02*
X137924882Y-96402881I-44194J-44194D01*
G01*
X137836494Y-96491269D01*
G75*
G02*
X137748106Y-96491269I-44194J44194D01*
G01*
X137076354Y-95819517D01*
G75*
G02*
X137076354Y-95731129I44194J44194D01*
G01*
X137164742Y-95642741D01*
G75*
G02*
X137253130Y-95642741I44194J-44194D01*
G01*
G37*
G36*
G01*
X137606683Y-95289187D02*
X138278435Y-95960939D01*
G75*
G02*
X138278435Y-96049327I-44194J-44194D01*
G01*
X138190047Y-96137715D01*
G75*
G02*
X138101659Y-96137715I-44194J44194D01*
G01*
X137429907Y-95465963D01*
G75*
G02*
X137429907Y-95377575I44194J44194D01*
G01*
X137518295Y-95289187D01*
G75*
G02*
X137606683Y-95289187I44194J-44194D01*
G01*
G37*
G36*
G01*
X137960236Y-94935634D02*
X138631988Y-95607386D01*
G75*
G02*
X138631988Y-95695774I-44194J-44194D01*
G01*
X138543600Y-95784162D01*
G75*
G02*
X138455212Y-95784162I-44194J44194D01*
G01*
X137783460Y-95112410D01*
G75*
G02*
X137783460Y-95024022I44194J44194D01*
G01*
X137871848Y-94935634D01*
G75*
G02*
X137960236Y-94935634I44194J-44194D01*
G01*
G37*
G36*
G01*
X138313790Y-94582081D02*
X138985542Y-95253833D01*
G75*
G02*
X138985542Y-95342221I-44194J-44194D01*
G01*
X138897154Y-95430609D01*
G75*
G02*
X138808766Y-95430609I-44194J44194D01*
G01*
X138137014Y-94758857D01*
G75*
G02*
X138137014Y-94670469I44194J44194D01*
G01*
X138225402Y-94582081D01*
G75*
G02*
X138313790Y-94582081I44194J-44194D01*
G01*
G37*
G36*
G01*
X138667343Y-94228527D02*
X139339095Y-94900279D01*
G75*
G02*
X139339095Y-94988667I-44194J-44194D01*
G01*
X139250707Y-95077055D01*
G75*
G02*
X139162319Y-95077055I-44194J44194D01*
G01*
X138490567Y-94405303D01*
G75*
G02*
X138490567Y-94316915I44194J44194D01*
G01*
X138578955Y-94228527D01*
G75*
G02*
X138667343Y-94228527I44194J-44194D01*
G01*
G37*
G36*
G01*
X139020897Y-93874974D02*
X139692649Y-94546726D01*
G75*
G02*
X139692649Y-94635114I-44194J-44194D01*
G01*
X139604261Y-94723502D01*
G75*
G02*
X139515873Y-94723502I-44194J44194D01*
G01*
X138844121Y-94051750D01*
G75*
G02*
X138844121Y-93963362I44194J44194D01*
G01*
X138932509Y-93874974D01*
G75*
G02*
X139020897Y-93874974I44194J-44194D01*
G01*
G37*
G36*
G01*
X139374450Y-93521420D02*
X140046202Y-94193172D01*
G75*
G02*
X140046202Y-94281560I-44194J-44194D01*
G01*
X139957814Y-94369948D01*
G75*
G02*
X139869426Y-94369948I-44194J44194D01*
G01*
X139197674Y-93698196D01*
G75*
G02*
X139197674Y-93609808I44194J44194D01*
G01*
X139286062Y-93521420D01*
G75*
G02*
X139374450Y-93521420I44194J-44194D01*
G01*
G37*
G36*
G01*
X139728003Y-93167867D02*
X140399755Y-93839619D01*
G75*
G02*
X140399755Y-93928007I-44194J-44194D01*
G01*
X140311367Y-94016395D01*
G75*
G02*
X140222979Y-94016395I-44194J44194D01*
G01*
X139551227Y-93344643D01*
G75*
G02*
X139551227Y-93256255I44194J44194D01*
G01*
X139639615Y-93167867D01*
G75*
G02*
X139728003Y-93167867I44194J-44194D01*
G01*
G37*
G36*
G01*
X140081557Y-92814314D02*
X140753309Y-93486066D01*
G75*
G02*
X140753309Y-93574454I-44194J-44194D01*
G01*
X140664921Y-93662842D01*
G75*
G02*
X140576533Y-93662842I-44194J44194D01*
G01*
X139904781Y-92991090D01*
G75*
G02*
X139904781Y-92902702I44194J44194D01*
G01*
X139993169Y-92814314D01*
G75*
G02*
X140081557Y-92814314I44194J-44194D01*
G01*
G37*
G36*
G01*
X140435110Y-92460760D02*
X141106862Y-93132512D01*
G75*
G02*
X141106862Y-93220900I-44194J-44194D01*
G01*
X141018474Y-93309288D01*
G75*
G02*
X140930086Y-93309288I-44194J44194D01*
G01*
X140258334Y-92637536D01*
G75*
G02*
X140258334Y-92549148I44194J44194D01*
G01*
X140346722Y-92460760D01*
G75*
G02*
X140435110Y-92460760I44194J-44194D01*
G01*
G37*
G36*
G01*
X142202878Y-92460760D02*
X142291266Y-92549148D01*
G75*
G02*
X142291266Y-92637536I-44194J-44194D01*
G01*
X141619514Y-93309288D01*
G75*
G02*
X141531126Y-93309288I-44194J44194D01*
G01*
X141442738Y-93220900D01*
G75*
G02*
X141442738Y-93132512I44194J44194D01*
G01*
X142114490Y-92460760D01*
G75*
G02*
X142202878Y-92460760I44194J-44194D01*
G01*
G37*
G36*
G01*
X142556431Y-92814314D02*
X142644819Y-92902702D01*
G75*
G02*
X142644819Y-92991090I-44194J-44194D01*
G01*
X141973067Y-93662842D01*
G75*
G02*
X141884679Y-93662842I-44194J44194D01*
G01*
X141796291Y-93574454D01*
G75*
G02*
X141796291Y-93486066I44194J44194D01*
G01*
X142468043Y-92814314D01*
G75*
G02*
X142556431Y-92814314I44194J-44194D01*
G01*
G37*
G36*
G01*
X142909985Y-93167867D02*
X142998373Y-93256255D01*
G75*
G02*
X142998373Y-93344643I-44194J-44194D01*
G01*
X142326621Y-94016395D01*
G75*
G02*
X142238233Y-94016395I-44194J44194D01*
G01*
X142149845Y-93928007D01*
G75*
G02*
X142149845Y-93839619I44194J44194D01*
G01*
X142821597Y-93167867D01*
G75*
G02*
X142909985Y-93167867I44194J-44194D01*
G01*
G37*
G36*
G01*
X143263538Y-93521420D02*
X143351926Y-93609808D01*
G75*
G02*
X143351926Y-93698196I-44194J-44194D01*
G01*
X142680174Y-94369948D01*
G75*
G02*
X142591786Y-94369948I-44194J44194D01*
G01*
X142503398Y-94281560D01*
G75*
G02*
X142503398Y-94193172I44194J44194D01*
G01*
X143175150Y-93521420D01*
G75*
G02*
X143263538Y-93521420I44194J-44194D01*
G01*
G37*
G36*
G01*
X143617091Y-93874974D02*
X143705479Y-93963362D01*
G75*
G02*
X143705479Y-94051750I-44194J-44194D01*
G01*
X143033727Y-94723502D01*
G75*
G02*
X142945339Y-94723502I-44194J44194D01*
G01*
X142856951Y-94635114D01*
G75*
G02*
X142856951Y-94546726I44194J44194D01*
G01*
X143528703Y-93874974D01*
G75*
G02*
X143617091Y-93874974I44194J-44194D01*
G01*
G37*
G36*
G01*
X143970645Y-94228527D02*
X144059033Y-94316915D01*
G75*
G02*
X144059033Y-94405303I-44194J-44194D01*
G01*
X143387281Y-95077055D01*
G75*
G02*
X143298893Y-95077055I-44194J44194D01*
G01*
X143210505Y-94988667D01*
G75*
G02*
X143210505Y-94900279I44194J44194D01*
G01*
X143882257Y-94228527D01*
G75*
G02*
X143970645Y-94228527I44194J-44194D01*
G01*
G37*
G36*
G01*
X144324198Y-94582081D02*
X144412586Y-94670469D01*
G75*
G02*
X144412586Y-94758857I-44194J-44194D01*
G01*
X143740834Y-95430609D01*
G75*
G02*
X143652446Y-95430609I-44194J44194D01*
G01*
X143564058Y-95342221D01*
G75*
G02*
X143564058Y-95253833I44194J44194D01*
G01*
X144235810Y-94582081D01*
G75*
G02*
X144324198Y-94582081I44194J-44194D01*
G01*
G37*
G36*
G01*
X144677752Y-94935634D02*
X144766140Y-95024022D01*
G75*
G02*
X144766140Y-95112410I-44194J-44194D01*
G01*
X144094388Y-95784162D01*
G75*
G02*
X144006000Y-95784162I-44194J44194D01*
G01*
X143917612Y-95695774D01*
G75*
G02*
X143917612Y-95607386I44194J44194D01*
G01*
X144589364Y-94935634D01*
G75*
G02*
X144677752Y-94935634I44194J-44194D01*
G01*
G37*
G36*
G01*
X145031305Y-95289187D02*
X145119693Y-95377575D01*
G75*
G02*
X145119693Y-95465963I-44194J-44194D01*
G01*
X144447941Y-96137715D01*
G75*
G02*
X144359553Y-96137715I-44194J44194D01*
G01*
X144271165Y-96049327D01*
G75*
G02*
X144271165Y-95960939I44194J44194D01*
G01*
X144942917Y-95289187D01*
G75*
G02*
X145031305Y-95289187I44194J-44194D01*
G01*
G37*
G36*
G01*
X145384858Y-95642741D02*
X145473246Y-95731129D01*
G75*
G02*
X145473246Y-95819517I-44194J-44194D01*
G01*
X144801494Y-96491269D01*
G75*
G02*
X144713106Y-96491269I-44194J44194D01*
G01*
X144624718Y-96402881D01*
G75*
G02*
X144624718Y-96314493I44194J44194D01*
G01*
X145296470Y-95642741D01*
G75*
G02*
X145384858Y-95642741I44194J-44194D01*
G01*
G37*
G36*
G01*
X145738412Y-95996294D02*
X145826800Y-96084682D01*
G75*
G02*
X145826800Y-96173070I-44194J-44194D01*
G01*
X145155048Y-96844822D01*
G75*
G02*
X145066660Y-96844822I-44194J44194D01*
G01*
X144978272Y-96756434D01*
G75*
G02*
X144978272Y-96668046I44194J44194D01*
G01*
X145650024Y-95996294D01*
G75*
G02*
X145738412Y-95996294I44194J-44194D01*
G01*
G37*
%TD*%
%TO.C,C7*%
G36*
G01*
X145669660Y-92410460D02*
X145669660Y-92750460D01*
G75*
G02*
X145529660Y-92890460I-140000J0D01*
G01*
X145249660Y-92890460D01*
G75*
G02*
X145109660Y-92750460I0J140000D01*
G01*
X145109660Y-92410460D01*
G75*
G02*
X145249660Y-92270460I140000J0D01*
G01*
X145529660Y-92270460D01*
G75*
G02*
X145669660Y-92410460I0J-140000D01*
G01*
G37*
G36*
G01*
X146629660Y-92410460D02*
X146629660Y-92750460D01*
G75*
G02*
X146489660Y-92890460I-140000J0D01*
G01*
X146209660Y-92890460D01*
G75*
G02*
X146069660Y-92750460I0J140000D01*
G01*
X146069660Y-92410460D01*
G75*
G02*
X146209660Y-92270460I140000J0D01*
G01*
X146489660Y-92270460D01*
G75*
G02*
X146629660Y-92410460I0J-140000D01*
G01*
G37*
%TD*%
%TO.C,C5*%
G36*
G01*
X137001860Y-94444640D02*
X137001860Y-94104640D01*
G75*
G02*
X137141860Y-93964640I140000J0D01*
G01*
X137421860Y-93964640D01*
G75*
G02*
X137561860Y-94104640I0J-140000D01*
G01*
X137561860Y-94444640D01*
G75*
G02*
X137421860Y-94584640I-140000J0D01*
G01*
X137141860Y-94584640D01*
G75*
G02*
X137001860Y-94444640I0J140000D01*
G01*
G37*
G36*
G01*
X136041860Y-94444640D02*
X136041860Y-94104640D01*
G75*
G02*
X136181860Y-93964640I140000J0D01*
G01*
X136461860Y-93964640D01*
G75*
G02*
X136601860Y-94104640I0J-140000D01*
G01*
X136601860Y-94444640D01*
G75*
G02*
X136461860Y-94584640I-140000J0D01*
G01*
X136181860Y-94584640D01*
G75*
G02*
X136041860Y-94444640I0J140000D01*
G01*
G37*
%TD*%
%TO.C,C4*%
G36*
G01*
X136601860Y-93114040D02*
X136601860Y-93454040D01*
G75*
G02*
X136461860Y-93594040I-140000J0D01*
G01*
X136181860Y-93594040D01*
G75*
G02*
X136041860Y-93454040I0J140000D01*
G01*
X136041860Y-93114040D01*
G75*
G02*
X136181860Y-92974040I140000J0D01*
G01*
X136461860Y-92974040D01*
G75*
G02*
X136601860Y-93114040I0J-140000D01*
G01*
G37*
G36*
G01*
X137561860Y-93114040D02*
X137561860Y-93454040D01*
G75*
G02*
X137421860Y-93594040I-140000J0D01*
G01*
X137141860Y-93594040D01*
G75*
G02*
X137001860Y-93454040I0J140000D01*
G01*
X137001860Y-93114040D01*
G75*
G02*
X137141860Y-92974040I140000J0D01*
G01*
X137421860Y-92974040D01*
G75*
G02*
X137561860Y-93114040I0J-140000D01*
G01*
G37*
%TD*%
%TO.C,D2*%
G36*
G01*
X139902980Y-89786960D02*
X139557980Y-89786960D01*
G75*
G02*
X139410480Y-89639460I0J147500D01*
G01*
X139410480Y-89344460D01*
G75*
G02*
X139557980Y-89196960I147500J0D01*
G01*
X139902980Y-89196960D01*
G75*
G02*
X140050480Y-89344460I0J-147500D01*
G01*
X140050480Y-89639460D01*
G75*
G02*
X139902980Y-89786960I-147500J0D01*
G01*
G37*
G36*
G01*
X139902980Y-90756960D02*
X139557980Y-90756960D01*
G75*
G02*
X139410480Y-90609460I0J147500D01*
G01*
X139410480Y-90314460D01*
G75*
G02*
X139557980Y-90166960I147500J0D01*
G01*
X139902980Y-90166960D01*
G75*
G02*
X140050480Y-90314460I0J-147500D01*
G01*
X140050480Y-90609460D01*
G75*
G02*
X139902980Y-90756960I-147500J0D01*
G01*
G37*
%TD*%
%TO.C,C2*%
G36*
G01*
X142743100Y-90159180D02*
X143083100Y-90159180D01*
G75*
G02*
X143223100Y-90299180I0J-140000D01*
G01*
X143223100Y-90579180D01*
G75*
G02*
X143083100Y-90719180I-140000J0D01*
G01*
X142743100Y-90719180D01*
G75*
G02*
X142603100Y-90579180I0J140000D01*
G01*
X142603100Y-90299180D01*
G75*
G02*
X142743100Y-90159180I140000J0D01*
G01*
G37*
G36*
G01*
X142743100Y-89199180D02*
X143083100Y-89199180D01*
G75*
G02*
X143223100Y-89339180I0J-140000D01*
G01*
X143223100Y-89619180D01*
G75*
G02*
X143083100Y-89759180I-140000J0D01*
G01*
X142743100Y-89759180D01*
G75*
G02*
X142603100Y-89619180I0J140000D01*
G01*
X142603100Y-89339180D01*
G75*
G02*
X142743100Y-89199180I140000J0D01*
G01*
G37*
%TD*%
D10*
%TO.C,Y1*%
X137360660Y-87817080D03*
X137360660Y-91517080D03*
%TD*%
%TO.C,SW2*%
G36*
G01*
X144274640Y-86806400D02*
X145874640Y-86806400D01*
G75*
G02*
X146074640Y-87006400I0J-200000D01*
G01*
X146074640Y-87406400D01*
G75*
G02*
X145874640Y-87606400I-200000J0D01*
G01*
X144274640Y-87606400D01*
G75*
G02*
X144074640Y-87406400I0J200000D01*
G01*
X144074640Y-87006400D01*
G75*
G02*
X144274640Y-86806400I200000J0D01*
G01*
G37*
G36*
G01*
X144274640Y-91006400D02*
X145874640Y-91006400D01*
G75*
G02*
X146074640Y-91206400I0J-200000D01*
G01*
X146074640Y-91606400D01*
G75*
G02*
X145874640Y-91806400I-200000J0D01*
G01*
X144274640Y-91806400D01*
G75*
G02*
X144074640Y-91606400I0J200000D01*
G01*
X144074640Y-91206400D01*
G75*
G02*
X144274640Y-91006400I200000J0D01*
G01*
G37*
%TD*%
%TO.C,U1*%
G36*
G01*
X141747260Y-86486980D02*
X141747260Y-86186980D01*
G75*
G02*
X141897260Y-86036980I150000J0D01*
G01*
X142922260Y-86036980D01*
G75*
G02*
X143072260Y-86186980I0J-150000D01*
G01*
X143072260Y-86486980D01*
G75*
G02*
X142922260Y-86636980I-150000J0D01*
G01*
X141897260Y-86636980D01*
G75*
G02*
X141747260Y-86486980I0J150000D01*
G01*
G37*
G36*
G01*
X141747260Y-88386980D02*
X141747260Y-88086980D01*
G75*
G02*
X141897260Y-87936980I150000J0D01*
G01*
X142922260Y-87936980D01*
G75*
G02*
X143072260Y-88086980I0J-150000D01*
G01*
X143072260Y-88386980D01*
G75*
G02*
X142922260Y-88536980I-150000J0D01*
G01*
X141897260Y-88536980D01*
G75*
G02*
X141747260Y-88386980I0J150000D01*
G01*
G37*
G36*
G01*
X139472260Y-88386980D02*
X139472260Y-88086980D01*
G75*
G02*
X139622260Y-87936980I150000J0D01*
G01*
X140647260Y-87936980D01*
G75*
G02*
X140797260Y-88086980I0J-150000D01*
G01*
X140797260Y-88386980D01*
G75*
G02*
X140647260Y-88536980I-150000J0D01*
G01*
X139622260Y-88536980D01*
G75*
G02*
X139472260Y-88386980I0J150000D01*
G01*
G37*
G36*
G01*
X139472260Y-87436980D02*
X139472260Y-87136980D01*
G75*
G02*
X139622260Y-86986980I150000J0D01*
G01*
X140647260Y-86986980D01*
G75*
G02*
X140797260Y-87136980I0J-150000D01*
G01*
X140797260Y-87436980D01*
G75*
G02*
X140647260Y-87586980I-150000J0D01*
G01*
X139622260Y-87586980D01*
G75*
G02*
X139472260Y-87436980I0J150000D01*
G01*
G37*
G36*
G01*
X139472260Y-86486980D02*
X139472260Y-86186980D01*
G75*
G02*
X139622260Y-86036980I150000J0D01*
G01*
X140647260Y-86036980D01*
G75*
G02*
X140797260Y-86186980I0J-150000D01*
G01*
X140797260Y-86486980D01*
G75*
G02*
X140647260Y-86636980I-150000J0D01*
G01*
X139622260Y-86636980D01*
G75*
G02*
X139472260Y-86486980I0J150000D01*
G01*
G37*
%TD*%
%TO.C,F1*%
G36*
G01*
X140816010Y-84236980D02*
X141728510Y-84236980D01*
G75*
G02*
X141972260Y-84480730I0J-243750D01*
G01*
X141972260Y-84968230D01*
G75*
G02*
X141728510Y-85211980I-243750J0D01*
G01*
X140816010Y-85211980D01*
G75*
G02*
X140572260Y-84968230I0J243750D01*
G01*
X140572260Y-84480730D01*
G75*
G02*
X140816010Y-84236980I243750J0D01*
G01*
G37*
G36*
G01*
X140816010Y-82361980D02*
X141728510Y-82361980D01*
G75*
G02*
X141972260Y-82605730I0J-243750D01*
G01*
X141972260Y-83093230D01*
G75*
G02*
X141728510Y-83336980I-243750J0D01*
G01*
X140816010Y-83336980D01*
G75*
G02*
X140572260Y-83093230I0J243750D01*
G01*
X140572260Y-82605730D01*
G75*
G02*
X140816010Y-82361980I243750J0D01*
G01*
G37*
%TD*%
%TO.C,C3*%
G36*
G01*
X143525921Y-83479760D02*
X142975919Y-83479760D01*
G75*
G02*
X142725920Y-83229761I0J249999D01*
G01*
X142725920Y-82604759D01*
G75*
G02*
X142975919Y-82354760I249999J0D01*
G01*
X143525921Y-82354760D01*
G75*
G02*
X143775920Y-82604759I0J-249999D01*
G01*
X143775920Y-83229761D01*
G75*
G02*
X143525921Y-83479760I-249999J0D01*
G01*
G37*
G36*
G01*
X143525921Y-85254760D02*
X142975919Y-85254760D01*
G75*
G02*
X142725920Y-85004761I0J249999D01*
G01*
X142725920Y-84379759D01*
G75*
G02*
X142975919Y-84129760I249999J0D01*
G01*
X143525921Y-84129760D01*
G75*
G02*
X143775920Y-84379759I0J-249999D01*
G01*
X143775920Y-85004761D01*
G75*
G02*
X143525921Y-85254760I-249999J0D01*
G01*
G37*
%TD*%
D11*
%TO.C,D3*%
X145440400Y-82905140D03*
X145440400Y-85705140D03*
%TD*%
%TO.C,C1*%
G36*
G01*
X139563521Y-83479760D02*
X139013519Y-83479760D01*
G75*
G02*
X138763520Y-83229761I0J249999D01*
G01*
X138763520Y-82604759D01*
G75*
G02*
X139013519Y-82354760I249999J0D01*
G01*
X139563521Y-82354760D01*
G75*
G02*
X139813520Y-82604759I0J-249999D01*
G01*
X139813520Y-83229761D01*
G75*
G02*
X139563521Y-83479760I-249999J0D01*
G01*
G37*
G36*
G01*
X139563521Y-85254760D02*
X139013519Y-85254760D01*
G75*
G02*
X138763520Y-85004761I0J249999D01*
G01*
X138763520Y-84379759D01*
G75*
G02*
X139013519Y-84129760I249999J0D01*
G01*
X139563521Y-84129760D01*
G75*
G02*
X139813520Y-84379759I0J-249999D01*
G01*
X139813520Y-85004761D01*
G75*
G02*
X139563521Y-85254760I-249999J0D01*
G01*
G37*
%TD*%
%TO.C,C6*%
G36*
G01*
X145666451Y-98870393D02*
X145906867Y-99110809D01*
G75*
G02*
X145906867Y-99308799I-98995J-98995D01*
G01*
X145708877Y-99506789D01*
G75*
G02*
X145510887Y-99506789I-98995J98995D01*
G01*
X145270471Y-99266373D01*
G75*
G02*
X145270471Y-99068383I98995J98995D01*
G01*
X145468461Y-98870393D01*
G75*
G02*
X145666451Y-98870393I98995J-98995D01*
G01*
G37*
G36*
G01*
X146345273Y-98191571D02*
X146585689Y-98431987D01*
G75*
G02*
X146585689Y-98629977I-98995J-98995D01*
G01*
X146387699Y-98827967D01*
G75*
G02*
X146189709Y-98827967I-98995J98995D01*
G01*
X145949293Y-98587551D01*
G75*
G02*
X145949293Y-98389561I98995J98995D01*
G01*
X146147283Y-98191571D01*
G75*
G02*
X146345273Y-98191571I98995J-98995D01*
G01*
G37*
%TD*%
D12*
%TO.C,J3*%
X146357340Y-105996740D03*
X143817340Y-105996740D03*
X141277340Y-105996740D03*
X138737340Y-105996740D03*
X136197340Y-105996740D03*
D13*
X146357340Y-104646740D03*
X143817340Y-104646740D03*
X141277340Y-104646740D03*
X138737340Y-104646740D03*
X136197340Y-104646740D03*
%TD*%
D11*
%TO.C,D1*%
X137101580Y-82907680D03*
X137101580Y-85707680D03*
%TD*%
D14*
%TO.C,J4*%
X150257500Y-104648000D03*
X150257500Y-102108000D03*
X150257500Y-97028000D03*
X150257500Y-94488000D03*
X150257500Y-91948000D03*
X150257500Y-89408000D03*
X150257500Y-86868000D03*
X150257500Y-99568000D03*
X150257500Y-84328000D03*
X150257500Y-81788000D03*
X150257500Y-79248000D03*
X150257500Y-76708000D03*
D13*
X148907500Y-76708000D03*
X148907500Y-79248000D03*
X148907500Y-81788000D03*
X148907500Y-84328000D03*
X148907500Y-86868000D03*
X148907500Y-89408000D03*
X148907500Y-91948000D03*
X148907500Y-94488000D03*
X148907500Y-97028000D03*
X148907500Y-99568000D03*
X148907500Y-102108000D03*
X148907500Y-104648000D03*
%TD*%
D14*
%TO.C,J2*%
X132317500Y-76708000D03*
X132317500Y-79248000D03*
X132317500Y-84328000D03*
X132317500Y-86868000D03*
X132317500Y-89408000D03*
X132317500Y-91948000D03*
X132317500Y-94488000D03*
X132317500Y-81788000D03*
X132317500Y-97028000D03*
X132317500Y-99568000D03*
X132317500Y-102108000D03*
X132317500Y-104648000D03*
D13*
X133667500Y-104648000D03*
X133667500Y-102108000D03*
X133667500Y-99568000D03*
X133667500Y-97028000D03*
X133667500Y-94488000D03*
X133667500Y-91948000D03*
X133667500Y-89408000D03*
X133667500Y-86868000D03*
X133667500Y-84328000D03*
X133667500Y-81788000D03*
X133667500Y-79248000D03*
X133667500Y-76708000D03*
%TD*%
%TO.C,C8*%
G36*
G01*
X148220980Y-74500560D02*
X148220980Y-74160560D01*
G75*
G02*
X148360980Y-74020560I140000J0D01*
G01*
X148640980Y-74020560D01*
G75*
G02*
X148780980Y-74160560I0J-140000D01*
G01*
X148780980Y-74500560D01*
G75*
G02*
X148640980Y-74640560I-140000J0D01*
G01*
X148360980Y-74640560D01*
G75*
G02*
X148220980Y-74500560I0J140000D01*
G01*
G37*
G36*
G01*
X147260980Y-74500560D02*
X147260980Y-74160560D01*
G75*
G02*
X147400980Y-74020560I140000J0D01*
G01*
X147680980Y-74020560D01*
G75*
G02*
X147820980Y-74160560I0J-140000D01*
G01*
X147820980Y-74500560D01*
G75*
G02*
X147680980Y-74640560I-140000J0D01*
G01*
X147400980Y-74640560D01*
G75*
G02*
X147260980Y-74500560I0J140000D01*
G01*
G37*
%TD*%
D15*
%TO.C,J1*%
X138022260Y-80824120D03*
X138822260Y-80824120D03*
X143722260Y-80824120D03*
X144522260Y-80824120D03*
X144522260Y-80824120D03*
X143722260Y-80824120D03*
X138822260Y-80824120D03*
X138022260Y-80824120D03*
D16*
X143022260Y-80824120D03*
X142522260Y-80824120D03*
X142022260Y-80824120D03*
X141022260Y-80824120D03*
X140522260Y-80824120D03*
X140022260Y-80824120D03*
X139522260Y-80824120D03*
X141522260Y-80824120D03*
D17*
X136952260Y-79909120D03*
X145592260Y-79909120D03*
D18*
X144162260Y-79379120D03*
D19*
X145592260Y-75729120D03*
D18*
X138382260Y-79379120D03*
D19*
X136952260Y-75729120D03*
%TD*%
%TO.C,R3*%
G36*
G01*
X134674780Y-74337240D02*
X134674780Y-74537240D01*
G75*
G02*
X134574780Y-74637240I-100000J0D01*
G01*
X134314780Y-74637240D01*
G75*
G02*
X134214780Y-74537240I0J100000D01*
G01*
X134214780Y-74337240D01*
G75*
G02*
X134314780Y-74237240I100000J0D01*
G01*
X134574780Y-74237240D01*
G75*
G02*
X134674780Y-74337240I0J-100000D01*
G01*
G37*
G36*
G01*
X135314780Y-74337240D02*
X135314780Y-74537240D01*
G75*
G02*
X135214780Y-74637240I-100000J0D01*
G01*
X134954780Y-74637240D01*
G75*
G02*
X134854780Y-74537240I0J100000D01*
G01*
X134854780Y-74337240D01*
G75*
G02*
X134954780Y-74237240I100000J0D01*
G01*
X135214780Y-74237240D01*
G75*
G02*
X135314780Y-74337240I0J-100000D01*
G01*
G37*
%TD*%
%TO.C,R5*%
G36*
G01*
X141962200Y-89848520D02*
X142162200Y-89848520D01*
G75*
G02*
X142262200Y-89948520I0J-100000D01*
G01*
X142262200Y-90208520D01*
G75*
G02*
X142162200Y-90308520I-100000J0D01*
G01*
X141962200Y-90308520D01*
G75*
G02*
X141862200Y-90208520I0J100000D01*
G01*
X141862200Y-89948520D01*
G75*
G02*
X141962200Y-89848520I100000J0D01*
G01*
G37*
G36*
G01*
X141962200Y-89208520D02*
X142162200Y-89208520D01*
G75*
G02*
X142262200Y-89308520I0J-100000D01*
G01*
X142262200Y-89568520D01*
G75*
G02*
X142162200Y-89668520I-100000J0D01*
G01*
X141962200Y-89668520D01*
G75*
G02*
X141862200Y-89568520I0J100000D01*
G01*
X141862200Y-89308520D01*
G75*
G02*
X141962200Y-89208520I100000J0D01*
G01*
G37*
%TD*%
%TO.C,R10*%
G36*
G01*
X140699160Y-89671060D02*
X140499160Y-89671060D01*
G75*
G02*
X140399160Y-89571060I0J100000D01*
G01*
X140399160Y-89311060D01*
G75*
G02*
X140499160Y-89211060I100000J0D01*
G01*
X140699160Y-89211060D01*
G75*
G02*
X140799160Y-89311060I0J-100000D01*
G01*
X140799160Y-89571060D01*
G75*
G02*
X140699160Y-89671060I-100000J0D01*
G01*
G37*
G36*
G01*
X140699160Y-90311060D02*
X140499160Y-90311060D01*
G75*
G02*
X140399160Y-90211060I0J100000D01*
G01*
X140399160Y-89951060D01*
G75*
G02*
X140499160Y-89851060I100000J0D01*
G01*
X140699160Y-89851060D01*
G75*
G02*
X140799160Y-89951060I0J-100000D01*
G01*
X140799160Y-90211060D01*
G75*
G02*
X140699160Y-90311060I-100000J0D01*
G01*
G37*
%TD*%
%TO.C,R6*%
G36*
G01*
X139474210Y-102205068D02*
X139615632Y-102346490D01*
G75*
G02*
X139615632Y-102487912I-70711J-70711D01*
G01*
X139431784Y-102671760D01*
G75*
G02*
X139290362Y-102671760I-70711J70711D01*
G01*
X139148940Y-102530338D01*
G75*
G02*
X139148940Y-102388916I70711J70711D01*
G01*
X139332788Y-102205068D01*
G75*
G02*
X139474210Y-102205068I70711J-70711D01*
G01*
G37*
G36*
G01*
X139926758Y-101752520D02*
X140068180Y-101893942D01*
G75*
G02*
X140068180Y-102035364I-70711J-70711D01*
G01*
X139884332Y-102219212D01*
G75*
G02*
X139742910Y-102219212I-70711J70711D01*
G01*
X139601488Y-102077790D01*
G75*
G02*
X139601488Y-101936368I70711J70711D01*
G01*
X139785336Y-101752520D01*
G75*
G02*
X139926758Y-101752520I70711J-70711D01*
G01*
G37*
%TD*%
%TO.C,R4*%
G36*
G01*
X141430680Y-89671060D02*
X141230680Y-89671060D01*
G75*
G02*
X141130680Y-89571060I0J100000D01*
G01*
X141130680Y-89311060D01*
G75*
G02*
X141230680Y-89211060I100000J0D01*
G01*
X141430680Y-89211060D01*
G75*
G02*
X141530680Y-89311060I0J-100000D01*
G01*
X141530680Y-89571060D01*
G75*
G02*
X141430680Y-89671060I-100000J0D01*
G01*
G37*
G36*
G01*
X141430680Y-90311060D02*
X141230680Y-90311060D01*
G75*
G02*
X141130680Y-90211060I0J100000D01*
G01*
X141130680Y-89951060D01*
G75*
G02*
X141230680Y-89851060I100000J0D01*
G01*
X141430680Y-89851060D01*
G75*
G02*
X141530680Y-89951060I0J-100000D01*
G01*
X141530680Y-90211060D01*
G75*
G02*
X141430680Y-90311060I-100000J0D01*
G01*
G37*
%TD*%
%TO.C,R2*%
G36*
G01*
X146328460Y-93902360D02*
X146528460Y-93902360D01*
G75*
G02*
X146628460Y-94002360I0J-100000D01*
G01*
X146628460Y-94262360D01*
G75*
G02*
X146528460Y-94362360I-100000J0D01*
G01*
X146328460Y-94362360D01*
G75*
G02*
X146228460Y-94262360I0J100000D01*
G01*
X146228460Y-94002360D01*
G75*
G02*
X146328460Y-93902360I100000J0D01*
G01*
G37*
G36*
G01*
X146328460Y-93262360D02*
X146528460Y-93262360D01*
G75*
G02*
X146628460Y-93362360I0J-100000D01*
G01*
X146628460Y-93622360D01*
G75*
G02*
X146528460Y-93722360I-100000J0D01*
G01*
X146328460Y-93722360D01*
G75*
G02*
X146228460Y-93622360I0J100000D01*
G01*
X146228460Y-93362360D01*
G75*
G02*
X146328460Y-93262360I100000J0D01*
G01*
G37*
%TD*%
%TO.C,R1*%
G36*
G01*
X145566460Y-93902360D02*
X145766460Y-93902360D01*
G75*
G02*
X145866460Y-94002360I0J-100000D01*
G01*
X145866460Y-94262360D01*
G75*
G02*
X145766460Y-94362360I-100000J0D01*
G01*
X145566460Y-94362360D01*
G75*
G02*
X145466460Y-94262360I0J100000D01*
G01*
X145466460Y-94002360D01*
G75*
G02*
X145566460Y-93902360I100000J0D01*
G01*
G37*
G36*
G01*
X145566460Y-93262360D02*
X145766460Y-93262360D01*
G75*
G02*
X145866460Y-93362360I0J-100000D01*
G01*
X145866460Y-93622360D01*
G75*
G02*
X145766460Y-93722360I-100000J0D01*
G01*
X145566460Y-93722360D01*
G75*
G02*
X145466460Y-93622360I0J100000D01*
G01*
X145466460Y-93362360D01*
G75*
G02*
X145566460Y-93262360I100000J0D01*
G01*
G37*
%TD*%
M02*
