%TF.GenerationSoftware,KiCad,Pcbnew,(5.1.8)-1*%
%TF.CreationDate,2020-12-07T22:14:58+07:00*%
%TF.ProjectId,ArduinoMicroC,41726475-696e-46f4-9d69-63726f432e6b,rev?*%
%TF.SameCoordinates,Original*%
%TF.FileFunction,Paste,Top*%
%TF.FilePolarity,Positive*%
%FSLAX46Y46*%
G04 Gerber Fmt 4.6, Leading zero omitted, Abs format (unit mm)*
G04 Created by KiCad (PCBNEW (5.1.8)-1) date 2020-12-07 22:14:58*
%MOMM*%
%LPD*%
G01*
G04 APERTURE LIST*
%ADD10R,1.100000X1.100000*%
%ADD11R,0.700000X0.700000*%
%ADD12R,1.200000X0.500000*%
%ADD13R,2.000000X2.400000*%
%ADD14R,0.300000X0.700000*%
G04 APERTURE END LIST*
%TO.C,U2*%
G36*
G01*
X145180448Y-100523338D02*
X145852200Y-101195090D01*
G75*
G02*
X145852200Y-101283478I-44194J-44194D01*
G01*
X145763812Y-101371866D01*
G75*
G02*
X145675424Y-101371866I-44194J44194D01*
G01*
X145003672Y-100700114D01*
G75*
G02*
X145003672Y-100611726I44194J44194D01*
G01*
X145092060Y-100523338D01*
G75*
G02*
X145180448Y-100523338I44194J-44194D01*
G01*
G37*
G36*
G01*
X144826894Y-100876891D02*
X145498646Y-101548643D01*
G75*
G02*
X145498646Y-101637031I-44194J-44194D01*
G01*
X145410258Y-101725419D01*
G75*
G02*
X145321870Y-101725419I-44194J44194D01*
G01*
X144650118Y-101053667D01*
G75*
G02*
X144650118Y-100965279I44194J44194D01*
G01*
X144738506Y-100876891D01*
G75*
G02*
X144826894Y-100876891I44194J-44194D01*
G01*
G37*
G36*
G01*
X144473341Y-101230445D02*
X145145093Y-101902197D01*
G75*
G02*
X145145093Y-101990585I-44194J-44194D01*
G01*
X145056705Y-102078973D01*
G75*
G02*
X144968317Y-102078973I-44194J44194D01*
G01*
X144296565Y-101407221D01*
G75*
G02*
X144296565Y-101318833I44194J44194D01*
G01*
X144384953Y-101230445D01*
G75*
G02*
X144473341Y-101230445I44194J-44194D01*
G01*
G37*
G36*
G01*
X144119788Y-101583998D02*
X144791540Y-102255750D01*
G75*
G02*
X144791540Y-102344138I-44194J-44194D01*
G01*
X144703152Y-102432526D01*
G75*
G02*
X144614764Y-102432526I-44194J44194D01*
G01*
X143943012Y-101760774D01*
G75*
G02*
X143943012Y-101672386I44194J44194D01*
G01*
X144031400Y-101583998D01*
G75*
G02*
X144119788Y-101583998I44194J-44194D01*
G01*
G37*
G36*
G01*
X143766234Y-101937551D02*
X144437986Y-102609303D01*
G75*
G02*
X144437986Y-102697691I-44194J-44194D01*
G01*
X144349598Y-102786079D01*
G75*
G02*
X144261210Y-102786079I-44194J44194D01*
G01*
X143589458Y-102114327D01*
G75*
G02*
X143589458Y-102025939I44194J44194D01*
G01*
X143677846Y-101937551D01*
G75*
G02*
X143766234Y-101937551I44194J-44194D01*
G01*
G37*
G36*
G01*
X143412681Y-102291105D02*
X144084433Y-102962857D01*
G75*
G02*
X144084433Y-103051245I-44194J-44194D01*
G01*
X143996045Y-103139633D01*
G75*
G02*
X143907657Y-103139633I-44194J44194D01*
G01*
X143235905Y-102467881D01*
G75*
G02*
X143235905Y-102379493I44194J44194D01*
G01*
X143324293Y-102291105D01*
G75*
G02*
X143412681Y-102291105I44194J-44194D01*
G01*
G37*
G36*
G01*
X143059127Y-102644658D02*
X143730879Y-103316410D01*
G75*
G02*
X143730879Y-103404798I-44194J-44194D01*
G01*
X143642491Y-103493186D01*
G75*
G02*
X143554103Y-103493186I-44194J44194D01*
G01*
X142882351Y-102821434D01*
G75*
G02*
X142882351Y-102733046I44194J44194D01*
G01*
X142970739Y-102644658D01*
G75*
G02*
X143059127Y-102644658I44194J-44194D01*
G01*
G37*
G36*
G01*
X142705574Y-102998212D02*
X143377326Y-103669964D01*
G75*
G02*
X143377326Y-103758352I-44194J-44194D01*
G01*
X143288938Y-103846740D01*
G75*
G02*
X143200550Y-103846740I-44194J44194D01*
G01*
X142528798Y-103174988D01*
G75*
G02*
X142528798Y-103086600I44194J44194D01*
G01*
X142617186Y-102998212D01*
G75*
G02*
X142705574Y-102998212I44194J-44194D01*
G01*
G37*
G36*
G01*
X142352021Y-103351765D02*
X143023773Y-104023517D01*
G75*
G02*
X143023773Y-104111905I-44194J-44194D01*
G01*
X142935385Y-104200293D01*
G75*
G02*
X142846997Y-104200293I-44194J44194D01*
G01*
X142175245Y-103528541D01*
G75*
G02*
X142175245Y-103440153I44194J44194D01*
G01*
X142263633Y-103351765D01*
G75*
G02*
X142352021Y-103351765I44194J-44194D01*
G01*
G37*
G36*
G01*
X141998467Y-103705318D02*
X142670219Y-104377070D01*
G75*
G02*
X142670219Y-104465458I-44194J-44194D01*
G01*
X142581831Y-104553846D01*
G75*
G02*
X142493443Y-104553846I-44194J44194D01*
G01*
X141821691Y-103882094D01*
G75*
G02*
X141821691Y-103793706I44194J44194D01*
G01*
X141910079Y-103705318D01*
G75*
G02*
X141998467Y-103705318I44194J-44194D01*
G01*
G37*
G36*
G01*
X141644914Y-104058872D02*
X142316666Y-104730624D01*
G75*
G02*
X142316666Y-104819012I-44194J-44194D01*
G01*
X142228278Y-104907400D01*
G75*
G02*
X142139890Y-104907400I-44194J44194D01*
G01*
X141468138Y-104235648D01*
G75*
G02*
X141468138Y-104147260I44194J44194D01*
G01*
X141556526Y-104058872D01*
G75*
G02*
X141644914Y-104058872I44194J-44194D01*
G01*
G37*
G36*
G01*
X141043874Y-104058872D02*
X141132262Y-104147260D01*
G75*
G02*
X141132262Y-104235648I-44194J-44194D01*
G01*
X140460510Y-104907400D01*
G75*
G02*
X140372122Y-104907400I-44194J44194D01*
G01*
X140283734Y-104819012D01*
G75*
G02*
X140283734Y-104730624I44194J44194D01*
G01*
X140955486Y-104058872D01*
G75*
G02*
X141043874Y-104058872I44194J-44194D01*
G01*
G37*
G36*
G01*
X140690321Y-103705318D02*
X140778709Y-103793706D01*
G75*
G02*
X140778709Y-103882094I-44194J-44194D01*
G01*
X140106957Y-104553846D01*
G75*
G02*
X140018569Y-104553846I-44194J44194D01*
G01*
X139930181Y-104465458D01*
G75*
G02*
X139930181Y-104377070I44194J44194D01*
G01*
X140601933Y-103705318D01*
G75*
G02*
X140690321Y-103705318I44194J-44194D01*
G01*
G37*
G36*
G01*
X140336767Y-103351765D02*
X140425155Y-103440153D01*
G75*
G02*
X140425155Y-103528541I-44194J-44194D01*
G01*
X139753403Y-104200293D01*
G75*
G02*
X139665015Y-104200293I-44194J44194D01*
G01*
X139576627Y-104111905D01*
G75*
G02*
X139576627Y-104023517I44194J44194D01*
G01*
X140248379Y-103351765D01*
G75*
G02*
X140336767Y-103351765I44194J-44194D01*
G01*
G37*
G36*
G01*
X139983214Y-102998212D02*
X140071602Y-103086600D01*
G75*
G02*
X140071602Y-103174988I-44194J-44194D01*
G01*
X139399850Y-103846740D01*
G75*
G02*
X139311462Y-103846740I-44194J44194D01*
G01*
X139223074Y-103758352D01*
G75*
G02*
X139223074Y-103669964I44194J44194D01*
G01*
X139894826Y-102998212D01*
G75*
G02*
X139983214Y-102998212I44194J-44194D01*
G01*
G37*
G36*
G01*
X139629661Y-102644658D02*
X139718049Y-102733046D01*
G75*
G02*
X139718049Y-102821434I-44194J-44194D01*
G01*
X139046297Y-103493186D01*
G75*
G02*
X138957909Y-103493186I-44194J44194D01*
G01*
X138869521Y-103404798D01*
G75*
G02*
X138869521Y-103316410I44194J44194D01*
G01*
X139541273Y-102644658D01*
G75*
G02*
X139629661Y-102644658I44194J-44194D01*
G01*
G37*
G36*
G01*
X139276107Y-102291105D02*
X139364495Y-102379493D01*
G75*
G02*
X139364495Y-102467881I-44194J-44194D01*
G01*
X138692743Y-103139633D01*
G75*
G02*
X138604355Y-103139633I-44194J44194D01*
G01*
X138515967Y-103051245D01*
G75*
G02*
X138515967Y-102962857I44194J44194D01*
G01*
X139187719Y-102291105D01*
G75*
G02*
X139276107Y-102291105I44194J-44194D01*
G01*
G37*
G36*
G01*
X138922554Y-101937551D02*
X139010942Y-102025939D01*
G75*
G02*
X139010942Y-102114327I-44194J-44194D01*
G01*
X138339190Y-102786079D01*
G75*
G02*
X138250802Y-102786079I-44194J44194D01*
G01*
X138162414Y-102697691D01*
G75*
G02*
X138162414Y-102609303I44194J44194D01*
G01*
X138834166Y-101937551D01*
G75*
G02*
X138922554Y-101937551I44194J-44194D01*
G01*
G37*
G36*
G01*
X138569000Y-101583998D02*
X138657388Y-101672386D01*
G75*
G02*
X138657388Y-101760774I-44194J-44194D01*
G01*
X137985636Y-102432526D01*
G75*
G02*
X137897248Y-102432526I-44194J44194D01*
G01*
X137808860Y-102344138D01*
G75*
G02*
X137808860Y-102255750I44194J44194D01*
G01*
X138480612Y-101583998D01*
G75*
G02*
X138569000Y-101583998I44194J-44194D01*
G01*
G37*
G36*
G01*
X138215447Y-101230445D02*
X138303835Y-101318833D01*
G75*
G02*
X138303835Y-101407221I-44194J-44194D01*
G01*
X137632083Y-102078973D01*
G75*
G02*
X137543695Y-102078973I-44194J44194D01*
G01*
X137455307Y-101990585D01*
G75*
G02*
X137455307Y-101902197I44194J44194D01*
G01*
X138127059Y-101230445D01*
G75*
G02*
X138215447Y-101230445I44194J-44194D01*
G01*
G37*
G36*
G01*
X137861894Y-100876891D02*
X137950282Y-100965279D01*
G75*
G02*
X137950282Y-101053667I-44194J-44194D01*
G01*
X137278530Y-101725419D01*
G75*
G02*
X137190142Y-101725419I-44194J44194D01*
G01*
X137101754Y-101637031D01*
G75*
G02*
X137101754Y-101548643I44194J44194D01*
G01*
X137773506Y-100876891D01*
G75*
G02*
X137861894Y-100876891I44194J-44194D01*
G01*
G37*
G36*
G01*
X137508340Y-100523338D02*
X137596728Y-100611726D01*
G75*
G02*
X137596728Y-100700114I-44194J-44194D01*
G01*
X136924976Y-101371866D01*
G75*
G02*
X136836588Y-101371866I-44194J44194D01*
G01*
X136748200Y-101283478D01*
G75*
G02*
X136748200Y-101195090I44194J44194D01*
G01*
X137419952Y-100523338D01*
G75*
G02*
X137508340Y-100523338I44194J-44194D01*
G01*
G37*
G36*
G01*
X136924976Y-99338934D02*
X137596728Y-100010686D01*
G75*
G02*
X137596728Y-100099074I-44194J-44194D01*
G01*
X137508340Y-100187462D01*
G75*
G02*
X137419952Y-100187462I-44194J44194D01*
G01*
X136748200Y-99515710D01*
G75*
G02*
X136748200Y-99427322I44194J44194D01*
G01*
X136836588Y-99338934D01*
G75*
G02*
X136924976Y-99338934I44194J-44194D01*
G01*
G37*
G36*
G01*
X137278530Y-98985381D02*
X137950282Y-99657133D01*
G75*
G02*
X137950282Y-99745521I-44194J-44194D01*
G01*
X137861894Y-99833909D01*
G75*
G02*
X137773506Y-99833909I-44194J44194D01*
G01*
X137101754Y-99162157D01*
G75*
G02*
X137101754Y-99073769I44194J44194D01*
G01*
X137190142Y-98985381D01*
G75*
G02*
X137278530Y-98985381I44194J-44194D01*
G01*
G37*
G36*
G01*
X137632083Y-98631827D02*
X138303835Y-99303579D01*
G75*
G02*
X138303835Y-99391967I-44194J-44194D01*
G01*
X138215447Y-99480355D01*
G75*
G02*
X138127059Y-99480355I-44194J44194D01*
G01*
X137455307Y-98808603D01*
G75*
G02*
X137455307Y-98720215I44194J44194D01*
G01*
X137543695Y-98631827D01*
G75*
G02*
X137632083Y-98631827I44194J-44194D01*
G01*
G37*
G36*
G01*
X137985636Y-98278274D02*
X138657388Y-98950026D01*
G75*
G02*
X138657388Y-99038414I-44194J-44194D01*
G01*
X138569000Y-99126802D01*
G75*
G02*
X138480612Y-99126802I-44194J44194D01*
G01*
X137808860Y-98455050D01*
G75*
G02*
X137808860Y-98366662I44194J44194D01*
G01*
X137897248Y-98278274D01*
G75*
G02*
X137985636Y-98278274I44194J-44194D01*
G01*
G37*
G36*
G01*
X138339190Y-97924721D02*
X139010942Y-98596473D01*
G75*
G02*
X139010942Y-98684861I-44194J-44194D01*
G01*
X138922554Y-98773249D01*
G75*
G02*
X138834166Y-98773249I-44194J44194D01*
G01*
X138162414Y-98101497D01*
G75*
G02*
X138162414Y-98013109I44194J44194D01*
G01*
X138250802Y-97924721D01*
G75*
G02*
X138339190Y-97924721I44194J-44194D01*
G01*
G37*
G36*
G01*
X138692743Y-97571167D02*
X139364495Y-98242919D01*
G75*
G02*
X139364495Y-98331307I-44194J-44194D01*
G01*
X139276107Y-98419695D01*
G75*
G02*
X139187719Y-98419695I-44194J44194D01*
G01*
X138515967Y-97747943D01*
G75*
G02*
X138515967Y-97659555I44194J44194D01*
G01*
X138604355Y-97571167D01*
G75*
G02*
X138692743Y-97571167I44194J-44194D01*
G01*
G37*
G36*
G01*
X139046297Y-97217614D02*
X139718049Y-97889366D01*
G75*
G02*
X139718049Y-97977754I-44194J-44194D01*
G01*
X139629661Y-98066142D01*
G75*
G02*
X139541273Y-98066142I-44194J44194D01*
G01*
X138869521Y-97394390D01*
G75*
G02*
X138869521Y-97306002I44194J44194D01*
G01*
X138957909Y-97217614D01*
G75*
G02*
X139046297Y-97217614I44194J-44194D01*
G01*
G37*
G36*
G01*
X139399850Y-96864060D02*
X140071602Y-97535812D01*
G75*
G02*
X140071602Y-97624200I-44194J-44194D01*
G01*
X139983214Y-97712588D01*
G75*
G02*
X139894826Y-97712588I-44194J44194D01*
G01*
X139223074Y-97040836D01*
G75*
G02*
X139223074Y-96952448I44194J44194D01*
G01*
X139311462Y-96864060D01*
G75*
G02*
X139399850Y-96864060I44194J-44194D01*
G01*
G37*
G36*
G01*
X139753403Y-96510507D02*
X140425155Y-97182259D01*
G75*
G02*
X140425155Y-97270647I-44194J-44194D01*
G01*
X140336767Y-97359035D01*
G75*
G02*
X140248379Y-97359035I-44194J44194D01*
G01*
X139576627Y-96687283D01*
G75*
G02*
X139576627Y-96598895I44194J44194D01*
G01*
X139665015Y-96510507D01*
G75*
G02*
X139753403Y-96510507I44194J-44194D01*
G01*
G37*
G36*
G01*
X140106957Y-96156954D02*
X140778709Y-96828706D01*
G75*
G02*
X140778709Y-96917094I-44194J-44194D01*
G01*
X140690321Y-97005482D01*
G75*
G02*
X140601933Y-97005482I-44194J44194D01*
G01*
X139930181Y-96333730D01*
G75*
G02*
X139930181Y-96245342I44194J44194D01*
G01*
X140018569Y-96156954D01*
G75*
G02*
X140106957Y-96156954I44194J-44194D01*
G01*
G37*
G36*
G01*
X140460510Y-95803400D02*
X141132262Y-96475152D01*
G75*
G02*
X141132262Y-96563540I-44194J-44194D01*
G01*
X141043874Y-96651928D01*
G75*
G02*
X140955486Y-96651928I-44194J44194D01*
G01*
X140283734Y-95980176D01*
G75*
G02*
X140283734Y-95891788I44194J44194D01*
G01*
X140372122Y-95803400D01*
G75*
G02*
X140460510Y-95803400I44194J-44194D01*
G01*
G37*
G36*
G01*
X142228278Y-95803400D02*
X142316666Y-95891788D01*
G75*
G02*
X142316666Y-95980176I-44194J-44194D01*
G01*
X141644914Y-96651928D01*
G75*
G02*
X141556526Y-96651928I-44194J44194D01*
G01*
X141468138Y-96563540D01*
G75*
G02*
X141468138Y-96475152I44194J44194D01*
G01*
X142139890Y-95803400D01*
G75*
G02*
X142228278Y-95803400I44194J-44194D01*
G01*
G37*
G36*
G01*
X142581831Y-96156954D02*
X142670219Y-96245342D01*
G75*
G02*
X142670219Y-96333730I-44194J-44194D01*
G01*
X141998467Y-97005482D01*
G75*
G02*
X141910079Y-97005482I-44194J44194D01*
G01*
X141821691Y-96917094D01*
G75*
G02*
X141821691Y-96828706I44194J44194D01*
G01*
X142493443Y-96156954D01*
G75*
G02*
X142581831Y-96156954I44194J-44194D01*
G01*
G37*
G36*
G01*
X142935385Y-96510507D02*
X143023773Y-96598895D01*
G75*
G02*
X143023773Y-96687283I-44194J-44194D01*
G01*
X142352021Y-97359035D01*
G75*
G02*
X142263633Y-97359035I-44194J44194D01*
G01*
X142175245Y-97270647D01*
G75*
G02*
X142175245Y-97182259I44194J44194D01*
G01*
X142846997Y-96510507D01*
G75*
G02*
X142935385Y-96510507I44194J-44194D01*
G01*
G37*
G36*
G01*
X143288938Y-96864060D02*
X143377326Y-96952448D01*
G75*
G02*
X143377326Y-97040836I-44194J-44194D01*
G01*
X142705574Y-97712588D01*
G75*
G02*
X142617186Y-97712588I-44194J44194D01*
G01*
X142528798Y-97624200D01*
G75*
G02*
X142528798Y-97535812I44194J44194D01*
G01*
X143200550Y-96864060D01*
G75*
G02*
X143288938Y-96864060I44194J-44194D01*
G01*
G37*
G36*
G01*
X143642491Y-97217614D02*
X143730879Y-97306002D01*
G75*
G02*
X143730879Y-97394390I-44194J-44194D01*
G01*
X143059127Y-98066142D01*
G75*
G02*
X142970739Y-98066142I-44194J44194D01*
G01*
X142882351Y-97977754D01*
G75*
G02*
X142882351Y-97889366I44194J44194D01*
G01*
X143554103Y-97217614D01*
G75*
G02*
X143642491Y-97217614I44194J-44194D01*
G01*
G37*
G36*
G01*
X143996045Y-97571167D02*
X144084433Y-97659555D01*
G75*
G02*
X144084433Y-97747943I-44194J-44194D01*
G01*
X143412681Y-98419695D01*
G75*
G02*
X143324293Y-98419695I-44194J44194D01*
G01*
X143235905Y-98331307D01*
G75*
G02*
X143235905Y-98242919I44194J44194D01*
G01*
X143907657Y-97571167D01*
G75*
G02*
X143996045Y-97571167I44194J-44194D01*
G01*
G37*
G36*
G01*
X144349598Y-97924721D02*
X144437986Y-98013109D01*
G75*
G02*
X144437986Y-98101497I-44194J-44194D01*
G01*
X143766234Y-98773249D01*
G75*
G02*
X143677846Y-98773249I-44194J44194D01*
G01*
X143589458Y-98684861D01*
G75*
G02*
X143589458Y-98596473I44194J44194D01*
G01*
X144261210Y-97924721D01*
G75*
G02*
X144349598Y-97924721I44194J-44194D01*
G01*
G37*
G36*
G01*
X144703152Y-98278274D02*
X144791540Y-98366662D01*
G75*
G02*
X144791540Y-98455050I-44194J-44194D01*
G01*
X144119788Y-99126802D01*
G75*
G02*
X144031400Y-99126802I-44194J44194D01*
G01*
X143943012Y-99038414D01*
G75*
G02*
X143943012Y-98950026I44194J44194D01*
G01*
X144614764Y-98278274D01*
G75*
G02*
X144703152Y-98278274I44194J-44194D01*
G01*
G37*
G36*
G01*
X145056705Y-98631827D02*
X145145093Y-98720215D01*
G75*
G02*
X145145093Y-98808603I-44194J-44194D01*
G01*
X144473341Y-99480355D01*
G75*
G02*
X144384953Y-99480355I-44194J44194D01*
G01*
X144296565Y-99391967D01*
G75*
G02*
X144296565Y-99303579I44194J44194D01*
G01*
X144968317Y-98631827D01*
G75*
G02*
X145056705Y-98631827I44194J-44194D01*
G01*
G37*
G36*
G01*
X145410258Y-98985381D02*
X145498646Y-99073769D01*
G75*
G02*
X145498646Y-99162157I-44194J-44194D01*
G01*
X144826894Y-99833909D01*
G75*
G02*
X144738506Y-99833909I-44194J44194D01*
G01*
X144650118Y-99745521D01*
G75*
G02*
X144650118Y-99657133I44194J44194D01*
G01*
X145321870Y-98985381D01*
G75*
G02*
X145410258Y-98985381I44194J-44194D01*
G01*
G37*
G36*
G01*
X145763812Y-99338934D02*
X145852200Y-99427322D01*
G75*
G02*
X145852200Y-99515710I-44194J-44194D01*
G01*
X145180448Y-100187462D01*
G75*
G02*
X145092060Y-100187462I-44194J44194D01*
G01*
X145003672Y-100099074D01*
G75*
G02*
X145003672Y-100010686I44194J44194D01*
G01*
X145675424Y-99338934D01*
G75*
G02*
X145763812Y-99338934I44194J-44194D01*
G01*
G37*
%TD*%
D10*
%TO.C,D3*%
X142113000Y-87347600D03*
X142113000Y-90147600D03*
%TD*%
%TO.C,D1*%
X136702800Y-87373000D03*
X136702800Y-90173000D03*
%TD*%
D11*
%TO.C,SW1*%
X139226400Y-83785200D03*
X143526400Y-83785200D03*
X139226400Y-85785200D03*
X143526400Y-85785200D03*
D12*
X138426400Y-84785200D03*
X144326400Y-84785200D03*
%TD*%
%TO.C,SW2*%
G36*
G01*
X146899000Y-91986200D02*
X146899000Y-93586200D01*
G75*
G02*
X146699000Y-93786200I-200000J0D01*
G01*
X146299000Y-93786200D01*
G75*
G02*
X146099000Y-93586200I0J200000D01*
G01*
X146099000Y-91986200D01*
G75*
G02*
X146299000Y-91786200I200000J0D01*
G01*
X146699000Y-91786200D01*
G75*
G02*
X146899000Y-91986200I0J-200000D01*
G01*
G37*
G36*
G01*
X142699000Y-91986200D02*
X142699000Y-93586200D01*
G75*
G02*
X142499000Y-93786200I-200000J0D01*
G01*
X142099000Y-93786200D01*
G75*
G02*
X141899000Y-93586200I0J200000D01*
G01*
X141899000Y-91986200D01*
G75*
G02*
X142099000Y-91786200I200000J0D01*
G01*
X142499000Y-91786200D01*
G75*
G02*
X142699000Y-91986200I0J-200000D01*
G01*
G37*
%TD*%
%TO.C,R5*%
G36*
G01*
X138311200Y-95274300D02*
X138311200Y-95073300D01*
G75*
G02*
X138390700Y-94993800I79500J0D01*
G01*
X138549700Y-94993800D01*
G75*
G02*
X138629200Y-95073300I0J-79500D01*
G01*
X138629200Y-95274300D01*
G75*
G02*
X138549700Y-95353800I-79500J0D01*
G01*
X138390700Y-95353800D01*
G75*
G02*
X138311200Y-95274300I0J79500D01*
G01*
G37*
G36*
G01*
X137621200Y-95274300D02*
X137621200Y-95073300D01*
G75*
G02*
X137700700Y-94993800I79500J0D01*
G01*
X137859700Y-94993800D01*
G75*
G02*
X137939200Y-95073300I0J-79500D01*
G01*
X137939200Y-95274300D01*
G75*
G02*
X137859700Y-95353800I-79500J0D01*
G01*
X137700700Y-95353800D01*
G75*
G02*
X137621200Y-95274300I0J79500D01*
G01*
G37*
%TD*%
%TO.C,R10*%
G36*
G01*
X140102400Y-95073300D02*
X140102400Y-95274300D01*
G75*
G02*
X140022900Y-95353800I-79500J0D01*
G01*
X139863900Y-95353800D01*
G75*
G02*
X139784400Y-95274300I0J79500D01*
G01*
X139784400Y-95073300D01*
G75*
G02*
X139863900Y-94993800I79500J0D01*
G01*
X140022900Y-94993800D01*
G75*
G02*
X140102400Y-95073300I0J-79500D01*
G01*
G37*
G36*
G01*
X139412400Y-95073300D02*
X139412400Y-95274300D01*
G75*
G02*
X139332900Y-95353800I-79500J0D01*
G01*
X139173900Y-95353800D01*
G75*
G02*
X139094400Y-95274300I0J79500D01*
G01*
X139094400Y-95073300D01*
G75*
G02*
X139173900Y-94993800I79500J0D01*
G01*
X139332900Y-94993800D01*
G75*
G02*
X139412400Y-95073300I0J-79500D01*
G01*
G37*
%TD*%
D13*
%TO.C,Y1*%
X140381600Y-92862400D03*
X136681600Y-92862400D03*
%TD*%
%TO.C,U1*%
G36*
G01*
X145834000Y-89400400D02*
X146134000Y-89400400D01*
G75*
G02*
X146284000Y-89550400I0J-150000D01*
G01*
X146284000Y-90575400D01*
G75*
G02*
X146134000Y-90725400I-150000J0D01*
G01*
X145834000Y-90725400D01*
G75*
G02*
X145684000Y-90575400I0J150000D01*
G01*
X145684000Y-89550400D01*
G75*
G02*
X145834000Y-89400400I150000J0D01*
G01*
G37*
G36*
G01*
X143934000Y-89400400D02*
X144234000Y-89400400D01*
G75*
G02*
X144384000Y-89550400I0J-150000D01*
G01*
X144384000Y-90575400D01*
G75*
G02*
X144234000Y-90725400I-150000J0D01*
G01*
X143934000Y-90725400D01*
G75*
G02*
X143784000Y-90575400I0J150000D01*
G01*
X143784000Y-89550400D01*
G75*
G02*
X143934000Y-89400400I150000J0D01*
G01*
G37*
G36*
G01*
X143934000Y-87125400D02*
X144234000Y-87125400D01*
G75*
G02*
X144384000Y-87275400I0J-150000D01*
G01*
X144384000Y-88300400D01*
G75*
G02*
X144234000Y-88450400I-150000J0D01*
G01*
X143934000Y-88450400D01*
G75*
G02*
X143784000Y-88300400I0J150000D01*
G01*
X143784000Y-87275400D01*
G75*
G02*
X143934000Y-87125400I150000J0D01*
G01*
G37*
G36*
G01*
X144884000Y-87125400D02*
X145184000Y-87125400D01*
G75*
G02*
X145334000Y-87275400I0J-150000D01*
G01*
X145334000Y-88300400D01*
G75*
G02*
X145184000Y-88450400I-150000J0D01*
G01*
X144884000Y-88450400D01*
G75*
G02*
X144734000Y-88300400I0J150000D01*
G01*
X144734000Y-87275400D01*
G75*
G02*
X144884000Y-87125400I150000J0D01*
G01*
G37*
G36*
G01*
X145834000Y-87125400D02*
X146134000Y-87125400D01*
G75*
G02*
X146284000Y-87275400I0J-150000D01*
G01*
X146284000Y-88300400D01*
G75*
G02*
X146134000Y-88450400I-150000J0D01*
G01*
X145834000Y-88450400D01*
G75*
G02*
X145684000Y-88300400I0J150000D01*
G01*
X145684000Y-87275400D01*
G75*
G02*
X145834000Y-87125400I150000J0D01*
G01*
G37*
%TD*%
%TO.C,R6*%
G36*
G01*
X139285400Y-105487300D02*
X139285400Y-105688300D01*
G75*
G02*
X139205900Y-105767800I-79500J0D01*
G01*
X139046900Y-105767800D01*
G75*
G02*
X138967400Y-105688300I0J79500D01*
G01*
X138967400Y-105487300D01*
G75*
G02*
X139046900Y-105407800I79500J0D01*
G01*
X139205900Y-105407800D01*
G75*
G02*
X139285400Y-105487300I0J-79500D01*
G01*
G37*
G36*
G01*
X139975400Y-105487300D02*
X139975400Y-105688300D01*
G75*
G02*
X139895900Y-105767800I-79500J0D01*
G01*
X139736900Y-105767800D01*
G75*
G02*
X139657400Y-105688300I0J79500D01*
G01*
X139657400Y-105487300D01*
G75*
G02*
X139736900Y-105407800I79500J0D01*
G01*
X139895900Y-105407800D01*
G75*
G02*
X139975400Y-105487300I0J-79500D01*
G01*
G37*
%TD*%
%TO.C,R4*%
G36*
G01*
X138209600Y-105688300D02*
X138209600Y-105487300D01*
G75*
G02*
X138289100Y-105407800I79500J0D01*
G01*
X138448100Y-105407800D01*
G75*
G02*
X138527600Y-105487300I0J-79500D01*
G01*
X138527600Y-105688300D01*
G75*
G02*
X138448100Y-105767800I-79500J0D01*
G01*
X138289100Y-105767800D01*
G75*
G02*
X138209600Y-105688300I0J79500D01*
G01*
G37*
G36*
G01*
X137519600Y-105688300D02*
X137519600Y-105487300D01*
G75*
G02*
X137599100Y-105407800I79500J0D01*
G01*
X137758100Y-105407800D01*
G75*
G02*
X137837600Y-105487300I0J-79500D01*
G01*
X137837600Y-105688300D01*
G75*
G02*
X137758100Y-105767800I-79500J0D01*
G01*
X137599100Y-105767800D01*
G75*
G02*
X137519600Y-105688300I0J79500D01*
G01*
G37*
%TD*%
%TO.C,R3*%
G36*
G01*
X147988600Y-74446300D02*
X147988600Y-74245300D01*
G75*
G02*
X148068100Y-74165800I79500J0D01*
G01*
X148227100Y-74165800D01*
G75*
G02*
X148306600Y-74245300I0J-79500D01*
G01*
X148306600Y-74446300D01*
G75*
G02*
X148227100Y-74525800I-79500J0D01*
G01*
X148068100Y-74525800D01*
G75*
G02*
X147988600Y-74446300I0J79500D01*
G01*
G37*
G36*
G01*
X147298600Y-74446300D02*
X147298600Y-74245300D01*
G75*
G02*
X147378100Y-74165800I79500J0D01*
G01*
X147537100Y-74165800D01*
G75*
G02*
X147616600Y-74245300I0J-79500D01*
G01*
X147616600Y-74446300D01*
G75*
G02*
X147537100Y-74525800I-79500J0D01*
G01*
X147378100Y-74525800D01*
G75*
G02*
X147298600Y-74446300I0J79500D01*
G01*
G37*
%TD*%
%TO.C,R2*%
G36*
G01*
X146355900Y-97214000D02*
X146556900Y-97214000D01*
G75*
G02*
X146636400Y-97293500I0J-79500D01*
G01*
X146636400Y-97452500D01*
G75*
G02*
X146556900Y-97532000I-79500J0D01*
G01*
X146355900Y-97532000D01*
G75*
G02*
X146276400Y-97452500I0J79500D01*
G01*
X146276400Y-97293500D01*
G75*
G02*
X146355900Y-97214000I79500J0D01*
G01*
G37*
G36*
G01*
X146355900Y-96524000D02*
X146556900Y-96524000D01*
G75*
G02*
X146636400Y-96603500I0J-79500D01*
G01*
X146636400Y-96762500D01*
G75*
G02*
X146556900Y-96842000I-79500J0D01*
G01*
X146355900Y-96842000D01*
G75*
G02*
X146276400Y-96762500I0J79500D01*
G01*
X146276400Y-96603500D01*
G75*
G02*
X146355900Y-96524000I79500J0D01*
G01*
G37*
%TD*%
%TO.C,R1*%
G36*
G01*
X145593900Y-97214000D02*
X145794900Y-97214000D01*
G75*
G02*
X145874400Y-97293500I0J-79500D01*
G01*
X145874400Y-97452500D01*
G75*
G02*
X145794900Y-97532000I-79500J0D01*
G01*
X145593900Y-97532000D01*
G75*
G02*
X145514400Y-97452500I0J79500D01*
G01*
X145514400Y-97293500D01*
G75*
G02*
X145593900Y-97214000I79500J0D01*
G01*
G37*
G36*
G01*
X145593900Y-96524000D02*
X145794900Y-96524000D01*
G75*
G02*
X145874400Y-96603500I0J-79500D01*
G01*
X145874400Y-96762500D01*
G75*
G02*
X145794900Y-96842000I-79500J0D01*
G01*
X145593900Y-96842000D01*
G75*
G02*
X145514400Y-96762500I0J79500D01*
G01*
X145514400Y-96603500D01*
G75*
G02*
X145593900Y-96524000I79500J0D01*
G01*
G37*
%TD*%
D14*
%TO.C,J1*%
X144274800Y-80637600D03*
X143774800Y-80637600D03*
X143274800Y-80637600D03*
X142774800Y-80637600D03*
X142274800Y-80637600D03*
X141774800Y-80637600D03*
X141274800Y-80637600D03*
X140774800Y-80637600D03*
X140274800Y-80637600D03*
X139774800Y-80637600D03*
X139274800Y-80637600D03*
X138774800Y-80637600D03*
X139024800Y-82337600D03*
X140524800Y-82337600D03*
X140024800Y-82337600D03*
X139524800Y-82337600D03*
X138524800Y-82337600D03*
X141024800Y-82337600D03*
X141524800Y-82337600D03*
X142024800Y-82337600D03*
X142524800Y-82337600D03*
X143024800Y-82337600D03*
X143524800Y-82337600D03*
X144024800Y-82337600D03*
%TD*%
%TO.C,F1*%
G36*
G01*
X136068750Y-83461800D02*
X136981250Y-83461800D01*
G75*
G02*
X137225000Y-83705550I0J-243750D01*
G01*
X137225000Y-84193050D01*
G75*
G02*
X136981250Y-84436800I-243750J0D01*
G01*
X136068750Y-84436800D01*
G75*
G02*
X135825000Y-84193050I0J243750D01*
G01*
X135825000Y-83705550D01*
G75*
G02*
X136068750Y-83461800I243750J0D01*
G01*
G37*
G36*
G01*
X136068750Y-85336800D02*
X136981250Y-85336800D01*
G75*
G02*
X137225000Y-85580550I0J-243750D01*
G01*
X137225000Y-86068050D01*
G75*
G02*
X136981250Y-86311800I-243750J0D01*
G01*
X136068750Y-86311800D01*
G75*
G02*
X135825000Y-86068050I0J243750D01*
G01*
X135825000Y-85580550D01*
G75*
G02*
X136068750Y-85336800I243750J0D01*
G01*
G37*
%TD*%
%TO.C,D2*%
G36*
G01*
X137571700Y-104482400D02*
X137916700Y-104482400D01*
G75*
G02*
X138064200Y-104629900I0J-147500D01*
G01*
X138064200Y-104924900D01*
G75*
G02*
X137916700Y-105072400I-147500J0D01*
G01*
X137571700Y-105072400D01*
G75*
G02*
X137424200Y-104924900I0J147500D01*
G01*
X137424200Y-104629900D01*
G75*
G02*
X137571700Y-104482400I147500J0D01*
G01*
G37*
G36*
G01*
X137571700Y-103512400D02*
X137916700Y-103512400D01*
G75*
G02*
X138064200Y-103659900I0J-147500D01*
G01*
X138064200Y-103954900D01*
G75*
G02*
X137916700Y-104102400I-147500J0D01*
G01*
X137571700Y-104102400D01*
G75*
G02*
X137424200Y-103954900I0J147500D01*
G01*
X137424200Y-103659900D01*
G75*
G02*
X137571700Y-103512400I147500J0D01*
G01*
G37*
%TD*%
%TO.C,C8*%
G36*
G01*
X146388000Y-105127400D02*
X146728000Y-105127400D01*
G75*
G02*
X146868000Y-105267400I0J-140000D01*
G01*
X146868000Y-105547400D01*
G75*
G02*
X146728000Y-105687400I-140000J0D01*
G01*
X146388000Y-105687400D01*
G75*
G02*
X146248000Y-105547400I0J140000D01*
G01*
X146248000Y-105267400D01*
G75*
G02*
X146388000Y-105127400I140000J0D01*
G01*
G37*
G36*
G01*
X146388000Y-104167400D02*
X146728000Y-104167400D01*
G75*
G02*
X146868000Y-104307400I0J-140000D01*
G01*
X146868000Y-104587400D01*
G75*
G02*
X146728000Y-104727400I-140000J0D01*
G01*
X146388000Y-104727400D01*
G75*
G02*
X146248000Y-104587400I0J140000D01*
G01*
X146248000Y-104307400D01*
G75*
G02*
X146388000Y-104167400I140000J0D01*
G01*
G37*
%TD*%
%TO.C,C7*%
G36*
G01*
X144021200Y-94851400D02*
X144021200Y-95191400D01*
G75*
G02*
X143881200Y-95331400I-140000J0D01*
G01*
X143601200Y-95331400D01*
G75*
G02*
X143461200Y-95191400I0J140000D01*
G01*
X143461200Y-94851400D01*
G75*
G02*
X143601200Y-94711400I140000J0D01*
G01*
X143881200Y-94711400D01*
G75*
G02*
X144021200Y-94851400I0J-140000D01*
G01*
G37*
G36*
G01*
X144981200Y-94851400D02*
X144981200Y-95191400D01*
G75*
G02*
X144841200Y-95331400I-140000J0D01*
G01*
X144561200Y-95331400D01*
G75*
G02*
X144421200Y-95191400I0J140000D01*
G01*
X144421200Y-94851400D01*
G75*
G02*
X144561200Y-94711400I140000J0D01*
G01*
X144841200Y-94711400D01*
G75*
G02*
X144981200Y-94851400I0J-140000D01*
G01*
G37*
%TD*%
%TO.C,C6*%
G36*
G01*
X145686600Y-104727400D02*
X145346600Y-104727400D01*
G75*
G02*
X145206600Y-104587400I0J140000D01*
G01*
X145206600Y-104307400D01*
G75*
G02*
X145346600Y-104167400I140000J0D01*
G01*
X145686600Y-104167400D01*
G75*
G02*
X145826600Y-104307400I0J-140000D01*
G01*
X145826600Y-104587400D01*
G75*
G02*
X145686600Y-104727400I-140000J0D01*
G01*
G37*
G36*
G01*
X145686600Y-105687400D02*
X145346600Y-105687400D01*
G75*
G02*
X145206600Y-105547400I0J140000D01*
G01*
X145206600Y-105267400D01*
G75*
G02*
X145346600Y-105127400I140000J0D01*
G01*
X145686600Y-105127400D01*
G75*
G02*
X145826600Y-105267400I0J-140000D01*
G01*
X145826600Y-105547400D01*
G75*
G02*
X145686600Y-105687400I-140000J0D01*
G01*
G37*
%TD*%
%TO.C,C5*%
G36*
G01*
X136648800Y-96461400D02*
X136648800Y-96121400D01*
G75*
G02*
X136788800Y-95981400I140000J0D01*
G01*
X137068800Y-95981400D01*
G75*
G02*
X137208800Y-96121400I0J-140000D01*
G01*
X137208800Y-96461400D01*
G75*
G02*
X137068800Y-96601400I-140000J0D01*
G01*
X136788800Y-96601400D01*
G75*
G02*
X136648800Y-96461400I0J140000D01*
G01*
G37*
G36*
G01*
X135688800Y-96461400D02*
X135688800Y-96121400D01*
G75*
G02*
X135828800Y-95981400I140000J0D01*
G01*
X136108800Y-95981400D01*
G75*
G02*
X136248800Y-96121400I0J-140000D01*
G01*
X136248800Y-96461400D01*
G75*
G02*
X136108800Y-96601400I-140000J0D01*
G01*
X135828800Y-96601400D01*
G75*
G02*
X135688800Y-96461400I0J140000D01*
G01*
G37*
%TD*%
%TO.C,C4*%
G36*
G01*
X136248800Y-95130800D02*
X136248800Y-95470800D01*
G75*
G02*
X136108800Y-95610800I-140000J0D01*
G01*
X135828800Y-95610800D01*
G75*
G02*
X135688800Y-95470800I0J140000D01*
G01*
X135688800Y-95130800D01*
G75*
G02*
X135828800Y-94990800I140000J0D01*
G01*
X136108800Y-94990800D01*
G75*
G02*
X136248800Y-95130800I0J-140000D01*
G01*
G37*
G36*
G01*
X137208800Y-95130800D02*
X137208800Y-95470800D01*
G75*
G02*
X137068800Y-95610800I-140000J0D01*
G01*
X136788800Y-95610800D01*
G75*
G02*
X136648800Y-95470800I0J140000D01*
G01*
X136648800Y-95130800D01*
G75*
G02*
X136788800Y-94990800I140000J0D01*
G01*
X137068800Y-94990800D01*
G75*
G02*
X137208800Y-95130800I0J-140000D01*
G01*
G37*
%TD*%
%TO.C,C3*%
G36*
G01*
X136673001Y-103916600D02*
X136122999Y-103916600D01*
G75*
G02*
X135873000Y-103666601I0J249999D01*
G01*
X135873000Y-103041599D01*
G75*
G02*
X136122999Y-102791600I249999J0D01*
G01*
X136673001Y-102791600D01*
G75*
G02*
X136923000Y-103041599I0J-249999D01*
G01*
X136923000Y-103666601D01*
G75*
G02*
X136673001Y-103916600I-249999J0D01*
G01*
G37*
G36*
G01*
X136673001Y-105691600D02*
X136122999Y-105691600D01*
G75*
G02*
X135873000Y-105441601I0J249999D01*
G01*
X135873000Y-104816599D01*
G75*
G02*
X136122999Y-104566600I249999J0D01*
G01*
X136673001Y-104566600D01*
G75*
G02*
X136923000Y-104816599I0J-249999D01*
G01*
X136923000Y-105441601D01*
G75*
G02*
X136673001Y-105691600I-249999J0D01*
G01*
G37*
%TD*%
%TO.C,C2*%
G36*
G01*
X145926200Y-94851400D02*
X145926200Y-95191400D01*
G75*
G02*
X145786200Y-95331400I-140000J0D01*
G01*
X145506200Y-95331400D01*
G75*
G02*
X145366200Y-95191400I0J140000D01*
G01*
X145366200Y-94851400D01*
G75*
G02*
X145506200Y-94711400I140000J0D01*
G01*
X145786200Y-94711400D01*
G75*
G02*
X145926200Y-94851400I0J-140000D01*
G01*
G37*
G36*
G01*
X146886200Y-94851400D02*
X146886200Y-95191400D01*
G75*
G02*
X146746200Y-95331400I-140000J0D01*
G01*
X146466200Y-95331400D01*
G75*
G02*
X146326200Y-95191400I0J140000D01*
G01*
X146326200Y-94851400D01*
G75*
G02*
X146466200Y-94711400I140000J0D01*
G01*
X146746200Y-94711400D01*
G75*
G02*
X146886200Y-94851400I0J-140000D01*
G01*
G37*
%TD*%
%TO.C,C1*%
G36*
G01*
X146426601Y-84638000D02*
X145876599Y-84638000D01*
G75*
G02*
X145626600Y-84388001I0J249999D01*
G01*
X145626600Y-83762999D01*
G75*
G02*
X145876599Y-83513000I249999J0D01*
G01*
X146426601Y-83513000D01*
G75*
G02*
X146676600Y-83762999I0J-249999D01*
G01*
X146676600Y-84388001D01*
G75*
G02*
X146426601Y-84638000I-249999J0D01*
G01*
G37*
G36*
G01*
X146426601Y-86413000D02*
X145876599Y-86413000D01*
G75*
G02*
X145626600Y-86163001I0J249999D01*
G01*
X145626600Y-85537999D01*
G75*
G02*
X145876599Y-85288000I249999J0D01*
G01*
X146426601Y-85288000D01*
G75*
G02*
X146676600Y-85537999I0J-249999D01*
G01*
X146676600Y-86163001D01*
G75*
G02*
X146426601Y-86413000I-249999J0D01*
G01*
G37*
%TD*%
M02*
