M48
; DRILL file {KiCad (5.1.8)-1} date 12/06/20 20:58:59
; FORMAT={-:-/ absolute / metric / decimal}
; #@! TF.CreationDate,2020-12-06T20:58:59+07:00
; #@! TF.GenerationSoftware,Kicad,Pcbnew,(5.1.8)-1
; #@! TF.FileFunction,Plated,1,4,PTH
FMAT,2
METRIC
T1C0.300
T2C0.500
T3C1.000
%
G90
G05
T1
X135.0Y-103.61
X135.439Y-106.242
X136.14Y-101.807
X136.398Y-103.584
X136.457Y-100.355
X136.525Y-83.949
X136.525Y-85.824
X136.682Y-92.862
X136.703Y-87.368
X136.703Y-90.145
X136.879Y-96.241
X136.901Y-98.785
X136.918Y-98.185
X137.402Y-97.831
X137.794Y-103.084
X137.805Y-95.174
X137.998Y-97.765
X138.303Y-91.897
X138.382Y-103.203
X138.426Y-84.785
X138.521Y-103.804
X138.596Y-104.436
X138.76Y-78.74
X138.76Y-107.29
X138.929Y-90.356
X139.151Y-105.588
X139.213Y-101.412
X139.429Y-90.712
X139.489Y-104.995
X139.811Y-101.255
X139.929Y-91.186
X140.411Y-101.255
X140.429Y-83.642
X140.536Y-98.311
X140.9Y-99.435
X140.936Y-97.859
X141.091Y-101.255
X141.249Y-95.834
X141.249Y-98.374
X141.3Y-79.248
X141.503Y-83.287
X141.58Y-99.374
X141.736Y-102.819
X141.779Y-79.894
X141.785Y-94.262
X141.808Y-91.161
X141.859Y-105.816
X141.9Y-98.374
X142.003Y-84.455
X142.113Y-87.348
X142.181Y-95.318
X142.5Y-98.374
X142.5Y-99.374
X142.621Y-102.26
X142.832Y-95.616
X142.875Y-83.109
X142.9Y-104.775
X143.18Y-101.778
X143.281Y-90.678
X143.485Y-99.855
X143.741Y-95.021
X143.749Y-104.907
X144.233Y-96.715
X144.283Y-103.339
X144.407Y-103.926
X144.407Y-104.526
X144.609Y-93.726
X144.805Y-90.068
X144.907Y-96.876
X144.909Y-95.021
X145.034Y-87.788
X145.186Y-78.74
X145.517Y-104.445
X145.517Y-105.407
X145.656Y-98.462
X145.694Y-96.698
X145.876Y-101.985
X145.95Y-99.998
X145.956Y-100.711
X145.984Y-90.063
X146.152Y-84.075
X146.456Y-96.698
X146.456Y-95.047
X146.533Y-104.47
X147.115Y-103.324
X147.768Y-103.378
X148.438Y-98.298
X148.615Y-103.378
T3
X134.95Y-107.772
X134.95Y-109.122
X137.49Y-107.772
X137.49Y-109.122
X140.03Y-107.772
X140.03Y-109.122
X142.57Y-107.772
X142.57Y-109.122
X145.11Y-107.772
X145.11Y-109.122
X147.65Y-107.772
X147.65Y-109.122
X148.907Y-76.708
X148.907Y-79.248
X148.907Y-81.788
X148.907Y-84.328
X148.907Y-86.868
X148.907Y-89.408
X148.907Y-91.948
X148.907Y-94.488
X148.907Y-97.028
X148.907Y-99.568
X148.907Y-102.108
X148.907Y-104.648
X150.257Y-76.708
X150.257Y-79.248
X150.257Y-81.788
X150.257Y-84.328
X150.257Y-86.868
X150.257Y-89.408
X150.257Y-91.948
X150.257Y-94.488
X150.257Y-97.028
X150.257Y-99.568
X150.257Y-102.108
X150.257Y-104.648
X132.317Y-76.708
X132.317Y-79.248
X132.317Y-81.788
X132.317Y-84.328
X132.317Y-86.868
X132.317Y-89.408
X132.317Y-91.948
X132.317Y-94.488
X132.317Y-97.028
X132.317Y-99.568
X132.317Y-102.108
X132.317Y-104.648
X133.667Y-76.708
X133.667Y-79.248
X133.667Y-81.788
X133.667Y-84.328
X133.667Y-86.868
X133.667Y-89.408
X133.667Y-91.948
X133.667Y-94.488
X133.667Y-97.028
X133.667Y-99.568
X133.667Y-102.108
X133.667Y-104.648
T2
G00X136.785Y-74.778
M15
G01X136.785Y-74.178
M16
G05
G00X137.145Y-80.728
M15
G01X137.145Y-80.128
M16
G05
G00X145.405Y-80.728
M15
G01X145.405Y-80.128
M16
G05
G00X145.765Y-74.778
M15
G01X145.765Y-74.178
M16
G05
T0
M30
