%TF.GenerationSoftware,KiCad,Pcbnew,(5.1.8)-1*%
%TF.CreationDate,2020-12-07T22:14:58+07:00*%
%TF.ProjectId,ArduinoMicroC,41726475-696e-46f4-9d69-63726f432e6b,rev?*%
%TF.SameCoordinates,Original*%
%TF.FileFunction,Legend,Top*%
%TF.FilePolarity,Positive*%
%FSLAX46Y46*%
G04 Gerber Fmt 4.6, Leading zero omitted, Abs format (unit mm)*
G04 Created by KiCad (PCBNEW (5.1.8)-1) date 2020-12-07 22:14:58*
%MOMM*%
%LPD*%
G01*
G04 APERTURE LIST*
%ADD10C,0.120000*%
%ADD11C,0.100000*%
G04 APERTURE END LIST*
D10*
%TO.C,U2*%
X141812852Y-104948059D02*
X141300200Y-105460711D01*
X141300200Y-105460711D02*
X140787548Y-104948059D01*
X140787548Y-95762741D02*
X141300200Y-95250089D01*
X141300200Y-95250089D02*
X141812852Y-95762741D01*
X136707541Y-99842748D02*
X136194889Y-100355400D01*
X136194889Y-100355400D02*
X136707541Y-100868052D01*
X145892859Y-100868052D02*
X146405511Y-100355400D01*
%TO.C,D3*%
X141113000Y-90947600D02*
X141113000Y-87097600D01*
X143113000Y-90947600D02*
X143113000Y-87097600D01*
X141113000Y-90947600D02*
X143113000Y-90947600D01*
%TO.C,D1*%
X135702800Y-90973000D02*
X135702800Y-87123000D01*
X137702800Y-90973000D02*
X137702800Y-87123000D01*
X135702800Y-90973000D02*
X137702800Y-90973000D01*
%TO.C,SW1*%
X142936400Y-86195200D02*
X139815400Y-86195200D01*
X144926400Y-85335200D02*
X144115400Y-85335200D01*
X142936400Y-83375200D02*
X139815400Y-83375200D01*
%TO.C,J4*%
X150237500Y-105978000D02*
X147577500Y-105978000D01*
X150237500Y-75378000D02*
X147577500Y-75378000D01*
X150237500Y-105978000D02*
X150237500Y-75378000D01*
X147577500Y-105978000D02*
X147577500Y-75378000D01*
%TO.C,J3*%
X133620200Y-106442200D02*
X148980200Y-106442200D01*
X133620200Y-109102200D02*
X148980200Y-109102200D01*
X148980200Y-109102200D02*
X148980200Y-106442200D01*
X133620200Y-109102200D02*
X133620200Y-106442200D01*
%TO.C,J2*%
X132337500Y-75378000D02*
X134997500Y-75378000D01*
X132337500Y-105978000D02*
X134997500Y-105978000D01*
X132337500Y-75378000D02*
X132337500Y-105978000D01*
X134997500Y-75378000D02*
X134997500Y-105978000D01*
%TO.C,SW2*%
X142329000Y-94356200D02*
X142329000Y-94056200D01*
X146469000Y-91216200D02*
X146469000Y-91516200D01*
X146469000Y-94056200D02*
X146469000Y-94356200D01*
X142329000Y-91216200D02*
X146469000Y-91216200D01*
X142329000Y-91516200D02*
X142329000Y-91216200D01*
X146469000Y-94356200D02*
X142329000Y-94356200D01*
%TO.C,Y1*%
X135481600Y-94662400D02*
X141231600Y-94662400D01*
X135481600Y-91062400D02*
X135481600Y-94662400D01*
X141231600Y-91062400D02*
X135481600Y-91062400D01*
%TO.C,U1*%
X146594000Y-88925400D02*
X146594000Y-87125400D01*
X146594000Y-88925400D02*
X146594000Y-89725400D01*
X143474000Y-88925400D02*
X143474000Y-88125400D01*
X143474000Y-88925400D02*
X143474000Y-89725400D01*
%TO.C,J1*%
X146024800Y-82687600D02*
X144524800Y-82687600D01*
X146024800Y-82687600D02*
X146024800Y-75427600D01*
X136524800Y-82687600D02*
X136524800Y-75427600D01*
X138024800Y-82687600D02*
X136524800Y-82687600D01*
%TO.C,F1*%
X137235000Y-84628222D02*
X137235000Y-85145378D01*
X135815000Y-84628222D02*
X135815000Y-85145378D01*
D11*
%TO.C,D2*%
X137794200Y-103202400D02*
G75*
G03*
X137794200Y-103202400I-50000J0D01*
G01*
D10*
%TO.C,C8*%
X146198000Y-104819564D02*
X146198000Y-105035236D01*
X146918000Y-104819564D02*
X146918000Y-105035236D01*
%TO.C,C7*%
X144329036Y-94661400D02*
X144113364Y-94661400D01*
X144329036Y-95381400D02*
X144113364Y-95381400D01*
%TO.C,C6*%
X145876600Y-105035236D02*
X145876600Y-104819564D01*
X145156600Y-105035236D02*
X145156600Y-104819564D01*
%TO.C,C5*%
X136340964Y-96651400D02*
X136556636Y-96651400D01*
X136340964Y-95931400D02*
X136556636Y-95931400D01*
%TO.C,C4*%
X136556636Y-94940800D02*
X136340964Y-94940800D01*
X136556636Y-95660800D02*
X136340964Y-95660800D01*
%TO.C,C3*%
X137183000Y-105951600D02*
X137183000Y-103241600D01*
X135613000Y-105951600D02*
X137183000Y-105951600D01*
X135613000Y-103241600D02*
X135613000Y-105951600D01*
%TO.C,C2*%
X146234036Y-94661400D02*
X146018364Y-94661400D01*
X146234036Y-95381400D02*
X146018364Y-95381400D01*
%TO.C,C1*%
X146936600Y-86673000D02*
X146936600Y-83963000D01*
X145366600Y-86673000D02*
X146936600Y-86673000D01*
X145366600Y-83963000D02*
X145366600Y-86673000D01*
%TD*%
M02*
