%TF.GenerationSoftware,KiCad,Pcbnew,(5.1.8)-1*%
%TF.CreationDate,2021-02-16T22:48:13+07:00*%
%TF.ProjectId,ArduinoMicroC,41726475-696e-46f4-9d69-63726f432e6b,rev?*%
%TF.SameCoordinates,Original*%
%TF.FileFunction,Legend,Top*%
%TF.FilePolarity,Positive*%
%FSLAX46Y46*%
G04 Gerber Fmt 4.6, Leading zero omitted, Abs format (unit mm)*
G04 Created by KiCad (PCBNEW (5.1.8)-1) date 2021-02-16 22:48:13*
%MOMM*%
%LPD*%
G01*
G04 APERTURE LIST*
%ADD10C,0.100000*%
G04 APERTURE END LIST*
D10*
X147631104Y-74872761D02*
X146831104Y-74872761D01*
X146831104Y-74682285D01*
X146869200Y-74568000D01*
X146945390Y-74491809D01*
X147021580Y-74453714D01*
X147173961Y-74415619D01*
X147288247Y-74415619D01*
X147440628Y-74453714D01*
X147516819Y-74491809D01*
X147593009Y-74568000D01*
X147631104Y-74682285D01*
X147631104Y-74872761D01*
X147326342Y-74072761D02*
X147326342Y-73463238D01*
X134943895Y-73463238D02*
X135743895Y-73463238D01*
X135743895Y-73653714D01*
X135705800Y-73768000D01*
X135629609Y-73844190D01*
X135553419Y-73882285D01*
X135401038Y-73920380D01*
X135286752Y-73920380D01*
X135134371Y-73882285D01*
X135058180Y-73844190D01*
X134981990Y-73768000D01*
X134943895Y-73653714D01*
X134943895Y-73463238D01*
X135248657Y-74263238D02*
X135248657Y-74872761D01*
X134943895Y-74568000D02*
X135553419Y-74568000D01*
X134942145Y-103221355D02*
X135049894Y-103329105D01*
X135130706Y-103356042D01*
X135184581Y-103356042D01*
X135319268Y-103329105D01*
X135453955Y-103248293D01*
X135669454Y-103032793D01*
X135696392Y-102951981D01*
X135696392Y-102898106D01*
X135669454Y-102817294D01*
X135561705Y-102709545D01*
X135480893Y-102682607D01*
X135427018Y-102682607D01*
X135346206Y-102709545D01*
X135211519Y-102844232D01*
X135184581Y-102925044D01*
X135184581Y-102978919D01*
X135211519Y-103059731D01*
X135319268Y-103167480D01*
X135400080Y-103194418D01*
X135453955Y-103194418D01*
X135534767Y-103167480D01*
X136448819Y-103358904D02*
X135991676Y-103358904D01*
X136220247Y-103358904D02*
X136220247Y-102558904D01*
X136144057Y-102673190D01*
X136067866Y-102749380D01*
X135991676Y-102787476D01*
X136753580Y-102635095D02*
X136791676Y-102597000D01*
X136867866Y-102558904D01*
X137058342Y-102558904D01*
X137134533Y-102597000D01*
X137172628Y-102635095D01*
X137210723Y-102711285D01*
X137210723Y-102787476D01*
X137172628Y-102901761D01*
X136715485Y-103358904D01*
X137210723Y-103358904D01*
X135401038Y-101295209D02*
X135439133Y-101219019D01*
X135477228Y-101180923D01*
X135553419Y-101142828D01*
X135591514Y-101142828D01*
X135667704Y-101180923D01*
X135705800Y-101219019D01*
X135743895Y-101295209D01*
X135743895Y-101447590D01*
X135705800Y-101523780D01*
X135667704Y-101561876D01*
X135591514Y-101599971D01*
X135553419Y-101599971D01*
X135477228Y-101561876D01*
X135439133Y-101523780D01*
X135401038Y-101447590D01*
X135401038Y-101295209D01*
X135362942Y-101219019D01*
X135324847Y-101180923D01*
X135248657Y-101142828D01*
X135096276Y-101142828D01*
X135020085Y-101180923D01*
X134981990Y-101219019D01*
X134943895Y-101295209D01*
X134943895Y-101447590D01*
X134981990Y-101523780D01*
X135020085Y-101561876D01*
X135096276Y-101599971D01*
X135248657Y-101599971D01*
X135324847Y-101561876D01*
X135362942Y-101523780D01*
X135401038Y-101447590D01*
X146725073Y-102983495D02*
X146422027Y-102680450D01*
X146573550Y-102831973D02*
X147103880Y-102301643D01*
X146977611Y-102326896D01*
X146876596Y-102326896D01*
X146800834Y-102301643D01*
X147583703Y-102781465D02*
X147634210Y-102831973D01*
X147659464Y-102907734D01*
X147659464Y-102958242D01*
X147634210Y-103034003D01*
X147558449Y-103160272D01*
X147432180Y-103286541D01*
X147305911Y-103362303D01*
X147230149Y-103387556D01*
X147179642Y-103387556D01*
X147103880Y-103362303D01*
X147053373Y-103311795D01*
X147028119Y-103236034D01*
X147028119Y-103185526D01*
X147053373Y-103109765D01*
X147129134Y-102983495D01*
X147255403Y-102857226D01*
X147381672Y-102781465D01*
X147457434Y-102756211D01*
X147507941Y-102756211D01*
X147583703Y-102781465D01*
X145745219Y-103358904D02*
X145288076Y-103358904D01*
X145516647Y-103358904D02*
X145516647Y-102558904D01*
X145440457Y-102673190D01*
X145364266Y-102749380D01*
X145288076Y-102787476D01*
X146011885Y-102558904D02*
X146545219Y-102558904D01*
X146202361Y-103358904D01*
X147631104Y-101853980D02*
X147631104Y-102311123D01*
X147631104Y-102082552D02*
X146831104Y-102082552D01*
X146945390Y-102158742D01*
X147021580Y-102234933D01*
X147059676Y-102311123D01*
X146831104Y-101168266D02*
X146831104Y-101320647D01*
X146869200Y-101396838D01*
X146907295Y-101434933D01*
X147021580Y-101511123D01*
X147173961Y-101549219D01*
X147478723Y-101549219D01*
X147554914Y-101511123D01*
X147593009Y-101473028D01*
X147631104Y-101396838D01*
X147631104Y-101244457D01*
X147593009Y-101168266D01*
X147554914Y-101130171D01*
X147478723Y-101092076D01*
X147288247Y-101092076D01*
X147212057Y-101130171D01*
X147173961Y-101168266D01*
X147135866Y-101244457D01*
X147135866Y-101396838D01*
X147173961Y-101473028D01*
X147212057Y-101511123D01*
X147288247Y-101549219D01*
X143243371Y-103130333D02*
X143624323Y-103130333D01*
X143167180Y-103358904D02*
X143433847Y-102558904D01*
X143700514Y-103358904D01*
X144348133Y-102558904D02*
X143967180Y-102558904D01*
X143929085Y-102939857D01*
X143967180Y-102901761D01*
X144043371Y-102863666D01*
X144233847Y-102863666D01*
X144310038Y-102901761D01*
X144348133Y-102939857D01*
X144386228Y-103016047D01*
X144386228Y-103206523D01*
X144348133Y-103282714D01*
X144310038Y-103320809D01*
X144233847Y-103358904D01*
X144043371Y-103358904D01*
X143967180Y-103320809D01*
X143929085Y-103282714D01*
X140703371Y-103130333D02*
X141084323Y-103130333D01*
X140627180Y-103358904D02*
X140893847Y-102558904D01*
X141160514Y-103358904D01*
X141770038Y-102825571D02*
X141770038Y-103358904D01*
X141579561Y-102520809D02*
X141389085Y-103092238D01*
X141884323Y-103092238D01*
X138582419Y-103358904D02*
X138125276Y-103358904D01*
X138353847Y-103358904D02*
X138353847Y-102558904D01*
X138277657Y-102673190D01*
X138201466Y-102749380D01*
X138125276Y-102787476D01*
X138849085Y-102558904D02*
X139344323Y-102558904D01*
X139077657Y-102863666D01*
X139191942Y-102863666D01*
X139268133Y-102901761D01*
X139306228Y-102939857D01*
X139344323Y-103016047D01*
X139344323Y-103206523D01*
X139306228Y-103282714D01*
X139268133Y-103320809D01*
X139191942Y-103358904D01*
X138963371Y-103358904D01*
X138887180Y-103320809D01*
X138849085Y-103282714D01*
X147631104Y-99720380D02*
X147631104Y-100177523D01*
X147631104Y-99948952D02*
X146831104Y-99948952D01*
X146945390Y-100025142D01*
X147021580Y-100101333D01*
X147059676Y-100177523D01*
X147097771Y-99034666D02*
X147631104Y-99034666D01*
X146793009Y-99225142D02*
X147364438Y-99415619D01*
X147364438Y-98920380D01*
X147631104Y-97180380D02*
X147631104Y-97637523D01*
X147631104Y-97408952D02*
X146831104Y-97408952D01*
X146945390Y-97485142D01*
X147021580Y-97561333D01*
X147059676Y-97637523D01*
X146831104Y-96456571D02*
X146831104Y-96837523D01*
X147212057Y-96875619D01*
X147173961Y-96837523D01*
X147135866Y-96761333D01*
X147135866Y-96570857D01*
X147173961Y-96494666D01*
X147212057Y-96456571D01*
X147288247Y-96418476D01*
X147478723Y-96418476D01*
X147554914Y-96456571D01*
X147593009Y-96494666D01*
X147631104Y-96570857D01*
X147631104Y-96761333D01*
X147593009Y-96837523D01*
X147554914Y-96875619D01*
X147402533Y-95059428D02*
X147402533Y-94678476D01*
X147631104Y-95135619D02*
X146831104Y-94868952D01*
X147631104Y-94602285D01*
X146831104Y-94183238D02*
X146831104Y-94107047D01*
X146869200Y-94030857D01*
X146907295Y-93992761D01*
X146983485Y-93954666D01*
X147135866Y-93916571D01*
X147326342Y-93916571D01*
X147478723Y-93954666D01*
X147554914Y-93992761D01*
X147593009Y-94030857D01*
X147631104Y-94107047D01*
X147631104Y-94183238D01*
X147593009Y-94259428D01*
X147554914Y-94297523D01*
X147478723Y-94335619D01*
X147326342Y-94373714D01*
X147135866Y-94373714D01*
X146983485Y-94335619D01*
X146907295Y-94297523D01*
X146869200Y-94259428D01*
X146831104Y-94183238D01*
X147402533Y-92519428D02*
X147402533Y-92138476D01*
X147631104Y-92595619D02*
X146831104Y-92328952D01*
X147631104Y-92062285D01*
X147631104Y-91376571D02*
X147631104Y-91833714D01*
X147631104Y-91605142D02*
X146831104Y-91605142D01*
X146945390Y-91681333D01*
X147021580Y-91757523D01*
X147059676Y-91833714D01*
X147402533Y-89979428D02*
X147402533Y-89598476D01*
X147631104Y-90055619D02*
X146831104Y-89788952D01*
X147631104Y-89522285D01*
X146907295Y-89293714D02*
X146869200Y-89255619D01*
X146831104Y-89179428D01*
X146831104Y-88988952D01*
X146869200Y-88912761D01*
X146907295Y-88874666D01*
X146983485Y-88836571D01*
X147059676Y-88836571D01*
X147173961Y-88874666D01*
X147631104Y-89331809D01*
X147631104Y-88836571D01*
X147402533Y-87439428D02*
X147402533Y-87058476D01*
X147631104Y-87515619D02*
X146831104Y-87248952D01*
X147631104Y-86982285D01*
X146831104Y-86791809D02*
X146831104Y-86296571D01*
X147135866Y-86563238D01*
X147135866Y-86448952D01*
X147173961Y-86372761D01*
X147212057Y-86334666D01*
X147288247Y-86296571D01*
X147478723Y-86296571D01*
X147554914Y-86334666D01*
X147593009Y-86372761D01*
X147631104Y-86448952D01*
X147631104Y-86677523D01*
X147593009Y-86753714D01*
X147554914Y-86791809D01*
X146831104Y-85394666D02*
X147631104Y-85128000D01*
X146831104Y-84861333D01*
X147554914Y-84137523D02*
X147593009Y-84175619D01*
X147631104Y-84289904D01*
X147631104Y-84366095D01*
X147593009Y-84480380D01*
X147516819Y-84556571D01*
X147440628Y-84594666D01*
X147288247Y-84632761D01*
X147173961Y-84632761D01*
X147021580Y-84594666D01*
X146945390Y-84556571D01*
X146869200Y-84480380D01*
X146831104Y-84366095D01*
X146831104Y-84289904D01*
X146869200Y-84175619D01*
X146907295Y-84137523D01*
X147554914Y-83337523D02*
X147593009Y-83375619D01*
X147631104Y-83489904D01*
X147631104Y-83566095D01*
X147593009Y-83680380D01*
X147516819Y-83756571D01*
X147440628Y-83794666D01*
X147288247Y-83832761D01*
X147173961Y-83832761D01*
X147021580Y-83794666D01*
X146945390Y-83756571D01*
X146869200Y-83680380D01*
X146831104Y-83566095D01*
X146831104Y-83489904D01*
X146869200Y-83375619D01*
X146907295Y-83337523D01*
X147631104Y-82226095D02*
X147250152Y-82492761D01*
X147631104Y-82683238D02*
X146831104Y-82683238D01*
X146831104Y-82378476D01*
X146869200Y-82302285D01*
X146907295Y-82264190D01*
X146983485Y-82226095D01*
X147097771Y-82226095D01*
X147173961Y-82264190D01*
X147212057Y-82302285D01*
X147250152Y-82378476D01*
X147250152Y-82683238D01*
X147593009Y-81921333D02*
X147631104Y-81807047D01*
X147631104Y-81616571D01*
X147593009Y-81540380D01*
X147554914Y-81502285D01*
X147478723Y-81464190D01*
X147402533Y-81464190D01*
X147326342Y-81502285D01*
X147288247Y-81540380D01*
X147250152Y-81616571D01*
X147212057Y-81768952D01*
X147173961Y-81845142D01*
X147135866Y-81883238D01*
X147059676Y-81921333D01*
X146983485Y-81921333D01*
X146907295Y-81883238D01*
X146869200Y-81845142D01*
X146831104Y-81768952D01*
X146831104Y-81578476D01*
X146869200Y-81464190D01*
X146831104Y-81235619D02*
X146831104Y-80778476D01*
X147631104Y-81007047D02*
X146831104Y-81007047D01*
X146869200Y-79857523D02*
X146831104Y-79933714D01*
X146831104Y-80048000D01*
X146869200Y-80162285D01*
X146945390Y-80238476D01*
X147021580Y-80276571D01*
X147173961Y-80314666D01*
X147288247Y-80314666D01*
X147440628Y-80276571D01*
X147516819Y-80238476D01*
X147593009Y-80162285D01*
X147631104Y-80048000D01*
X147631104Y-79971809D01*
X147593009Y-79857523D01*
X147554914Y-79819428D01*
X147288247Y-79819428D01*
X147288247Y-79971809D01*
X147631104Y-79476571D02*
X146831104Y-79476571D01*
X147631104Y-79019428D01*
X146831104Y-79019428D01*
X147631104Y-78638476D02*
X146831104Y-78638476D01*
X146831104Y-78448000D01*
X146869200Y-78333714D01*
X146945390Y-78257523D01*
X147021580Y-78219428D01*
X147173961Y-78181333D01*
X147288247Y-78181333D01*
X147440628Y-78219428D01*
X147516819Y-78257523D01*
X147593009Y-78333714D01*
X147631104Y-78448000D01*
X147631104Y-78638476D01*
X147631104Y-77260380D02*
X147250152Y-77527047D01*
X147631104Y-77717523D02*
X146831104Y-77717523D01*
X146831104Y-77412761D01*
X146869200Y-77336571D01*
X146907295Y-77298476D01*
X146983485Y-77260380D01*
X147097771Y-77260380D01*
X147173961Y-77298476D01*
X147212057Y-77336571D01*
X147250152Y-77412761D01*
X147250152Y-77717523D01*
X147402533Y-76955619D02*
X147402533Y-76574666D01*
X147631104Y-77031809D02*
X146831104Y-76765142D01*
X147631104Y-76498476D01*
X146831104Y-76308000D02*
X147631104Y-76117523D01*
X147059676Y-75965142D01*
X147631104Y-75812761D01*
X146831104Y-75622285D01*
X135743895Y-99301333D02*
X135743895Y-99834666D01*
X134943895Y-99491809D01*
X135743895Y-97180380D02*
X135743895Y-97028000D01*
X135705800Y-96951809D01*
X135667704Y-96913714D01*
X135553419Y-96837523D01*
X135401038Y-96799428D01*
X135096276Y-96799428D01*
X135020085Y-96837523D01*
X134981990Y-96875619D01*
X134943895Y-96951809D01*
X134943895Y-97104190D01*
X134981990Y-97180380D01*
X135020085Y-97218476D01*
X135096276Y-97256571D01*
X135286752Y-97256571D01*
X135362942Y-97218476D01*
X135401038Y-97180380D01*
X135439133Y-97104190D01*
X135439133Y-96951809D01*
X135401038Y-96875619D01*
X135362942Y-96837523D01*
X135286752Y-96799428D01*
X135477228Y-92100380D02*
X134943895Y-92100380D01*
X135781990Y-91909904D02*
X135210561Y-91719428D01*
X135210561Y-92214666D01*
X134981990Y-88455619D02*
X134943895Y-88569904D01*
X134943895Y-88760380D01*
X134981990Y-88836571D01*
X135020085Y-88874666D01*
X135096276Y-88912761D01*
X135172466Y-88912761D01*
X135248657Y-88874666D01*
X135286752Y-88836571D01*
X135324847Y-88760380D01*
X135362942Y-88608000D01*
X135401038Y-88531809D01*
X135439133Y-88493714D01*
X135515323Y-88455619D01*
X135591514Y-88455619D01*
X135667704Y-88493714D01*
X135705800Y-88531809D01*
X135743895Y-88608000D01*
X135743895Y-88798476D01*
X135705800Y-88912761D01*
X135020085Y-89712761D02*
X134981990Y-89674666D01*
X134943895Y-89560380D01*
X134943895Y-89484190D01*
X134981990Y-89369904D01*
X135058180Y-89293714D01*
X135134371Y-89255619D01*
X135286752Y-89217523D01*
X135401038Y-89217523D01*
X135553419Y-89255619D01*
X135629609Y-89293714D01*
X135705800Y-89369904D01*
X135743895Y-89484190D01*
X135743895Y-89560380D01*
X135705800Y-89674666D01*
X135667704Y-89712761D01*
X134943895Y-90436571D02*
X134943895Y-90055619D01*
X135743895Y-90055619D01*
X134981990Y-85896571D02*
X134943895Y-86010857D01*
X134943895Y-86201333D01*
X134981990Y-86277523D01*
X135020085Y-86315619D01*
X135096276Y-86353714D01*
X135172466Y-86353714D01*
X135248657Y-86315619D01*
X135286752Y-86277523D01*
X135324847Y-86201333D01*
X135362942Y-86048952D01*
X135401038Y-85972761D01*
X135439133Y-85934666D01*
X135515323Y-85896571D01*
X135591514Y-85896571D01*
X135667704Y-85934666D01*
X135705800Y-85972761D01*
X135743895Y-86048952D01*
X135743895Y-86239428D01*
X135705800Y-86353714D01*
X134943895Y-86696571D02*
X135743895Y-86696571D01*
X135743895Y-86887047D01*
X135705800Y-87001333D01*
X135629609Y-87077523D01*
X135553419Y-87115619D01*
X135401038Y-87153714D01*
X135286752Y-87153714D01*
X135134371Y-87115619D01*
X135058180Y-87077523D01*
X134981990Y-87001333D01*
X134943895Y-86887047D01*
X134943895Y-86696571D01*
X135172466Y-87458476D02*
X135172466Y-87839428D01*
X134943895Y-87382285D02*
X135743895Y-87648952D01*
X134943895Y-87915619D01*
X135705800Y-83718476D02*
X135743895Y-83642285D01*
X135743895Y-83528000D01*
X135705800Y-83413714D01*
X135629609Y-83337523D01*
X135553419Y-83299428D01*
X135401038Y-83261333D01*
X135286752Y-83261333D01*
X135134371Y-83299428D01*
X135058180Y-83337523D01*
X134981990Y-83413714D01*
X134943895Y-83528000D01*
X134943895Y-83604190D01*
X134981990Y-83718476D01*
X135020085Y-83756571D01*
X135286752Y-83756571D01*
X135286752Y-83604190D01*
X134943895Y-84099428D02*
X135743895Y-84099428D01*
X134943895Y-84556571D01*
X135743895Y-84556571D01*
X134943895Y-84937523D02*
X135743895Y-84937523D01*
X135743895Y-85128000D01*
X135705800Y-85242285D01*
X135629609Y-85318476D01*
X135553419Y-85356571D01*
X135401038Y-85394666D01*
X135286752Y-85394666D01*
X135134371Y-85356571D01*
X135058180Y-85318476D01*
X134981990Y-85242285D01*
X134943895Y-85128000D01*
X134943895Y-84937523D01*
X135705800Y-81178476D02*
X135743895Y-81102285D01*
X135743895Y-80988000D01*
X135705800Y-80873714D01*
X135629609Y-80797523D01*
X135553419Y-80759428D01*
X135401038Y-80721333D01*
X135286752Y-80721333D01*
X135134371Y-80759428D01*
X135058180Y-80797523D01*
X134981990Y-80873714D01*
X134943895Y-80988000D01*
X134943895Y-81064190D01*
X134981990Y-81178476D01*
X135020085Y-81216571D01*
X135286752Y-81216571D01*
X135286752Y-81064190D01*
X134943895Y-81559428D02*
X135743895Y-81559428D01*
X134943895Y-82016571D01*
X135743895Y-82016571D01*
X134943895Y-82397523D02*
X135743895Y-82397523D01*
X135743895Y-82588000D01*
X135705800Y-82702285D01*
X135629609Y-82778476D01*
X135553419Y-82816571D01*
X135401038Y-82854666D01*
X135286752Y-82854666D01*
X135134371Y-82816571D01*
X135058180Y-82778476D01*
X134981990Y-82702285D01*
X134943895Y-82588000D01*
X134943895Y-82397523D01*
X134943895Y-79114666D02*
X135324847Y-78848000D01*
X134943895Y-78657523D02*
X135743895Y-78657523D01*
X135743895Y-78962285D01*
X135705800Y-79038476D01*
X135667704Y-79076571D01*
X135591514Y-79114666D01*
X135477228Y-79114666D01*
X135401038Y-79076571D01*
X135362942Y-79038476D01*
X135324847Y-78962285D01*
X135324847Y-78657523D01*
X135743895Y-79381333D02*
X134943895Y-79914666D01*
X135743895Y-79914666D02*
X134943895Y-79381333D01*
X135743895Y-94678476D02*
X135743895Y-94297523D01*
X135362942Y-94259428D01*
X135401038Y-94297523D01*
X135439133Y-94373714D01*
X135439133Y-94564190D01*
X135401038Y-94640380D01*
X135362942Y-94678476D01*
X135286752Y-94716571D01*
X135096276Y-94716571D01*
X135020085Y-94678476D01*
X134981990Y-94640380D01*
X134943895Y-94564190D01*
X134943895Y-94373714D01*
X134981990Y-94297523D01*
X135020085Y-94259428D01*
X135743895Y-76098476D02*
X135743895Y-76555619D01*
X134943895Y-76327047D02*
X135743895Y-76327047D01*
X135743895Y-76746095D02*
X134943895Y-77279428D01*
X135743895Y-77279428D02*
X134943895Y-76746095D01*
M02*
