%TF.GenerationSoftware,KiCad,Pcbnew,(5.1.8)-1*%
%TF.CreationDate,2021-02-16T22:48:13+07:00*%
%TF.ProjectId,ArduinoMicroC,41726475-696e-46f4-9d69-63726f432e6b,rev?*%
%TF.SameCoordinates,Original*%
%TF.FileFunction,Legend,Bot*%
%TF.FilePolarity,Positive*%
%FSLAX46Y46*%
G04 Gerber Fmt 4.6, Leading zero omitted, Abs format (unit mm)*
G04 Created by KiCad (PCBNEW (5.1.8)-1) date 2021-02-16 22:48:13*
%MOMM*%
%LPD*%
G01*
G04 APERTURE LIST*
%ADD10C,0.100000*%
%ADD11C,0.200000*%
G04 APERTURE END LIST*
D10*
X147631104Y-73463238D02*
X146831104Y-73463238D01*
X146831104Y-73653714D01*
X146869200Y-73768000D01*
X146945390Y-73844190D01*
X147021580Y-73882285D01*
X147173961Y-73920380D01*
X147288247Y-73920380D01*
X147440628Y-73882285D01*
X147516819Y-73844190D01*
X147593009Y-73768000D01*
X147631104Y-73653714D01*
X147631104Y-73463238D01*
X147326342Y-74263238D02*
X147326342Y-74872761D01*
X134943895Y-74872761D02*
X135743895Y-74872761D01*
X135743895Y-74682285D01*
X135705800Y-74568000D01*
X135629609Y-74491809D01*
X135553419Y-74453714D01*
X135401038Y-74415619D01*
X135286752Y-74415619D01*
X135134371Y-74453714D01*
X135058180Y-74491809D01*
X134981990Y-74568000D01*
X134943895Y-74682285D01*
X134943895Y-74872761D01*
X135248657Y-74072761D02*
X135248657Y-73463238D01*
X134943895Y-73768000D02*
X135553419Y-73768000D01*
X147631104Y-76155619D02*
X147250152Y-75888952D01*
X147631104Y-75698476D02*
X146831104Y-75698476D01*
X146831104Y-76003238D01*
X146869200Y-76079428D01*
X146907295Y-76117523D01*
X146983485Y-76155619D01*
X147097771Y-76155619D01*
X147173961Y-76117523D01*
X147212057Y-76079428D01*
X147250152Y-76003238D01*
X147250152Y-75698476D01*
X147402533Y-76460380D02*
X147402533Y-76841333D01*
X147631104Y-76384190D02*
X146831104Y-76650857D01*
X147631104Y-76917523D01*
X146831104Y-77108000D02*
X147631104Y-77298476D01*
X147059676Y-77450857D01*
X147631104Y-77603238D01*
X146831104Y-77793714D01*
X146869200Y-78638476D02*
X146831104Y-78562285D01*
X146831104Y-78448000D01*
X146869200Y-78333714D01*
X146945390Y-78257523D01*
X147021580Y-78219428D01*
X147173961Y-78181333D01*
X147288247Y-78181333D01*
X147440628Y-78219428D01*
X147516819Y-78257523D01*
X147593009Y-78333714D01*
X147631104Y-78448000D01*
X147631104Y-78524190D01*
X147593009Y-78638476D01*
X147554914Y-78676571D01*
X147288247Y-78676571D01*
X147288247Y-78524190D01*
X147631104Y-79019428D02*
X146831104Y-79019428D01*
X147631104Y-79476571D01*
X146831104Y-79476571D01*
X147631104Y-79857523D02*
X146831104Y-79857523D01*
X146831104Y-80048000D01*
X146869200Y-80162285D01*
X146945390Y-80238476D01*
X147021580Y-80276571D01*
X147173961Y-80314666D01*
X147288247Y-80314666D01*
X147440628Y-80276571D01*
X147516819Y-80238476D01*
X147593009Y-80162285D01*
X147631104Y-80048000D01*
X147631104Y-79857523D01*
X147631104Y-81349904D02*
X147250152Y-81083238D01*
X147631104Y-80892761D02*
X146831104Y-80892761D01*
X146831104Y-81197523D01*
X146869200Y-81273714D01*
X146907295Y-81311809D01*
X146983485Y-81349904D01*
X147097771Y-81349904D01*
X147173961Y-81311809D01*
X147212057Y-81273714D01*
X147250152Y-81197523D01*
X147250152Y-80892761D01*
X147593009Y-81654666D02*
X147631104Y-81768952D01*
X147631104Y-81959428D01*
X147593009Y-82035619D01*
X147554914Y-82073714D01*
X147478723Y-82111809D01*
X147402533Y-82111809D01*
X147326342Y-82073714D01*
X147288247Y-82035619D01*
X147250152Y-81959428D01*
X147212057Y-81807047D01*
X147173961Y-81730857D01*
X147135866Y-81692761D01*
X147059676Y-81654666D01*
X146983485Y-81654666D01*
X146907295Y-81692761D01*
X146869200Y-81730857D01*
X146831104Y-81807047D01*
X146831104Y-81997523D01*
X146869200Y-82111809D01*
X146831104Y-82340380D02*
X146831104Y-82797523D01*
X147631104Y-82568952D02*
X146831104Y-82568952D01*
X146831104Y-83261333D02*
X147631104Y-83528000D01*
X146831104Y-83794666D01*
X147554914Y-84518476D02*
X147593009Y-84480380D01*
X147631104Y-84366095D01*
X147631104Y-84289904D01*
X147593009Y-84175619D01*
X147516819Y-84099428D01*
X147440628Y-84061333D01*
X147288247Y-84023238D01*
X147173961Y-84023238D01*
X147021580Y-84061333D01*
X146945390Y-84099428D01*
X146869200Y-84175619D01*
X146831104Y-84289904D01*
X146831104Y-84366095D01*
X146869200Y-84480380D01*
X146907295Y-84518476D01*
X147554914Y-85318476D02*
X147593009Y-85280380D01*
X147631104Y-85166095D01*
X147631104Y-85089904D01*
X147593009Y-84975619D01*
X147516819Y-84899428D01*
X147440628Y-84861333D01*
X147288247Y-84823238D01*
X147173961Y-84823238D01*
X147021580Y-84861333D01*
X146945390Y-84899428D01*
X146869200Y-84975619D01*
X146831104Y-85089904D01*
X146831104Y-85166095D01*
X146869200Y-85280380D01*
X146907295Y-85318476D01*
X147402533Y-86296571D02*
X147402533Y-86677523D01*
X147631104Y-86220380D02*
X146831104Y-86487047D01*
X147631104Y-86753714D01*
X146831104Y-86944190D02*
X146831104Y-87439428D01*
X147135866Y-87172761D01*
X147135866Y-87287047D01*
X147173961Y-87363238D01*
X147212057Y-87401333D01*
X147288247Y-87439428D01*
X147478723Y-87439428D01*
X147554914Y-87401333D01*
X147593009Y-87363238D01*
X147631104Y-87287047D01*
X147631104Y-87058476D01*
X147593009Y-86982285D01*
X147554914Y-86944190D01*
X147402533Y-88836571D02*
X147402533Y-89217523D01*
X147631104Y-88760380D02*
X146831104Y-89027047D01*
X147631104Y-89293714D01*
X146907295Y-89522285D02*
X146869200Y-89560380D01*
X146831104Y-89636571D01*
X146831104Y-89827047D01*
X146869200Y-89903238D01*
X146907295Y-89941333D01*
X146983485Y-89979428D01*
X147059676Y-89979428D01*
X147173961Y-89941333D01*
X147631104Y-89484190D01*
X147631104Y-89979428D01*
X147402533Y-91376571D02*
X147402533Y-91757523D01*
X147631104Y-91300380D02*
X146831104Y-91567047D01*
X147631104Y-91833714D01*
X147631104Y-92519428D02*
X147631104Y-92062285D01*
X147631104Y-92290857D02*
X146831104Y-92290857D01*
X146945390Y-92214666D01*
X147021580Y-92138476D01*
X147059676Y-92062285D01*
X147402533Y-93916571D02*
X147402533Y-94297523D01*
X147631104Y-93840380D02*
X146831104Y-94107047D01*
X147631104Y-94373714D01*
X146831104Y-94792761D02*
X146831104Y-94868952D01*
X146869200Y-94945142D01*
X146907295Y-94983238D01*
X146983485Y-95021333D01*
X147135866Y-95059428D01*
X147326342Y-95059428D01*
X147478723Y-95021333D01*
X147554914Y-94983238D01*
X147593009Y-94945142D01*
X147631104Y-94868952D01*
X147631104Y-94792761D01*
X147593009Y-94716571D01*
X147554914Y-94678476D01*
X147478723Y-94640380D01*
X147326342Y-94602285D01*
X147135866Y-94602285D01*
X146983485Y-94640380D01*
X146907295Y-94678476D01*
X146869200Y-94716571D01*
X146831104Y-94792761D01*
X147631104Y-96875619D02*
X147631104Y-96418476D01*
X147631104Y-96647047D02*
X146831104Y-96647047D01*
X146945390Y-96570857D01*
X147021580Y-96494666D01*
X147059676Y-96418476D01*
X146831104Y-97599428D02*
X146831104Y-97218476D01*
X147212057Y-97180380D01*
X147173961Y-97218476D01*
X147135866Y-97294666D01*
X147135866Y-97485142D01*
X147173961Y-97561333D01*
X147212057Y-97599428D01*
X147288247Y-97637523D01*
X147478723Y-97637523D01*
X147554914Y-97599428D01*
X147593009Y-97561333D01*
X147631104Y-97485142D01*
X147631104Y-97294666D01*
X147593009Y-97218476D01*
X147554914Y-97180380D01*
X147631104Y-99415619D02*
X147631104Y-98958476D01*
X147631104Y-99187047D02*
X146831104Y-99187047D01*
X146945390Y-99110857D01*
X147021580Y-99034666D01*
X147059676Y-98958476D01*
X147097771Y-100101333D02*
X147631104Y-100101333D01*
X146793009Y-99910857D02*
X147364438Y-99720380D01*
X147364438Y-100215619D01*
X147631104Y-101549219D02*
X147631104Y-101092076D01*
X147631104Y-101320647D02*
X146831104Y-101320647D01*
X146945390Y-101244457D01*
X147021580Y-101168266D01*
X147059676Y-101092076D01*
X146831104Y-102234933D02*
X146831104Y-102082552D01*
X146869200Y-102006361D01*
X146907295Y-101968266D01*
X147021580Y-101892076D01*
X147173961Y-101853980D01*
X147478723Y-101853980D01*
X147554914Y-101892076D01*
X147593009Y-101930171D01*
X147631104Y-102006361D01*
X147631104Y-102158742D01*
X147593009Y-102234933D01*
X147554914Y-102273028D01*
X147478723Y-102311123D01*
X147288247Y-102311123D01*
X147212057Y-102273028D01*
X147173961Y-102234933D01*
X147135866Y-102158742D01*
X147135866Y-102006361D01*
X147173961Y-101930171D01*
X147212057Y-101892076D01*
X147288247Y-101853980D01*
X146943244Y-103081254D02*
X147266493Y-103404503D01*
X147104868Y-103242879D02*
X147670554Y-102677193D01*
X147643616Y-102811880D01*
X147643616Y-102919630D01*
X147670554Y-103000442D01*
X147158743Y-102165383D02*
X147104868Y-102111508D01*
X147024056Y-102084571D01*
X146970181Y-102084571D01*
X146889369Y-102111508D01*
X146754682Y-102192320D01*
X146619995Y-102327007D01*
X146539183Y-102461694D01*
X146512245Y-102542506D01*
X146512245Y-102596381D01*
X146539183Y-102677193D01*
X146593058Y-102731068D01*
X146673870Y-102758006D01*
X146727745Y-102758006D01*
X146808557Y-102731068D01*
X146943244Y-102650256D01*
X147077931Y-102515569D01*
X147158743Y-102380882D01*
X147185680Y-102300070D01*
X147185680Y-102246195D01*
X147158743Y-102165383D01*
X146075380Y-103358904D02*
X146532523Y-103358904D01*
X146303952Y-103358904D02*
X146303952Y-102558904D01*
X146380142Y-102673190D01*
X146456333Y-102749380D01*
X146532523Y-102787476D01*
X145808714Y-102558904D02*
X145275380Y-102558904D01*
X145618238Y-103358904D01*
X144386228Y-103130333D02*
X144005276Y-103130333D01*
X144462419Y-103358904D02*
X144195752Y-102558904D01*
X143929085Y-103358904D01*
X143281466Y-102558904D02*
X143662419Y-102558904D01*
X143700514Y-102939857D01*
X143662419Y-102901761D01*
X143586228Y-102863666D01*
X143395752Y-102863666D01*
X143319561Y-102901761D01*
X143281466Y-102939857D01*
X143243371Y-103016047D01*
X143243371Y-103206523D01*
X143281466Y-103282714D01*
X143319561Y-103320809D01*
X143395752Y-103358904D01*
X143586228Y-103358904D01*
X143662419Y-103320809D01*
X143700514Y-103282714D01*
X141846228Y-103130333D02*
X141465276Y-103130333D01*
X141922419Y-103358904D02*
X141655752Y-102558904D01*
X141389085Y-103358904D01*
X140779561Y-102825571D02*
X140779561Y-103358904D01*
X140970038Y-102520809D02*
X141160514Y-103092238D01*
X140665276Y-103092238D01*
X138887180Y-103358904D02*
X139344323Y-103358904D01*
X139115752Y-103358904D02*
X139115752Y-102558904D01*
X139191942Y-102673190D01*
X139268133Y-102749380D01*
X139344323Y-102787476D01*
X138620514Y-102558904D02*
X138125276Y-102558904D01*
X138391942Y-102863666D01*
X138277657Y-102863666D01*
X138201466Y-102901761D01*
X138163371Y-102939857D01*
X138125276Y-103016047D01*
X138125276Y-103206523D01*
X138163371Y-103282714D01*
X138201466Y-103320809D01*
X138277657Y-103358904D01*
X138506228Y-103358904D01*
X138582419Y-103320809D01*
X138620514Y-103282714D01*
X136753580Y-103358904D02*
X137210723Y-103358904D01*
X136982152Y-103358904D02*
X136982152Y-102558904D01*
X137058342Y-102673190D01*
X137134533Y-102749380D01*
X137210723Y-102787476D01*
X136448819Y-102635095D02*
X136410723Y-102597000D01*
X136334533Y-102558904D01*
X136144057Y-102558904D01*
X136067866Y-102597000D01*
X136029771Y-102635095D01*
X135991676Y-102711285D01*
X135991676Y-102787476D01*
X136029771Y-102901761D01*
X136486914Y-103358904D01*
X135991676Y-103358904D01*
X135081444Y-103360654D02*
X134973694Y-103252905D01*
X134946757Y-103172093D01*
X134946757Y-103118218D01*
X134973694Y-102983531D01*
X135054506Y-102848844D01*
X135270006Y-102633345D01*
X135350818Y-102606407D01*
X135404693Y-102606407D01*
X135485505Y-102633345D01*
X135593254Y-102741094D01*
X135620192Y-102821906D01*
X135620192Y-102875781D01*
X135593254Y-102956593D01*
X135458567Y-103091280D01*
X135377755Y-103118218D01*
X135323880Y-103118218D01*
X135243068Y-103091280D01*
X135135319Y-102983531D01*
X135108381Y-102902719D01*
X135108381Y-102848844D01*
X135135319Y-102768032D01*
X135401038Y-101447590D02*
X135439133Y-101523780D01*
X135477228Y-101561876D01*
X135553419Y-101599971D01*
X135591514Y-101599971D01*
X135667704Y-101561876D01*
X135705800Y-101523780D01*
X135743895Y-101447590D01*
X135743895Y-101295209D01*
X135705800Y-101219019D01*
X135667704Y-101180923D01*
X135591514Y-101142828D01*
X135553419Y-101142828D01*
X135477228Y-101180923D01*
X135439133Y-101219019D01*
X135401038Y-101295209D01*
X135401038Y-101447590D01*
X135362942Y-101523780D01*
X135324847Y-101561876D01*
X135248657Y-101599971D01*
X135096276Y-101599971D01*
X135020085Y-101561876D01*
X134981990Y-101523780D01*
X134943895Y-101447590D01*
X134943895Y-101295209D01*
X134981990Y-101219019D01*
X135020085Y-101180923D01*
X135096276Y-101142828D01*
X135248657Y-101142828D01*
X135324847Y-101180923D01*
X135362942Y-101219019D01*
X135401038Y-101295209D01*
X135743895Y-99834666D02*
X135743895Y-99301333D01*
X134943895Y-99644190D01*
X135743895Y-96875619D02*
X135743895Y-97028000D01*
X135705800Y-97104190D01*
X135667704Y-97142285D01*
X135553419Y-97218476D01*
X135401038Y-97256571D01*
X135096276Y-97256571D01*
X135020085Y-97218476D01*
X134981990Y-97180380D01*
X134943895Y-97104190D01*
X134943895Y-96951809D01*
X134981990Y-96875619D01*
X135020085Y-96837523D01*
X135096276Y-96799428D01*
X135286752Y-96799428D01*
X135362942Y-96837523D01*
X135401038Y-96875619D01*
X135439133Y-96951809D01*
X135439133Y-97104190D01*
X135401038Y-97180380D01*
X135362942Y-97218476D01*
X135286752Y-97256571D01*
X135743895Y-94297523D02*
X135743895Y-94678476D01*
X135362942Y-94716571D01*
X135401038Y-94678476D01*
X135439133Y-94602285D01*
X135439133Y-94411809D01*
X135401038Y-94335619D01*
X135362942Y-94297523D01*
X135286752Y-94259428D01*
X135096276Y-94259428D01*
X135020085Y-94297523D01*
X134981990Y-94335619D01*
X134943895Y-94411809D01*
X134943895Y-94602285D01*
X134981990Y-94678476D01*
X135020085Y-94716571D01*
X135477228Y-91795619D02*
X134943895Y-91795619D01*
X135781990Y-91986095D02*
X135210561Y-92176571D01*
X135210561Y-91681333D01*
X134981990Y-90360380D02*
X134943895Y-90246095D01*
X134943895Y-90055619D01*
X134981990Y-89979428D01*
X135020085Y-89941333D01*
X135096276Y-89903238D01*
X135172466Y-89903238D01*
X135248657Y-89941333D01*
X135286752Y-89979428D01*
X135324847Y-90055619D01*
X135362942Y-90208000D01*
X135401038Y-90284190D01*
X135439133Y-90322285D01*
X135515323Y-90360380D01*
X135591514Y-90360380D01*
X135667704Y-90322285D01*
X135705800Y-90284190D01*
X135743895Y-90208000D01*
X135743895Y-90017523D01*
X135705800Y-89903238D01*
X135020085Y-89103238D02*
X134981990Y-89141333D01*
X134943895Y-89255619D01*
X134943895Y-89331809D01*
X134981990Y-89446095D01*
X135058180Y-89522285D01*
X135134371Y-89560380D01*
X135286752Y-89598476D01*
X135401038Y-89598476D01*
X135553419Y-89560380D01*
X135629609Y-89522285D01*
X135705800Y-89446095D01*
X135743895Y-89331809D01*
X135743895Y-89255619D01*
X135705800Y-89141333D01*
X135667704Y-89103238D01*
X134943895Y-88379428D02*
X134943895Y-88760380D01*
X135743895Y-88760380D01*
X134981990Y-87839428D02*
X134943895Y-87725142D01*
X134943895Y-87534666D01*
X134981990Y-87458476D01*
X135020085Y-87420380D01*
X135096276Y-87382285D01*
X135172466Y-87382285D01*
X135248657Y-87420380D01*
X135286752Y-87458476D01*
X135324847Y-87534666D01*
X135362942Y-87687047D01*
X135401038Y-87763238D01*
X135439133Y-87801333D01*
X135515323Y-87839428D01*
X135591514Y-87839428D01*
X135667704Y-87801333D01*
X135705800Y-87763238D01*
X135743895Y-87687047D01*
X135743895Y-87496571D01*
X135705800Y-87382285D01*
X134943895Y-87039428D02*
X135743895Y-87039428D01*
X135743895Y-86848952D01*
X135705800Y-86734666D01*
X135629609Y-86658476D01*
X135553419Y-86620380D01*
X135401038Y-86582285D01*
X135286752Y-86582285D01*
X135134371Y-86620380D01*
X135058180Y-86658476D01*
X134981990Y-86734666D01*
X134943895Y-86848952D01*
X134943895Y-87039428D01*
X135172466Y-86277523D02*
X135172466Y-85896571D01*
X134943895Y-86353714D02*
X135743895Y-86087047D01*
X134943895Y-85820380D01*
X135705800Y-84937523D02*
X135743895Y-85013714D01*
X135743895Y-85128000D01*
X135705800Y-85242285D01*
X135629609Y-85318476D01*
X135553419Y-85356571D01*
X135401038Y-85394666D01*
X135286752Y-85394666D01*
X135134371Y-85356571D01*
X135058180Y-85318476D01*
X134981990Y-85242285D01*
X134943895Y-85128000D01*
X134943895Y-85051809D01*
X134981990Y-84937523D01*
X135020085Y-84899428D01*
X135286752Y-84899428D01*
X135286752Y-85051809D01*
X134943895Y-84556571D02*
X135743895Y-84556571D01*
X134943895Y-84099428D01*
X135743895Y-84099428D01*
X134943895Y-83718476D02*
X135743895Y-83718476D01*
X135743895Y-83528000D01*
X135705800Y-83413714D01*
X135629609Y-83337523D01*
X135553419Y-83299428D01*
X135401038Y-83261333D01*
X135286752Y-83261333D01*
X135134371Y-83299428D01*
X135058180Y-83337523D01*
X134981990Y-83413714D01*
X134943895Y-83528000D01*
X134943895Y-83718476D01*
X135705800Y-82397523D02*
X135743895Y-82473714D01*
X135743895Y-82588000D01*
X135705800Y-82702285D01*
X135629609Y-82778476D01*
X135553419Y-82816571D01*
X135401038Y-82854666D01*
X135286752Y-82854666D01*
X135134371Y-82816571D01*
X135058180Y-82778476D01*
X134981990Y-82702285D01*
X134943895Y-82588000D01*
X134943895Y-82511809D01*
X134981990Y-82397523D01*
X135020085Y-82359428D01*
X135286752Y-82359428D01*
X135286752Y-82511809D01*
X134943895Y-82016571D02*
X135743895Y-82016571D01*
X134943895Y-81559428D01*
X135743895Y-81559428D01*
X134943895Y-81178476D02*
X135743895Y-81178476D01*
X135743895Y-80988000D01*
X135705800Y-80873714D01*
X135629609Y-80797523D01*
X135553419Y-80759428D01*
X135401038Y-80721333D01*
X135286752Y-80721333D01*
X135134371Y-80759428D01*
X135058180Y-80797523D01*
X134981990Y-80873714D01*
X134943895Y-80988000D01*
X134943895Y-81178476D01*
X134943895Y-79381333D02*
X135324847Y-79648000D01*
X134943895Y-79838476D02*
X135743895Y-79838476D01*
X135743895Y-79533714D01*
X135705800Y-79457523D01*
X135667704Y-79419428D01*
X135591514Y-79381333D01*
X135477228Y-79381333D01*
X135401038Y-79419428D01*
X135362942Y-79457523D01*
X135324847Y-79533714D01*
X135324847Y-79838476D01*
X135743895Y-79114666D02*
X134943895Y-78581333D01*
X135743895Y-78581333D02*
X134943895Y-79114666D01*
X135743895Y-77317523D02*
X135743895Y-76860380D01*
X134943895Y-77088952D02*
X135743895Y-77088952D01*
X135743895Y-76669904D02*
X134943895Y-76136571D01*
X135743895Y-76136571D02*
X134943895Y-76669904D01*
D11*
X140804571Y-85970171D02*
X139304571Y-85970171D01*
X140804571Y-86827314D01*
X139304571Y-86827314D01*
X140733142Y-88113028D02*
X140804571Y-87970171D01*
X140804571Y-87684457D01*
X140733142Y-87541600D01*
X140590285Y-87470171D01*
X140018857Y-87470171D01*
X139876000Y-87541600D01*
X139804571Y-87684457D01*
X139804571Y-87970171D01*
X139876000Y-88113028D01*
X140018857Y-88184457D01*
X140161714Y-88184457D01*
X140304571Y-87470171D01*
X140804571Y-88827314D02*
X139804571Y-88827314D01*
X139304571Y-88827314D02*
X139376000Y-88755885D01*
X139447428Y-88827314D01*
X139376000Y-88898742D01*
X139304571Y-88827314D01*
X139447428Y-88827314D01*
X140804571Y-89541600D02*
X139304571Y-89541600D01*
X140804571Y-90184457D02*
X140018857Y-90184457D01*
X139876000Y-90113028D01*
X139804571Y-89970171D01*
X139804571Y-89755885D01*
X139876000Y-89613028D01*
X139947428Y-89541600D01*
X140233142Y-90898742D02*
X140233142Y-92041600D01*
X139304571Y-92541600D02*
X139304571Y-93398742D01*
X140804571Y-92970171D02*
X139304571Y-92970171D01*
X140733142Y-94470171D02*
X140804571Y-94327314D01*
X140804571Y-94041600D01*
X140733142Y-93898742D01*
X140590285Y-93827314D01*
X140018857Y-93827314D01*
X139876000Y-93898742D01*
X139804571Y-94041600D01*
X139804571Y-94327314D01*
X139876000Y-94470171D01*
X140018857Y-94541600D01*
X140161714Y-94541600D01*
X140304571Y-93827314D01*
X140733142Y-95827314D02*
X140804571Y-95684457D01*
X140804571Y-95398742D01*
X140733142Y-95255885D01*
X140661714Y-95184457D01*
X140518857Y-95113028D01*
X140090285Y-95113028D01*
X139947428Y-95184457D01*
X139876000Y-95255885D01*
X139804571Y-95398742D01*
X139804571Y-95684457D01*
X139876000Y-95827314D01*
X140804571Y-96470171D02*
X139304571Y-96470171D01*
X140804571Y-97113028D02*
X140018857Y-97113028D01*
X139876000Y-97041600D01*
X139804571Y-96898742D01*
X139804571Y-96684457D01*
X139876000Y-96541600D01*
X139947428Y-96470171D01*
X142826000Y-82398742D02*
X142826000Y-83113028D01*
X143254571Y-82255885D02*
X141754571Y-82755885D01*
X143254571Y-83255885D01*
X143254571Y-83755885D02*
X142254571Y-83755885D01*
X142540285Y-83755885D02*
X142397428Y-83827314D01*
X142326000Y-83898742D01*
X142254571Y-84041600D01*
X142254571Y-84184457D01*
X143254571Y-85327314D02*
X141754571Y-85327314D01*
X143183142Y-85327314D02*
X143254571Y-85184457D01*
X143254571Y-84898742D01*
X143183142Y-84755885D01*
X143111714Y-84684457D01*
X142968857Y-84613028D01*
X142540285Y-84613028D01*
X142397428Y-84684457D01*
X142326000Y-84755885D01*
X142254571Y-84898742D01*
X142254571Y-85184457D01*
X142326000Y-85327314D01*
X142254571Y-86684457D02*
X143254571Y-86684457D01*
X142254571Y-86041600D02*
X143040285Y-86041600D01*
X143183142Y-86113028D01*
X143254571Y-86255885D01*
X143254571Y-86470171D01*
X143183142Y-86613028D01*
X143111714Y-86684457D01*
X143254571Y-87398742D02*
X142254571Y-87398742D01*
X141754571Y-87398742D02*
X141826000Y-87327314D01*
X141897428Y-87398742D01*
X141826000Y-87470171D01*
X141754571Y-87398742D01*
X141897428Y-87398742D01*
X142254571Y-88113028D02*
X143254571Y-88113028D01*
X142397428Y-88113028D02*
X142326000Y-88184457D01*
X142254571Y-88327314D01*
X142254571Y-88541600D01*
X142326000Y-88684457D01*
X142468857Y-88755885D01*
X143254571Y-88755885D01*
X143254571Y-89684457D02*
X143183142Y-89541600D01*
X143111714Y-89470171D01*
X142968857Y-89398742D01*
X142540285Y-89398742D01*
X142397428Y-89470171D01*
X142326000Y-89541600D01*
X142254571Y-89684457D01*
X142254571Y-89898742D01*
X142326000Y-90041600D01*
X142397428Y-90113028D01*
X142540285Y-90184457D01*
X142968857Y-90184457D01*
X143111714Y-90113028D01*
X143183142Y-90041600D01*
X143254571Y-89898742D01*
X143254571Y-89684457D01*
X143254571Y-91970171D02*
X141754571Y-91970171D01*
X142826000Y-92470171D01*
X141754571Y-92970171D01*
X143254571Y-92970171D01*
X143254571Y-93684457D02*
X142254571Y-93684457D01*
X141754571Y-93684457D02*
X141826000Y-93613028D01*
X141897428Y-93684457D01*
X141826000Y-93755885D01*
X141754571Y-93684457D01*
X141897428Y-93684457D01*
X143183142Y-95041600D02*
X143254571Y-94898742D01*
X143254571Y-94613028D01*
X143183142Y-94470171D01*
X143111714Y-94398742D01*
X142968857Y-94327314D01*
X142540285Y-94327314D01*
X142397428Y-94398742D01*
X142326000Y-94470171D01*
X142254571Y-94613028D01*
X142254571Y-94898742D01*
X142326000Y-95041600D01*
X143254571Y-95684457D02*
X142254571Y-95684457D01*
X142540285Y-95684457D02*
X142397428Y-95755885D01*
X142326000Y-95827314D01*
X142254571Y-95970171D01*
X142254571Y-96113028D01*
X143254571Y-96827314D02*
X143183142Y-96684457D01*
X143111714Y-96613028D01*
X142968857Y-96541600D01*
X142540285Y-96541600D01*
X142397428Y-96613028D01*
X142326000Y-96684457D01*
X142254571Y-96827314D01*
X142254571Y-97041600D01*
X142326000Y-97184457D01*
X142397428Y-97255885D01*
X142540285Y-97327314D01*
X142968857Y-97327314D01*
X143111714Y-97255885D01*
X143183142Y-97184457D01*
X143254571Y-97041600D01*
X143254571Y-96827314D01*
X142683142Y-97970171D02*
X142683142Y-99113028D01*
X143111714Y-100684457D02*
X143183142Y-100613028D01*
X143254571Y-100398742D01*
X143254571Y-100255885D01*
X143183142Y-100041600D01*
X143040285Y-99898742D01*
X142897428Y-99827314D01*
X142611714Y-99755885D01*
X142397428Y-99755885D01*
X142111714Y-99827314D01*
X141968857Y-99898742D01*
X141826000Y-100041600D01*
X141754571Y-100255885D01*
X141754571Y-100398742D01*
X141826000Y-100613028D01*
X141897428Y-100684457D01*
M02*
